<ttFont>
    <TTGlyph name=".notdef" xMin="68" yMin="0" xMax="612" yMax="1365">
      <contour>
        <pt x="68" y="0" on="1"/>
        <pt x="68" y="1365" on="1"/>
        <pt x="612" y="1365" on="1"/>
        <pt x="612" y="0" on="1"/>
      </contour>
      <contour>
        <pt x="136" y="68" on="1"/>
        <pt x="544" y="68" on="1"/>
        <pt x="544" y="1297" on="1"/>
        <pt x="136" y="1297" on="1"/>
      </contour>
    </TTGlyph>
    <TTGlyph name="A" xMin="98" yMin="-68" xMax="814" yMax="1126">
      <contour>
        <pt x="339" y="1120" on="1"/>
        <pt x="341" y="1126" on="1"/>
        <pt x="455" y="1126" on="1"/>
        <pt x="568" y="1126" on="0"/>
        <pt x="570" y="1124" on="1"/>
        <pt x="576" y="1114" on="0"/>
        <pt x="580" y="1016" on="0"/>
        <pt x="576" y="988" on="1"/>
        <pt x="571" y="960" on="0"/>
        <pt x="570" y="958" on="1"/>
        <pt x="568" y="956" on="0"/>
        <pt x="597" y="956" on="1"/>
        <pt x="624" y="956" on="0"/>
        <pt x="627" y="953" on="1"/>
        <pt x="633" y="943" on="0"/>
        <pt x="637" y="846" on="0"/>
        <pt x="633" y="818" on="1"/>
        <pt x="628" y="789" on="0"/>
        <pt x="627" y="787" on="1"/>
        <pt x="625" y="785" on="0"/>
        <pt x="654" y="785" on="1"/>
        <pt x="682" y="785" on="0"/>
        <pt x="684" y="783" on="1"/>
        <pt x="690" y="773" on="0"/>
        <pt x="694" y="675" on="0"/>
        <pt x="690" y="647" on="1"/>
        <pt x="685" y="619" on="0"/>
        <pt x="684" y="617" on="1"/>
        <pt x="708" y="614" on="1"/>
        <pt x="711" y="614" on="1"/>
        <pt x="739" y="614" on="0"/>
        <pt x="741" y="612" on="1"/>
        <pt x="742" y="611" on="0"/>
        <pt x="744" y="600" on="1"/>
        <pt x="757" y="531" on="0"/>
        <pt x="743" y="457" on="1"/>
        <pt x="741" y="443" on="0"/>
        <pt x="743" y="431" on="1"/>
        <pt x="750" y="401" on="0"/>
        <pt x="748" y="286" on="0"/>
        <pt x="741" y="275" on="1"/>
        <pt x="739" y="273" on="0"/>
        <pt x="768" y="273" on="1"/>
        <pt x="796" y="273" on="0"/>
        <pt x="798" y="271" on="1"/>
        <pt x="799" y="270" on="0"/>
        <pt x="801" y="259" on="1"/>
        <pt x="814" y="189" on="0"/>
        <pt x="800" y="115" on="1"/>
        <pt x="798" y="102" on="0"/>
        <pt x="800" y="90" on="1"/>
        <pt x="807" y="59" on="0"/>
        <pt x="804" y="-59" on="0"/>
        <pt x="797" y="-66" on="1"/>
        <pt x="795" y="-68" on="0"/>
        <pt x="710" y="-68" on="1"/>
        <pt x="625" y="-67" on="1"/>
        <pt x="623" y="-59" on="1"/>
        <pt x="616" y="-34" on="0"/>
        <pt x="616" y="74" on="0"/>
        <pt x="623" y="94" on="1"/>
        <pt x="625" y="102" on="0"/>
        <pt x="623" y="112" on="1"/>
        <pt x="616" y="139" on="0"/>
        <pt x="616" y="244" on="0"/>
        <pt x="623" y="265" on="1"/>
        <pt x="625" y="273" on="1"/>
        <pt x="455" y="273" on="1"/>
        <pt x="435" y="273" on="0"/>
        <pt x="397" y="273" on="0"/>
        <pt x="364" y="273" on="0"/>
        <pt x="334" y="272" on="0"/>
        <pt x="311" y="272" on="0"/>
        <pt x="294" y="272" on="0"/>
        <pt x="290" y="272" on="1"/>
        <pt x="286" y="271" on="1"/>
        <pt x="293" y="260" on="0"/>
        <pt x="294" y="144" on="0"/>
        <pt x="288" y="115" on="1"/>
        <pt x="286" y="102" on="0"/>
        <pt x="288" y="90" on="1"/>
        <pt x="295" y="59" on="0"/>
        <pt x="292" y="-59" on="0"/>
        <pt x="285" y="-66" on="1"/>
        <pt x="283" y="-68" on="0"/>
        <pt x="198" y="-68" on="1"/>
        <pt x="113" y="-67" on="1"/>
        <pt x="111" y="-59" on="1"/>
        <pt x="104" y="-34" on="0"/>
        <pt x="104" y="74" on="0"/>
        <pt x="111" y="94" on="1"/>
        <pt x="113" y="102" on="0"/>
        <pt x="111" y="112" on="1"/>
        <pt x="98" y="159" on="0"/>
        <pt x="106" y="234" on="1"/>
        <pt x="109" y="264" on="0"/>
        <pt x="117" y="273" on="0"/>
        <pt x="142" y="273" on="1"/>
        <pt x="170" y="273" on="1"/>
        <pt x="168" y="282" on="1"/>
        <pt x="161" y="309" on="0"/>
        <pt x="161" y="415" on="0"/>
        <pt x="168" y="436" on="1"/>
        <pt x="170" y="444" on="0"/>
        <pt x="168" y="453" on="1"/>
        <pt x="155" y="500" on="0"/>
        <pt x="163" y="576" on="1"/>
        <pt x="166" y="606" on="0"/>
        <pt x="174" y="614" on="0"/>
        <pt x="199" y="614" on="1"/>
        <pt x="227" y="614" on="1"/>
        <pt x="225" y="624" on="1"/>
        <pt x="212" y="671" on="0"/>
        <pt x="220" y="746" on="1"/>
        <pt x="223" y="776" on="0"/>
        <pt x="231" y="785" on="0"/>
        <pt x="256" y="785" on="1"/>
        <pt x="284" y="785" on="1"/>
        <pt x="281" y="794" on="1"/>
        <pt x="269" y="838" on="0"/>
        <pt x="277" y="917" on="1"/>
        <pt x="280" y="947" on="0"/>
        <pt x="288" y="956" on="0"/>
        <pt x="313" y="956" on="1"/>
        <pt x="341" y="956" on="1"/>
        <pt x="338" y="965" on="1"/>
        <pt x="331" y="992" on="0"/>
        <pt x="332" y="1101" on="0"/>
      </contour>
      <contour>
        <pt x="509" y="777" on="1"/>
        <pt x="512" y="785" on="1"/>
        <pt x="455" y="785" on="1"/>
        <pt x="446" y="785" on="0"/>
        <pt x="429" y="785" on="0"/>
        <pt x="415" y="784" on="0"/>
        <pt x="404" y="784" on="0"/>
        <pt x="402" y="784" on="1"/>
        <pt x="399" y="783" on="1"/>
        <pt x="408" y="767" on="0"/>
        <pt x="408" y="701" on="1"/>
        <pt x="408" y="633" on="0"/>
        <pt x="399" y="617" on="1"/>
        <pt x="396" y="614" on="0"/>
        <pt x="369" y="614" on="1"/>
        <pt x="340" y="614" on="0"/>
        <pt x="342" y="612" on="1"/>
        <pt x="351" y="596" on="0"/>
        <pt x="351" y="530" on="1"/>
        <pt x="351" y="462" on="0"/>
        <pt x="342" y="446" on="1"/>
        <pt x="356" y="446" on="1"/>
        <pt x="371" y="445" on="0"/>
        <pt x="424" y="444" on="0"/>
        <pt x="455" y="444" on="1"/>
        <pt x="568" y="444" on="1"/>
        <pt x="566" y="453" on="1"/>
        <pt x="559" y="480" on="0"/>
        <pt x="559" y="585" on="0"/>
        <pt x="566" y="606" on="1"/>
        <pt x="569" y="614" on="1"/>
        <pt x="540" y="615" on="1"/>
        <pt x="511" y="616" on="1"/>
        <pt x="509" y="624" on="1"/>
        <pt x="502" y="650" on="0"/>
        <pt x="502" y="756" on="0"/>
      </contour>
    </TTGlyph>
    <TTGlyph name="AE" xMin="98" yMin="-68" xMax="808" yMax="1126">
      <contour>
        <pt x="282" y="1120" on="1"/>
        <pt x="284" y="1126" on="1"/>
        <pt x="540" y="1126" on="1"/>
        <pt x="796" y="1126" on="0"/>
        <pt x="798" y="1124" on="1"/>
        <pt x="804" y="1114" on="0"/>
        <pt x="808" y="1016" on="0"/>
        <pt x="803" y="988" on="1"/>
        <pt x="802" y="983" on="0"/>
        <pt x="801" y="975" on="0"/>
        <pt x="800" y="970" on="0"/>
        <pt x="799" y="965" on="0"/>
        <pt x="799" y="962" on="0"/>
        <pt x="799" y="960" on="0"/>
        <pt x="798" y="959" on="1"/>
        <pt x="798" y="958" on="1"/>
        <pt x="796" y="956" on="0"/>
        <pt x="711" y="956" on="1"/>
        <pt x="698" y="956" on="0"/>
        <pt x="671" y="956" on="0"/>
        <pt x="651" y="955" on="0"/>
        <pt x="635" y="954" on="0"/>
        <pt x="631" y="954" on="1"/>
        <pt x="627" y="953" on="1"/>
        <pt x="634" y="942" on="0"/>
        <pt x="636" y="827" on="0"/>
        <pt x="630" y="798" on="1"/>
        <pt x="628" y="785" on="0"/>
        <pt x="630" y="772" on="1"/>
        <pt x="637" y="742" on="0"/>
        <pt x="635" y="628" on="0"/>
        <pt x="627" y="617" on="1"/>
        <pt x="631" y="616" on="1"/>
        <pt x="635" y="616" on="0"/>
        <pt x="651" y="615" on="0"/>
        <pt x="671" y="614" on="0"/>
        <pt x="698" y="614" on="0"/>
        <pt x="711" y="614" on="1"/>
        <pt x="796" y="614" on="0"/>
        <pt x="798" y="612" on="1"/>
        <pt x="804" y="602" on="0"/>
        <pt x="808" y="504" on="0"/>
        <pt x="803" y="476" on="1"/>
        <pt x="802" y="471" on="0"/>
        <pt x="801" y="463" on="0"/>
        <pt x="800" y="458" on="0"/>
        <pt x="799" y="453" on="0"/>
        <pt x="799" y="450" on="0"/>
        <pt x="799" y="448" on="0"/>
        <pt x="798" y="447" on="1"/>
        <pt x="798" y="446" on="1"/>
        <pt x="796" y="444" on="0"/>
        <pt x="711" y="444" on="1"/>
        <pt x="626" y="444" on="1"/>
        <pt x="629" y="435" on="1"/>
        <pt x="636" y="411" on="0"/>
        <pt x="634" y="288" on="0"/>
        <pt x="627" y="276" on="1"/>
        <pt x="625" y="274" on="0"/>
        <pt x="629" y="264" on="1"/>
        <pt x="636" y="239" on="0"/>
        <pt x="634" y="117" on="0"/>
        <pt x="627" y="105" on="1"/>
        <pt x="631" y="104" on="1"/>
        <pt x="635" y="104" on="0"/>
        <pt x="651" y="103" on="0"/>
        <pt x="671" y="102" on="0"/>
        <pt x="698" y="102" on="0"/>
        <pt x="711" y="102" on="1"/>
        <pt x="796" y="102" on="0"/>
        <pt x="798" y="100" on="1"/>
        <pt x="803" y="91" on="0"/>
        <pt x="808" y="-8" on="0"/>
        <pt x="804" y="-33" on="1"/>
        <pt x="803" y="-36" on="0"/>
        <pt x="801" y="-51" on="0"/>
        <pt x="801" y="-53" on="1"/>
        <pt x="799" y="-64" on="0"/>
        <pt x="795" y="-68" on="0"/>
        <pt x="624" y="-68" on="1"/>
        <pt x="454" y="-67" on="1"/>
        <pt x="452" y="-59" on="1"/>
        <pt x="445" y="-34" on="0"/>
        <pt x="445" y="74" on="0"/>
        <pt x="452" y="94" on="1"/>
        <pt x="454" y="102" on="0"/>
        <pt x="452" y="112" on="1"/>
        <pt x="445" y="139" on="0"/>
        <pt x="445" y="244" on="0"/>
        <pt x="452" y="265" on="1"/>
        <pt x="455" y="273" on="1"/>
        <pt x="369" y="273" on="1"/>
        <pt x="355" y="273" on="0"/>
        <pt x="329" y="273" on="0"/>
        <pt x="309" y="272" on="0"/>
        <pt x="294" y="272" on="0"/>
        <pt x="290" y="272" on="1"/>
        <pt x="286" y="271" on="1"/>
        <pt x="293" y="260" on="0"/>
        <pt x="294" y="144" on="0"/>
        <pt x="288" y="115" on="1"/>
        <pt x="286" y="102" on="0"/>
        <pt x="288" y="90" on="1"/>
        <pt x="295" y="59" on="0"/>
        <pt x="292" y="-59" on="0"/>
        <pt x="285" y="-66" on="1"/>
        <pt x="283" y="-68" on="0"/>
        <pt x="198" y="-68" on="1"/>
        <pt x="113" y="-67" on="1"/>
        <pt x="111" y="-59" on="1"/>
        <pt x="104" y="-34" on="0"/>
        <pt x="104" y="74" on="0"/>
        <pt x="111" y="94" on="1"/>
        <pt x="113" y="102" on="0"/>
        <pt x="111" y="112" on="1"/>
        <pt x="104" y="139" on="0"/>
        <pt x="104" y="244" on="0"/>
        <pt x="111" y="265" on="1"/>
        <pt x="113" y="273" on="0"/>
        <pt x="111" y="282" on="1"/>
        <pt x="98" y="329" on="0"/>
        <pt x="106" y="405" on="1"/>
        <pt x="109" y="435" on="0"/>
        <pt x="117" y="444" on="0"/>
        <pt x="142" y="444" on="1"/>
        <pt x="170" y="444" on="1"/>
        <pt x="168" y="453" on="1"/>
        <pt x="161" y="480" on="0"/>
        <pt x="161" y="585" on="0"/>
        <pt x="168" y="606" on="1"/>
        <pt x="170" y="614" on="0"/>
        <pt x="168" y="624" on="1"/>
        <pt x="155" y="671" on="0"/>
        <pt x="163" y="746" on="1"/>
        <pt x="166" y="776" on="0"/>
        <pt x="174" y="785" on="0"/>
        <pt x="199" y="785" on="1"/>
        <pt x="227" y="785" on="1"/>
        <pt x="225" y="794" on="1"/>
        <pt x="212" y="841" on="0"/>
        <pt x="220" y="917" on="1"/>
        <pt x="223" y="947" on="0"/>
        <pt x="231" y="956" on="0"/>
        <pt x="256" y="956" on="1"/>
        <pt x="284" y="956" on="1"/>
        <pt x="281" y="965" on="1"/>
        <pt x="274" y="992" on="0"/>
        <pt x="275" y="1101" on="0"/>
      </contour>
      <contour>
        <pt x="452" y="948" on="1"/>
        <pt x="455" y="956" on="1"/>
        <pt x="398" y="956" on="1"/>
        <pt x="389" y="956" on="0"/>
        <pt x="371" y="956" on="0"/>
        <pt x="358" y="955" on="0"/>
        <pt x="347" y="954" on="0"/>
        <pt x="344" y="954" on="1"/>
        <pt x="342" y="953" on="1"/>
        <pt x="349" y="942" on="0"/>
        <pt x="351" y="827" on="0"/>
        <pt x="345" y="798" on="1"/>
        <pt x="343" y="785" on="0"/>
        <pt x="345" y="772" on="1"/>
        <pt x="350" y="746" on="0"/>
        <pt x="350" y="652" on="0"/>
        <pt x="345" y="627" on="1"/>
        <pt x="343" y="614" on="0"/>
        <pt x="345" y="602" on="1"/>
        <pt x="352" y="572" on="0"/>
        <pt x="350" y="457" on="0"/>
        <pt x="342" y="446" on="1"/>
        <pt x="349" y="446" on="1"/>
        <pt x="356" y="445" on="0"/>
        <pt x="383" y="444" on="0"/>
        <pt x="398" y="444" on="1"/>
        <pt x="455" y="444" on="1"/>
        <pt x="452" y="453" on="1"/>
        <pt x="445" y="480" on="0"/>
        <pt x="445" y="585" on="0"/>
        <pt x="452" y="606" on="1"/>
        <pt x="454" y="614" on="0"/>
        <pt x="452" y="624" on="1"/>
        <pt x="445" y="651" on="0"/>
        <pt x="445" y="756" on="0"/>
        <pt x="452" y="777" on="1"/>
        <pt x="454" y="785" on="0"/>
        <pt x="452" y="794" on="1"/>
        <pt x="445" y="821" on="0"/>
        <pt x="445" y="927" on="0"/>
      </contour>
    </TTGlyph>
    <TTGlyph name="Aacute" xMin="98" yMin="-68" xMax="814" yMax="1638">
      <contour>
        <pt x="339" y="1120" on="1"/>
        <pt x="341" y="1126" on="1"/>
        <pt x="455" y="1126" on="1"/>
        <pt x="568" y="1126" on="0"/>
        <pt x="570" y="1124" on="1"/>
        <pt x="576" y="1114" on="0"/>
        <pt x="580" y="1016" on="0"/>
        <pt x="576" y="988" on="1"/>
        <pt x="571" y="960" on="0"/>
        <pt x="570" y="958" on="1"/>
        <pt x="568" y="956" on="0"/>
        <pt x="597" y="956" on="1"/>
        <pt x="624" y="956" on="0"/>
        <pt x="627" y="953" on="1"/>
        <pt x="633" y="943" on="0"/>
        <pt x="637" y="846" on="0"/>
        <pt x="633" y="818" on="1"/>
        <pt x="628" y="789" on="0"/>
        <pt x="627" y="787" on="1"/>
        <pt x="625" y="785" on="0"/>
        <pt x="654" y="785" on="1"/>
        <pt x="682" y="785" on="0"/>
        <pt x="684" y="783" on="1"/>
        <pt x="690" y="773" on="0"/>
        <pt x="694" y="675" on="0"/>
        <pt x="690" y="647" on="1"/>
        <pt x="685" y="619" on="0"/>
        <pt x="684" y="617" on="1"/>
        <pt x="708" y="614" on="1"/>
        <pt x="711" y="614" on="1"/>
        <pt x="739" y="614" on="0"/>
        <pt x="741" y="612" on="1"/>
        <pt x="742" y="611" on="0"/>
        <pt x="744" y="600" on="1"/>
        <pt x="757" y="531" on="0"/>
        <pt x="743" y="457" on="1"/>
        <pt x="741" y="443" on="0"/>
        <pt x="743" y="431" on="1"/>
        <pt x="750" y="401" on="0"/>
        <pt x="748" y="286" on="0"/>
        <pt x="741" y="275" on="1"/>
        <pt x="739" y="273" on="0"/>
        <pt x="768" y="273" on="1"/>
        <pt x="796" y="273" on="0"/>
        <pt x="798" y="271" on="1"/>
        <pt x="799" y="270" on="0"/>
        <pt x="801" y="259" on="1"/>
        <pt x="814" y="189" on="0"/>
        <pt x="800" y="115" on="1"/>
        <pt x="798" y="102" on="0"/>
        <pt x="800" y="90" on="1"/>
        <pt x="807" y="59" on="0"/>
        <pt x="804" y="-59" on="0"/>
        <pt x="797" y="-66" on="1"/>
        <pt x="795" y="-68" on="0"/>
        <pt x="710" y="-68" on="1"/>
        <pt x="625" y="-67" on="1"/>
        <pt x="623" y="-59" on="1"/>
        <pt x="616" y="-34" on="0"/>
        <pt x="616" y="74" on="0"/>
        <pt x="623" y="94" on="1"/>
        <pt x="625" y="102" on="0"/>
        <pt x="623" y="112" on="1"/>
        <pt x="616" y="139" on="0"/>
        <pt x="616" y="244" on="0"/>
        <pt x="623" y="265" on="1"/>
        <pt x="625" y="273" on="1"/>
        <pt x="455" y="273" on="1"/>
        <pt x="435" y="273" on="0"/>
        <pt x="397" y="273" on="0"/>
        <pt x="364" y="273" on="0"/>
        <pt x="334" y="272" on="0"/>
        <pt x="311" y="272" on="0"/>
        <pt x="294" y="272" on="0"/>
        <pt x="290" y="272" on="1"/>
        <pt x="286" y="271" on="1"/>
        <pt x="293" y="260" on="0"/>
        <pt x="294" y="144" on="0"/>
        <pt x="288" y="115" on="1"/>
        <pt x="286" y="102" on="0"/>
        <pt x="288" y="90" on="1"/>
        <pt x="295" y="59" on="0"/>
        <pt x="292" y="-59" on="0"/>
        <pt x="285" y="-66" on="1"/>
        <pt x="283" y="-68" on="0"/>
        <pt x="198" y="-68" on="1"/>
        <pt x="113" y="-67" on="1"/>
        <pt x="111" y="-59" on="1"/>
        <pt x="104" y="-34" on="0"/>
        <pt x="104" y="74" on="0"/>
        <pt x="111" y="94" on="1"/>
        <pt x="113" y="102" on="0"/>
        <pt x="111" y="112" on="1"/>
        <pt x="98" y="159" on="0"/>
        <pt x="106" y="234" on="1"/>
        <pt x="109" y="264" on="0"/>
        <pt x="117" y="273" on="0"/>
        <pt x="142" y="273" on="1"/>
        <pt x="170" y="273" on="1"/>
        <pt x="168" y="282" on="1"/>
        <pt x="161" y="309" on="0"/>
        <pt x="161" y="415" on="0"/>
        <pt x="168" y="436" on="1"/>
        <pt x="170" y="444" on="0"/>
        <pt x="168" y="453" on="1"/>
        <pt x="155" y="500" on="0"/>
        <pt x="163" y="576" on="1"/>
        <pt x="166" y="606" on="0"/>
        <pt x="174" y="614" on="0"/>
        <pt x="199" y="614" on="1"/>
        <pt x="227" y="614" on="1"/>
        <pt x="225" y="624" on="1"/>
        <pt x="212" y="671" on="0"/>
        <pt x="220" y="746" on="1"/>
        <pt x="223" y="776" on="0"/>
        <pt x="231" y="785" on="0"/>
        <pt x="256" y="785" on="1"/>
        <pt x="284" y="785" on="1"/>
        <pt x="281" y="794" on="1"/>
        <pt x="269" y="838" on="0"/>
        <pt x="277" y="917" on="1"/>
        <pt x="280" y="947" on="0"/>
        <pt x="288" y="956" on="0"/>
        <pt x="313" y="956" on="1"/>
        <pt x="341" y="956" on="1"/>
        <pt x="338" y="965" on="1"/>
        <pt x="331" y="992" on="0"/>
        <pt x="332" y="1101" on="0"/>
      </contour>
      <contour>
        <pt x="509" y="777" on="1"/>
        <pt x="512" y="785" on="1"/>
        <pt x="455" y="785" on="1"/>
        <pt x="446" y="785" on="0"/>
        <pt x="429" y="785" on="0"/>
        <pt x="415" y="784" on="0"/>
        <pt x="404" y="784" on="0"/>
        <pt x="402" y="784" on="1"/>
        <pt x="399" y="783" on="1"/>
        <pt x="408" y="767" on="0"/>
        <pt x="408" y="701" on="1"/>
        <pt x="408" y="633" on="0"/>
        <pt x="399" y="617" on="1"/>
        <pt x="396" y="614" on="0"/>
        <pt x="369" y="614" on="1"/>
        <pt x="340" y="614" on="0"/>
        <pt x="342" y="612" on="1"/>
        <pt x="351" y="596" on="0"/>
        <pt x="351" y="530" on="1"/>
        <pt x="351" y="462" on="0"/>
        <pt x="342" y="446" on="1"/>
        <pt x="356" y="446" on="1"/>
        <pt x="371" y="445" on="0"/>
        <pt x="424" y="444" on="0"/>
        <pt x="455" y="444" on="1"/>
        <pt x="568" y="444" on="1"/>
        <pt x="566" y="453" on="1"/>
        <pt x="559" y="480" on="0"/>
        <pt x="559" y="585" on="0"/>
        <pt x="566" y="606" on="1"/>
        <pt x="569" y="614" on="1"/>
        <pt x="540" y="615" on="1"/>
        <pt x="511" y="616" on="1"/>
        <pt x="509" y="624" on="1"/>
        <pt x="502" y="650" on="0"/>
        <pt x="502" y="756" on="0"/>
      </contour>
      <contour>
        <pt x="453" y="1632" on="1"/>
        <pt x="455" y="1638" on="1"/>
        <pt x="540" y="1638" on="1"/>
        <pt x="625" y="1638" on="0"/>
        <pt x="627" y="1636" on="1"/>
        <pt x="632" y="1627" on="0"/>
        <pt x="637" y="1528" on="0"/>
        <pt x="633" y="1503" on="1"/>
        <pt x="632" y="1501" on="0"/>
        <pt x="630" y="1486" on="0"/>
        <pt x="630" y="1484" on="1"/>
        <pt x="628" y="1471" on="0"/>
        <pt x="627" y="1470" on="1"/>
        <pt x="625" y="1468" on="0"/>
        <pt x="569" y="1468" on="1"/>
        <pt x="560" y="1468" on="0"/>
        <pt x="542" y="1468" on="0"/>
        <pt x="529" y="1467" on="0"/>
        <pt x="518" y="1466" on="0"/>
        <pt x="516" y="1466" on="1"/>
        <pt x="513" y="1465" on="1"/>
        <pt x="521" y="1452" on="0"/>
        <pt x="521" y="1307" on="0"/>
        <pt x="513" y="1299" on="1"/>
        <pt x="512" y="1298" on="0"/>
        <pt x="425" y="1298" on="1"/>
        <pt x="340" y="1298" on="1"/>
        <pt x="338" y="1306" on="1"/>
        <pt x="331" y="1332" on="0"/>
        <pt x="332" y="1443" on="0"/>
        <pt x="339" y="1461" on="1"/>
        <pt x="341" y="1468" on="1"/>
        <pt x="398" y="1468" on="1"/>
        <pt x="455" y="1468" on="1"/>
        <pt x="452" y="1477" on="1"/>
        <pt x="445" y="1504" on="0"/>
        <pt x="446" y="1613" on="0"/>
      </contour>
    </TTGlyph>
    <TTGlyph name="Acircumflex" xMin="98" yMin="-68" xMax="814" yMax="1638">
      <contour>
        <pt x="339" y="1120" on="1"/>
        <pt x="341" y="1126" on="1"/>
        <pt x="455" y="1126" on="1"/>
        <pt x="568" y="1126" on="0"/>
        <pt x="570" y="1124" on="1"/>
        <pt x="576" y="1114" on="0"/>
        <pt x="580" y="1016" on="0"/>
        <pt x="576" y="988" on="1"/>
        <pt x="571" y="960" on="0"/>
        <pt x="570" y="958" on="1"/>
        <pt x="568" y="956" on="0"/>
        <pt x="597" y="956" on="1"/>
        <pt x="624" y="956" on="0"/>
        <pt x="627" y="953" on="1"/>
        <pt x="633" y="943" on="0"/>
        <pt x="637" y="846" on="0"/>
        <pt x="633" y="818" on="1"/>
        <pt x="628" y="789" on="0"/>
        <pt x="627" y="787" on="1"/>
        <pt x="625" y="785" on="0"/>
        <pt x="654" y="785" on="1"/>
        <pt x="682" y="785" on="0"/>
        <pt x="684" y="783" on="1"/>
        <pt x="690" y="773" on="0"/>
        <pt x="694" y="675" on="0"/>
        <pt x="690" y="647" on="1"/>
        <pt x="685" y="619" on="0"/>
        <pt x="684" y="617" on="1"/>
        <pt x="708" y="614" on="1"/>
        <pt x="711" y="614" on="1"/>
        <pt x="739" y="614" on="0"/>
        <pt x="741" y="612" on="1"/>
        <pt x="742" y="611" on="0"/>
        <pt x="744" y="600" on="1"/>
        <pt x="757" y="531" on="0"/>
        <pt x="743" y="457" on="1"/>
        <pt x="741" y="443" on="0"/>
        <pt x="743" y="431" on="1"/>
        <pt x="750" y="401" on="0"/>
        <pt x="748" y="286" on="0"/>
        <pt x="741" y="275" on="1"/>
        <pt x="739" y="273" on="0"/>
        <pt x="768" y="273" on="1"/>
        <pt x="796" y="273" on="0"/>
        <pt x="798" y="271" on="1"/>
        <pt x="799" y="270" on="0"/>
        <pt x="801" y="259" on="1"/>
        <pt x="814" y="189" on="0"/>
        <pt x="800" y="115" on="1"/>
        <pt x="798" y="102" on="0"/>
        <pt x="800" y="90" on="1"/>
        <pt x="807" y="59" on="0"/>
        <pt x="804" y="-59" on="0"/>
        <pt x="797" y="-66" on="1"/>
        <pt x="795" y="-68" on="0"/>
        <pt x="710" y="-68" on="1"/>
        <pt x="625" y="-67" on="1"/>
        <pt x="623" y="-59" on="1"/>
        <pt x="616" y="-34" on="0"/>
        <pt x="616" y="74" on="0"/>
        <pt x="623" y="94" on="1"/>
        <pt x="625" y="102" on="0"/>
        <pt x="623" y="112" on="1"/>
        <pt x="616" y="139" on="0"/>
        <pt x="616" y="244" on="0"/>
        <pt x="623" y="265" on="1"/>
        <pt x="625" y="273" on="1"/>
        <pt x="455" y="273" on="1"/>
        <pt x="435" y="273" on="0"/>
        <pt x="397" y="273" on="0"/>
        <pt x="364" y="273" on="0"/>
        <pt x="334" y="272" on="0"/>
        <pt x="311" y="272" on="0"/>
        <pt x="294" y="272" on="0"/>
        <pt x="290" y="272" on="1"/>
        <pt x="286" y="271" on="1"/>
        <pt x="293" y="260" on="0"/>
        <pt x="294" y="144" on="0"/>
        <pt x="288" y="115" on="1"/>
        <pt x="286" y="102" on="0"/>
        <pt x="288" y="90" on="1"/>
        <pt x="295" y="59" on="0"/>
        <pt x="292" y="-59" on="0"/>
        <pt x="285" y="-66" on="1"/>
        <pt x="283" y="-68" on="0"/>
        <pt x="198" y="-68" on="1"/>
        <pt x="113" y="-67" on="1"/>
        <pt x="111" y="-59" on="1"/>
        <pt x="104" y="-34" on="0"/>
        <pt x="104" y="74" on="0"/>
        <pt x="111" y="94" on="1"/>
        <pt x="113" y="102" on="0"/>
        <pt x="111" y="112" on="1"/>
        <pt x="98" y="159" on="0"/>
        <pt x="106" y="234" on="1"/>
        <pt x="109" y="264" on="0"/>
        <pt x="117" y="273" on="0"/>
        <pt x="142" y="273" on="1"/>
        <pt x="170" y="273" on="1"/>
        <pt x="168" y="282" on="1"/>
        <pt x="161" y="309" on="0"/>
        <pt x="161" y="415" on="0"/>
        <pt x="168" y="436" on="1"/>
        <pt x="170" y="444" on="0"/>
        <pt x="168" y="453" on="1"/>
        <pt x="155" y="500" on="0"/>
        <pt x="163" y="576" on="1"/>
        <pt x="166" y="606" on="0"/>
        <pt x="174" y="614" on="0"/>
        <pt x="199" y="614" on="1"/>
        <pt x="227" y="614" on="1"/>
        <pt x="225" y="624" on="1"/>
        <pt x="212" y="671" on="0"/>
        <pt x="220" y="746" on="1"/>
        <pt x="223" y="776" on="0"/>
        <pt x="231" y="785" on="0"/>
        <pt x="256" y="785" on="1"/>
        <pt x="284" y="785" on="1"/>
        <pt x="281" y="794" on="1"/>
        <pt x="269" y="838" on="0"/>
        <pt x="277" y="917" on="1"/>
        <pt x="280" y="947" on="0"/>
        <pt x="288" y="956" on="0"/>
        <pt x="313" y="956" on="1"/>
        <pt x="341" y="956" on="1"/>
        <pt x="338" y="965" on="1"/>
        <pt x="331" y="992" on="0"/>
        <pt x="332" y="1101" on="0"/>
      </contour>
      <contour>
        <pt x="509" y="777" on="1"/>
        <pt x="512" y="785" on="1"/>
        <pt x="455" y="785" on="1"/>
        <pt x="446" y="785" on="0"/>
        <pt x="429" y="785" on="0"/>
        <pt x="415" y="784" on="0"/>
        <pt x="404" y="784" on="0"/>
        <pt x="402" y="784" on="1"/>
        <pt x="399" y="783" on="1"/>
        <pt x="408" y="767" on="0"/>
        <pt x="408" y="701" on="1"/>
        <pt x="408" y="633" on="0"/>
        <pt x="399" y="617" on="1"/>
        <pt x="396" y="614" on="0"/>
        <pt x="369" y="614" on="1"/>
        <pt x="340" y="614" on="0"/>
        <pt x="342" y="612" on="1"/>
        <pt x="351" y="596" on="0"/>
        <pt x="351" y="530" on="1"/>
        <pt x="351" y="462" on="0"/>
        <pt x="342" y="446" on="1"/>
        <pt x="356" y="446" on="1"/>
        <pt x="371" y="445" on="0"/>
        <pt x="424" y="444" on="0"/>
        <pt x="455" y="444" on="1"/>
        <pt x="568" y="444" on="1"/>
        <pt x="566" y="453" on="1"/>
        <pt x="559" y="480" on="0"/>
        <pt x="559" y="585" on="0"/>
        <pt x="566" y="606" on="1"/>
        <pt x="569" y="614" on="1"/>
        <pt x="540" y="615" on="1"/>
        <pt x="511" y="616" on="1"/>
        <pt x="509" y="624" on="1"/>
        <pt x="502" y="650" on="0"/>
        <pt x="502" y="756" on="0"/>
      </contour>
      <contour>
        <pt x="282" y="1632" on="1"/>
        <pt x="284" y="1638" on="1"/>
        <pt x="455" y="1638" on="1"/>
        <pt x="625" y="1638" on="0"/>
        <pt x="627" y="1636" on="1"/>
        <pt x="632" y="1627" on="0"/>
        <pt x="637" y="1528" on="0"/>
        <pt x="633" y="1503" on="1"/>
        <pt x="632" y="1501" on="0"/>
        <pt x="630" y="1486" on="0"/>
        <pt x="630" y="1484" on="1"/>
        <pt x="628" y="1471" on="0"/>
        <pt x="627" y="1470" on="1"/>
        <pt x="625" y="1468" on="0"/>
        <pt x="654" y="1468" on="1"/>
        <pt x="681" y="1468" on="0"/>
        <pt x="684" y="1465" on="1"/>
        <pt x="689" y="1456" on="0"/>
        <pt x="694" y="1357" on="0"/>
        <pt x="690" y="1332" on="1"/>
        <pt x="689" y="1329" on="0"/>
        <pt x="687" y="1315" on="0"/>
        <pt x="687" y="1313" on="1"/>
        <pt x="685" y="1301" on="0"/>
        <pt x="683" y="1299" on="1"/>
        <pt x="682" y="1298" on="0"/>
        <pt x="624" y="1298" on="1"/>
        <pt x="568" y="1298" on="1"/>
        <pt x="566" y="1306" on="1"/>
        <pt x="559" y="1332" on="0"/>
        <pt x="559" y="1440" on="0"/>
        <pt x="566" y="1460" on="1"/>
        <pt x="569" y="1468" on="1"/>
        <pt x="455" y="1468" on="1"/>
        <pt x="426" y="1468" on="0"/>
        <pt x="371" y="1467" on="0"/>
        <pt x="341" y="1466" on="0"/>
        <pt x="342" y="1465" on="1"/>
        <pt x="350" y="1452" on="0"/>
        <pt x="350" y="1307" on="0"/>
        <pt x="342" y="1299" on="1"/>
        <pt x="341" y="1298" on="0"/>
        <pt x="283" y="1298" on="1"/>
        <pt x="226" y="1298" on="1"/>
        <pt x="224" y="1306" on="1"/>
        <pt x="212" y="1349" on="0"/>
        <pt x="220" y="1429" on="1"/>
        <pt x="223" y="1459" on="0"/>
        <pt x="231" y="1468" on="0"/>
        <pt x="256" y="1468" on="1"/>
        <pt x="284" y="1468" on="1"/>
        <pt x="281" y="1477" on="1"/>
        <pt x="274" y="1504" on="0"/>
        <pt x="275" y="1613" on="0"/>
      </contour>
    </TTGlyph>
    <TTGlyph name="Adieresis" xMin="98" yMin="-68" xMax="814" yMax="1468">
      <contour>
        <pt x="339" y="1120" on="1"/>
        <pt x="341" y="1126" on="1"/>
        <pt x="455" y="1126" on="1"/>
        <pt x="568" y="1126" on="0"/>
        <pt x="570" y="1124" on="1"/>
        <pt x="576" y="1114" on="0"/>
        <pt x="580" y="1016" on="0"/>
        <pt x="576" y="988" on="1"/>
        <pt x="571" y="960" on="0"/>
        <pt x="570" y="958" on="1"/>
        <pt x="568" y="956" on="0"/>
        <pt x="597" y="956" on="1"/>
        <pt x="624" y="956" on="0"/>
        <pt x="627" y="953" on="1"/>
        <pt x="633" y="943" on="0"/>
        <pt x="637" y="846" on="0"/>
        <pt x="633" y="818" on="1"/>
        <pt x="628" y="789" on="0"/>
        <pt x="627" y="787" on="1"/>
        <pt x="625" y="785" on="0"/>
        <pt x="654" y="785" on="1"/>
        <pt x="682" y="785" on="0"/>
        <pt x="684" y="783" on="1"/>
        <pt x="690" y="773" on="0"/>
        <pt x="694" y="675" on="0"/>
        <pt x="690" y="647" on="1"/>
        <pt x="685" y="619" on="0"/>
        <pt x="684" y="617" on="1"/>
        <pt x="708" y="614" on="1"/>
        <pt x="711" y="614" on="1"/>
        <pt x="739" y="614" on="0"/>
        <pt x="741" y="612" on="1"/>
        <pt x="742" y="611" on="0"/>
        <pt x="744" y="600" on="1"/>
        <pt x="757" y="531" on="0"/>
        <pt x="743" y="457" on="1"/>
        <pt x="741" y="443" on="0"/>
        <pt x="743" y="431" on="1"/>
        <pt x="750" y="401" on="0"/>
        <pt x="748" y="286" on="0"/>
        <pt x="741" y="275" on="1"/>
        <pt x="739" y="273" on="0"/>
        <pt x="768" y="273" on="1"/>
        <pt x="796" y="273" on="0"/>
        <pt x="798" y="271" on="1"/>
        <pt x="799" y="270" on="0"/>
        <pt x="801" y="259" on="1"/>
        <pt x="814" y="189" on="0"/>
        <pt x="800" y="115" on="1"/>
        <pt x="798" y="102" on="0"/>
        <pt x="800" y="90" on="1"/>
        <pt x="807" y="59" on="0"/>
        <pt x="804" y="-59" on="0"/>
        <pt x="797" y="-66" on="1"/>
        <pt x="795" y="-68" on="0"/>
        <pt x="710" y="-68" on="1"/>
        <pt x="625" y="-67" on="1"/>
        <pt x="623" y="-59" on="1"/>
        <pt x="616" y="-34" on="0"/>
        <pt x="616" y="74" on="0"/>
        <pt x="623" y="94" on="1"/>
        <pt x="625" y="102" on="0"/>
        <pt x="623" y="112" on="1"/>
        <pt x="616" y="139" on="0"/>
        <pt x="616" y="244" on="0"/>
        <pt x="623" y="265" on="1"/>
        <pt x="625" y="273" on="1"/>
        <pt x="455" y="273" on="1"/>
        <pt x="435" y="273" on="0"/>
        <pt x="397" y="273" on="0"/>
        <pt x="364" y="273" on="0"/>
        <pt x="334" y="272" on="0"/>
        <pt x="311" y="272" on="0"/>
        <pt x="294" y="272" on="0"/>
        <pt x="290" y="272" on="1"/>
        <pt x="286" y="271" on="1"/>
        <pt x="293" y="260" on="0"/>
        <pt x="294" y="144" on="0"/>
        <pt x="288" y="115" on="1"/>
        <pt x="286" y="102" on="0"/>
        <pt x="288" y="90" on="1"/>
        <pt x="295" y="59" on="0"/>
        <pt x="292" y="-59" on="0"/>
        <pt x="285" y="-66" on="1"/>
        <pt x="283" y="-68" on="0"/>
        <pt x="198" y="-68" on="1"/>
        <pt x="113" y="-67" on="1"/>
        <pt x="111" y="-59" on="1"/>
        <pt x="104" y="-34" on="0"/>
        <pt x="104" y="74" on="0"/>
        <pt x="111" y="94" on="1"/>
        <pt x="113" y="102" on="0"/>
        <pt x="111" y="112" on="1"/>
        <pt x="98" y="159" on="0"/>
        <pt x="106" y="234" on="1"/>
        <pt x="109" y="264" on="0"/>
        <pt x="117" y="273" on="0"/>
        <pt x="142" y="273" on="1"/>
        <pt x="170" y="273" on="1"/>
        <pt x="168" y="282" on="1"/>
        <pt x="161" y="309" on="0"/>
        <pt x="161" y="415" on="0"/>
        <pt x="168" y="436" on="1"/>
        <pt x="170" y="444" on="0"/>
        <pt x="168" y="453" on="1"/>
        <pt x="155" y="500" on="0"/>
        <pt x="163" y="576" on="1"/>
        <pt x="166" y="606" on="0"/>
        <pt x="174" y="614" on="0"/>
        <pt x="199" y="614" on="1"/>
        <pt x="227" y="614" on="1"/>
        <pt x="225" y="624" on="1"/>
        <pt x="212" y="671" on="0"/>
        <pt x="220" y="746" on="1"/>
        <pt x="223" y="776" on="0"/>
        <pt x="231" y="785" on="0"/>
        <pt x="256" y="785" on="1"/>
        <pt x="284" y="785" on="1"/>
        <pt x="281" y="794" on="1"/>
        <pt x="269" y="838" on="0"/>
        <pt x="277" y="917" on="1"/>
        <pt x="280" y="947" on="0"/>
        <pt x="288" y="956" on="0"/>
        <pt x="313" y="956" on="1"/>
        <pt x="341" y="956" on="1"/>
        <pt x="338" y="965" on="1"/>
        <pt x="331" y="992" on="0"/>
        <pt x="332" y="1101" on="0"/>
      </contour>
      <contour>
        <pt x="509" y="777" on="1"/>
        <pt x="512" y="785" on="1"/>
        <pt x="455" y="785" on="1"/>
        <pt x="446" y="785" on="0"/>
        <pt x="429" y="785" on="0"/>
        <pt x="415" y="784" on="0"/>
        <pt x="404" y="784" on="0"/>
        <pt x="402" y="784" on="1"/>
        <pt x="399" y="783" on="1"/>
        <pt x="408" y="767" on="0"/>
        <pt x="408" y="701" on="1"/>
        <pt x="408" y="633" on="0"/>
        <pt x="399" y="617" on="1"/>
        <pt x="396" y="614" on="0"/>
        <pt x="369" y="614" on="1"/>
        <pt x="340" y="614" on="0"/>
        <pt x="342" y="612" on="1"/>
        <pt x="351" y="596" on="0"/>
        <pt x="351" y="530" on="1"/>
        <pt x="351" y="462" on="0"/>
        <pt x="342" y="446" on="1"/>
        <pt x="356" y="446" on="1"/>
        <pt x="371" y="445" on="0"/>
        <pt x="424" y="444" on="0"/>
        <pt x="455" y="444" on="1"/>
        <pt x="568" y="444" on="1"/>
        <pt x="566" y="453" on="1"/>
        <pt x="559" y="480" on="0"/>
        <pt x="559" y="585" on="0"/>
        <pt x="566" y="606" on="1"/>
        <pt x="569" y="614" on="1"/>
        <pt x="540" y="615" on="1"/>
        <pt x="511" y="616" on="1"/>
        <pt x="509" y="624" on="1"/>
        <pt x="502" y="650" on="0"/>
        <pt x="502" y="756" on="0"/>
      </contour>
      <contour>
        <pt x="566" y="1461" on="1"/>
        <pt x="569" y="1468" on="1"/>
        <pt x="654" y="1468" on="1"/>
        <pt x="738" y="1468" on="0"/>
        <pt x="741" y="1465" on="1"/>
        <pt x="746" y="1456" on="0"/>
        <pt x="751" y="1357" on="0"/>
        <pt x="747" y="1332" on="1"/>
        <pt x="746" y="1329" on="0"/>
        <pt x="744" y="1315" on="0"/>
        <pt x="744" y="1313" on="1"/>
        <pt x="742" y="1301" on="0"/>
        <pt x="740" y="1299" on="1"/>
        <pt x="739" y="1298" on="0"/>
        <pt x="653" y="1298" on="1"/>
        <pt x="568" y="1298" on="1"/>
        <pt x="566" y="1306" on="1"/>
        <pt x="559" y="1332" on="0"/>
        <pt x="559" y="1443" on="0"/>
      </contour>
      <contour>
        <pt x="168" y="1461" on="1"/>
        <pt x="171" y="1468" on="1"/>
        <pt x="256" y="1468" on="1"/>
        <pt x="339" y="1468" on="0"/>
        <pt x="342" y="1465" on="1"/>
        <pt x="347" y="1456" on="0"/>
        <pt x="353" y="1357" on="0"/>
        <pt x="349" y="1332" on="1"/>
        <pt x="348" y="1329" on="0"/>
        <pt x="346" y="1315" on="0"/>
        <pt x="346" y="1313" on="1"/>
        <pt x="344" y="1301" on="0"/>
        <pt x="342" y="1299" on="1"/>
        <pt x="341" y="1298" on="0"/>
        <pt x="255" y="1298" on="1"/>
        <pt x="170" y="1298" on="1"/>
        <pt x="167" y="1306" on="1"/>
        <pt x="160" y="1332" on="0"/>
        <pt x="161" y="1443" on="0"/>
      </contour>
    </TTGlyph>
    <TTGlyph name="Agrave" xMin="98" yMin="-68" xMax="814" yMax="1638">
      <contour>
        <pt x="339" y="1120" on="1"/>
        <pt x="341" y="1126" on="1"/>
        <pt x="455" y="1126" on="1"/>
        <pt x="568" y="1126" on="0"/>
        <pt x="570" y="1124" on="1"/>
        <pt x="576" y="1114" on="0"/>
        <pt x="580" y="1016" on="0"/>
        <pt x="576" y="988" on="1"/>
        <pt x="571" y="960" on="0"/>
        <pt x="570" y="958" on="1"/>
        <pt x="568" y="956" on="0"/>
        <pt x="597" y="956" on="1"/>
        <pt x="624" y="956" on="0"/>
        <pt x="627" y="953" on="1"/>
        <pt x="633" y="943" on="0"/>
        <pt x="637" y="846" on="0"/>
        <pt x="633" y="818" on="1"/>
        <pt x="628" y="789" on="0"/>
        <pt x="627" y="787" on="1"/>
        <pt x="625" y="785" on="0"/>
        <pt x="654" y="785" on="1"/>
        <pt x="682" y="785" on="0"/>
        <pt x="684" y="783" on="1"/>
        <pt x="690" y="773" on="0"/>
        <pt x="694" y="675" on="0"/>
        <pt x="690" y="647" on="1"/>
        <pt x="685" y="619" on="0"/>
        <pt x="684" y="617" on="1"/>
        <pt x="708" y="614" on="1"/>
        <pt x="711" y="614" on="1"/>
        <pt x="739" y="614" on="0"/>
        <pt x="741" y="612" on="1"/>
        <pt x="742" y="611" on="0"/>
        <pt x="744" y="600" on="1"/>
        <pt x="757" y="531" on="0"/>
        <pt x="743" y="457" on="1"/>
        <pt x="741" y="443" on="0"/>
        <pt x="743" y="431" on="1"/>
        <pt x="750" y="401" on="0"/>
        <pt x="748" y="286" on="0"/>
        <pt x="741" y="275" on="1"/>
        <pt x="739" y="273" on="0"/>
        <pt x="768" y="273" on="1"/>
        <pt x="796" y="273" on="0"/>
        <pt x="798" y="271" on="1"/>
        <pt x="799" y="270" on="0"/>
        <pt x="801" y="259" on="1"/>
        <pt x="814" y="189" on="0"/>
        <pt x="800" y="115" on="1"/>
        <pt x="798" y="102" on="0"/>
        <pt x="800" y="90" on="1"/>
        <pt x="807" y="59" on="0"/>
        <pt x="804" y="-59" on="0"/>
        <pt x="797" y="-66" on="1"/>
        <pt x="795" y="-68" on="0"/>
        <pt x="710" y="-68" on="1"/>
        <pt x="625" y="-67" on="1"/>
        <pt x="623" y="-59" on="1"/>
        <pt x="616" y="-34" on="0"/>
        <pt x="616" y="74" on="0"/>
        <pt x="623" y="94" on="1"/>
        <pt x="625" y="102" on="0"/>
        <pt x="623" y="112" on="1"/>
        <pt x="616" y="139" on="0"/>
        <pt x="616" y="244" on="0"/>
        <pt x="623" y="265" on="1"/>
        <pt x="625" y="273" on="1"/>
        <pt x="455" y="273" on="1"/>
        <pt x="435" y="273" on="0"/>
        <pt x="397" y="273" on="0"/>
        <pt x="364" y="273" on="0"/>
        <pt x="334" y="272" on="0"/>
        <pt x="311" y="272" on="0"/>
        <pt x="294" y="272" on="0"/>
        <pt x="290" y="272" on="1"/>
        <pt x="286" y="271" on="1"/>
        <pt x="293" y="260" on="0"/>
        <pt x="294" y="144" on="0"/>
        <pt x="288" y="115" on="1"/>
        <pt x="286" y="102" on="0"/>
        <pt x="288" y="90" on="1"/>
        <pt x="295" y="59" on="0"/>
        <pt x="292" y="-59" on="0"/>
        <pt x="285" y="-66" on="1"/>
        <pt x="283" y="-68" on="0"/>
        <pt x="198" y="-68" on="1"/>
        <pt x="113" y="-67" on="1"/>
        <pt x="111" y="-59" on="1"/>
        <pt x="104" y="-34" on="0"/>
        <pt x="104" y="74" on="0"/>
        <pt x="111" y="94" on="1"/>
        <pt x="113" y="102" on="0"/>
        <pt x="111" y="112" on="1"/>
        <pt x="98" y="159" on="0"/>
        <pt x="106" y="234" on="1"/>
        <pt x="109" y="264" on="0"/>
        <pt x="117" y="273" on="0"/>
        <pt x="142" y="273" on="1"/>
        <pt x="170" y="273" on="1"/>
        <pt x="168" y="282" on="1"/>
        <pt x="161" y="309" on="0"/>
        <pt x="161" y="415" on="0"/>
        <pt x="168" y="436" on="1"/>
        <pt x="170" y="444" on="0"/>
        <pt x="168" y="453" on="1"/>
        <pt x="155" y="500" on="0"/>
        <pt x="163" y="576" on="1"/>
        <pt x="166" y="606" on="0"/>
        <pt x="174" y="614" on="0"/>
        <pt x="199" y="614" on="1"/>
        <pt x="227" y="614" on="1"/>
        <pt x="225" y="624" on="1"/>
        <pt x="212" y="671" on="0"/>
        <pt x="220" y="746" on="1"/>
        <pt x="223" y="776" on="0"/>
        <pt x="231" y="785" on="0"/>
        <pt x="256" y="785" on="1"/>
        <pt x="284" y="785" on="1"/>
        <pt x="281" y="794" on="1"/>
        <pt x="269" y="838" on="0"/>
        <pt x="277" y="917" on="1"/>
        <pt x="280" y="947" on="0"/>
        <pt x="288" y="956" on="0"/>
        <pt x="313" y="956" on="1"/>
        <pt x="341" y="956" on="1"/>
        <pt x="338" y="965" on="1"/>
        <pt x="331" y="992" on="0"/>
        <pt x="332" y="1101" on="0"/>
      </contour>
      <contour>
        <pt x="509" y="777" on="1"/>
        <pt x="512" y="785" on="1"/>
        <pt x="455" y="785" on="1"/>
        <pt x="446" y="785" on="0"/>
        <pt x="429" y="785" on="0"/>
        <pt x="415" y="784" on="0"/>
        <pt x="404" y="784" on="0"/>
        <pt x="402" y="784" on="1"/>
        <pt x="399" y="783" on="1"/>
        <pt x="408" y="767" on="0"/>
        <pt x="408" y="701" on="1"/>
        <pt x="408" y="633" on="0"/>
        <pt x="399" y="617" on="1"/>
        <pt x="396" y="614" on="0"/>
        <pt x="369" y="614" on="1"/>
        <pt x="340" y="614" on="0"/>
        <pt x="342" y="612" on="1"/>
        <pt x="351" y="596" on="0"/>
        <pt x="351" y="530" on="1"/>
        <pt x="351" y="462" on="0"/>
        <pt x="342" y="446" on="1"/>
        <pt x="356" y="446" on="1"/>
        <pt x="371" y="445" on="0"/>
        <pt x="424" y="444" on="0"/>
        <pt x="455" y="444" on="1"/>
        <pt x="568" y="444" on="1"/>
        <pt x="566" y="453" on="1"/>
        <pt x="559" y="480" on="0"/>
        <pt x="559" y="585" on="0"/>
        <pt x="566" y="606" on="1"/>
        <pt x="569" y="614" on="1"/>
        <pt x="540" y="615" on="1"/>
        <pt x="511" y="616" on="1"/>
        <pt x="509" y="624" on="1"/>
        <pt x="502" y="650" on="0"/>
        <pt x="502" y="756" on="0"/>
      </contour>
      <contour>
        <pt x="282" y="1632" on="1"/>
        <pt x="284" y="1638" on="1"/>
        <pt x="370" y="1638" on="1"/>
        <pt x="454" y="1638" on="0"/>
        <pt x="456" y="1636" on="1"/>
        <pt x="461" y="1627" on="0"/>
        <pt x="466" y="1528" on="0"/>
        <pt x="462" y="1503" on="1"/>
        <pt x="461" y="1501" on="0"/>
        <pt x="460" y="1487" on="0"/>
        <pt x="460" y="1484" on="1"/>
        <pt x="458" y="1472" on="0"/>
        <pt x="456" y="1470" on="1"/>
        <pt x="463" y="1470" on="1"/>
        <pt x="470" y="1469" on="0"/>
        <pt x="496" y="1468" on="0"/>
        <pt x="512" y="1468" on="1"/>
        <pt x="567" y="1468" on="0"/>
        <pt x="570" y="1465" on="1"/>
        <pt x="575" y="1456" on="0"/>
        <pt x="580" y="1357" on="0"/>
        <pt x="576" y="1332" on="1"/>
        <pt x="575" y="1329" on="0"/>
        <pt x="573" y="1315" on="0"/>
        <pt x="573" y="1313" on="1"/>
        <pt x="571" y="1301" on="0"/>
        <pt x="569" y="1299" on="1"/>
        <pt x="568" y="1298" on="0"/>
        <pt x="482" y="1298" on="1"/>
        <pt x="397" y="1298" on="1"/>
        <pt x="395" y="1306" on="1"/>
        <pt x="388" y="1332" on="0"/>
        <pt x="388" y="1440" on="0"/>
        <pt x="395" y="1460" on="1"/>
        <pt x="398" y="1468" on="1"/>
        <pt x="341" y="1468" on="1"/>
        <pt x="283" y="1469" on="1"/>
        <pt x="281" y="1477" on="1"/>
        <pt x="274" y="1503" on="0"/>
        <pt x="275" y="1614" on="0"/>
      </contour>
    </TTGlyph>
    <TTGlyph name="Aring" xMin="98" yMin="-68" xMax="814" yMax="1638">
      <contour>
        <pt x="339" y="1632" on="1"/>
        <pt x="341" y="1638" on="1"/>
        <pt x="455" y="1638" on="1"/>
        <pt x="568" y="1638" on="0"/>
        <pt x="570" y="1636" on="1"/>
        <pt x="576" y="1626" on="0"/>
        <pt x="580" y="1528" on="0"/>
        <pt x="576" y="1500" on="1"/>
        <pt x="571" y="1472" on="0"/>
        <pt x="570" y="1470" on="1"/>
        <pt x="568" y="1468" on="0"/>
        <pt x="597" y="1468" on="1"/>
        <pt x="624" y="1468" on="0"/>
        <pt x="627" y="1465" on="1"/>
        <pt x="633" y="1455" on="0"/>
        <pt x="637" y="1358" on="0"/>
        <pt x="633" y="1330" on="1"/>
        <pt x="628" y="1301" on="0"/>
        <pt x="627" y="1299" on="1"/>
        <pt x="625" y="1297" on="0"/>
        <pt x="597" y="1297" on="1"/>
        <pt x="568" y="1297" on="0"/>
        <pt x="570" y="1295" on="1"/>
        <pt x="577" y="1284" on="0"/>
        <pt x="579" y="1168" on="0"/>
        <pt x="573" y="1139" on="1"/>
        <pt x="571" y="1126" on="0"/>
        <pt x="573" y="1114" on="1"/>
        <pt x="580" y="1084" on="0"/>
        <pt x="578" y="969" on="0"/>
        <pt x="570" y="958" on="1"/>
        <pt x="568" y="956" on="0"/>
        <pt x="597" y="956" on="1"/>
        <pt x="624" y="956" on="0"/>
        <pt x="627" y="953" on="1"/>
        <pt x="633" y="943" on="0"/>
        <pt x="637" y="847" on="0"/>
        <pt x="633" y="818" on="1"/>
        <pt x="629" y="790" on="0"/>
        <pt x="627" y="787" on="1"/>
        <pt x="625" y="785" on="0"/>
        <pt x="654" y="785" on="1"/>
        <pt x="682" y="785" on="0"/>
        <pt x="684" y="783" on="1"/>
        <pt x="690" y="774" on="0"/>
        <pt x="695" y="672" on="0"/>
        <pt x="690" y="649" on="1"/>
        <pt x="689" y="647" on="0"/>
        <pt x="687" y="632" on="0"/>
        <pt x="687" y="630" on="1"/>
        <pt x="685" y="618" on="0"/>
        <pt x="684" y="617" on="1"/>
        <pt x="708" y="614" on="1"/>
        <pt x="711" y="614" on="1"/>
        <pt x="739" y="614" on="0"/>
        <pt x="741" y="612" on="1"/>
        <pt x="742" y="611" on="0"/>
        <pt x="744" y="600" on="1"/>
        <pt x="757" y="531" on="0"/>
        <pt x="743" y="457" on="1"/>
        <pt x="741" y="443" on="0"/>
        <pt x="743" y="431" on="1"/>
        <pt x="750" y="401" on="0"/>
        <pt x="748" y="286" on="0"/>
        <pt x="741" y="275" on="1"/>
        <pt x="739" y="273" on="0"/>
        <pt x="768" y="273" on="1"/>
        <pt x="796" y="273" on="0"/>
        <pt x="798" y="271" on="1"/>
        <pt x="799" y="270" on="0"/>
        <pt x="801" y="259" on="1"/>
        <pt x="814" y="189" on="0"/>
        <pt x="800" y="115" on="1"/>
        <pt x="798" y="102" on="0"/>
        <pt x="800" y="90" on="1"/>
        <pt x="807" y="59" on="0"/>
        <pt x="804" y="-59" on="0"/>
        <pt x="797" y="-66" on="1"/>
        <pt x="795" y="-68" on="0"/>
        <pt x="710" y="-68" on="1"/>
        <pt x="625" y="-67" on="1"/>
        <pt x="623" y="-59" on="1"/>
        <pt x="616" y="-34" on="0"/>
        <pt x="616" y="74" on="0"/>
        <pt x="623" y="94" on="1"/>
        <pt x="625" y="102" on="0"/>
        <pt x="623" y="112" on="1"/>
        <pt x="616" y="139" on="0"/>
        <pt x="616" y="244" on="0"/>
        <pt x="623" y="265" on="1"/>
        <pt x="625" y="273" on="1"/>
        <pt x="455" y="273" on="1"/>
        <pt x="435" y="273" on="0"/>
        <pt x="397" y="273" on="0"/>
        <pt x="364" y="273" on="0"/>
        <pt x="334" y="272" on="0"/>
        <pt x="311" y="272" on="0"/>
        <pt x="294" y="272" on="0"/>
        <pt x="290" y="272" on="1"/>
        <pt x="286" y="271" on="1"/>
        <pt x="293" y="260" on="0"/>
        <pt x="294" y="144" on="0"/>
        <pt x="288" y="115" on="1"/>
        <pt x="286" y="102" on="0"/>
        <pt x="288" y="90" on="1"/>
        <pt x="295" y="59" on="0"/>
        <pt x="292" y="-59" on="0"/>
        <pt x="285" y="-66" on="1"/>
        <pt x="283" y="-68" on="0"/>
        <pt x="198" y="-68" on="1"/>
        <pt x="113" y="-67" on="1"/>
        <pt x="111" y="-59" on="1"/>
        <pt x="104" y="-34" on="0"/>
        <pt x="104" y="74" on="0"/>
        <pt x="111" y="94" on="1"/>
        <pt x="113" y="102" on="0"/>
        <pt x="111" y="112" on="1"/>
        <pt x="98" y="159" on="0"/>
        <pt x="106" y="234" on="1"/>
        <pt x="109" y="264" on="0"/>
        <pt x="117" y="273" on="0"/>
        <pt x="142" y="273" on="1"/>
        <pt x="170" y="273" on="1"/>
        <pt x="168" y="282" on="1"/>
        <pt x="161" y="309" on="0"/>
        <pt x="161" y="415" on="0"/>
        <pt x="168" y="436" on="1"/>
        <pt x="170" y="444" on="0"/>
        <pt x="168" y="453" on="1"/>
        <pt x="155" y="500" on="0"/>
        <pt x="163" y="576" on="1"/>
        <pt x="166" y="606" on="0"/>
        <pt x="174" y="614" on="0"/>
        <pt x="199" y="614" on="1"/>
        <pt x="227" y="614" on="1"/>
        <pt x="225" y="624" on="1"/>
        <pt x="212" y="671" on="0"/>
        <pt x="220" y="746" on="1"/>
        <pt x="223" y="776" on="0"/>
        <pt x="231" y="785" on="0"/>
        <pt x="256" y="785" on="1"/>
        <pt x="284" y="785" on="1"/>
        <pt x="281" y="794" on="1"/>
        <pt x="269" y="838" on="0"/>
        <pt x="277" y="917" on="1"/>
        <pt x="280" y="947" on="0"/>
        <pt x="288" y="956" on="0"/>
        <pt x="313" y="956" on="1"/>
        <pt x="341" y="956" on="1"/>
        <pt x="338" y="965" on="1"/>
        <pt x="331" y="992" on="0"/>
        <pt x="331" y="1097" on="0"/>
        <pt x="338" y="1118" on="1"/>
        <pt x="341" y="1128" on="0"/>
        <pt x="339" y="1136" on="1"/>
        <pt x="332" y="1163" on="0"/>
        <pt x="331" y="1268" on="0"/>
        <pt x="338" y="1289" on="1"/>
        <pt x="341" y="1297" on="1"/>
        <pt x="312" y="1298" on="1"/>
        <pt x="283" y="1298" on="1"/>
        <pt x="281" y="1306" on="1"/>
        <pt x="269" y="1349" on="0"/>
        <pt x="277" y="1429" on="1"/>
        <pt x="280" y="1459" on="0"/>
        <pt x="288" y="1468" on="0"/>
        <pt x="313" y="1468" on="1"/>
        <pt x="341" y="1468" on="1"/>
        <pt x="338" y="1477" on="1"/>
        <pt x="331" y="1504" on="0"/>
        <pt x="332" y="1613" on="0"/>
      </contour>
      <contour>
        <pt x="509" y="1460" on="1"/>
        <pt x="512" y="1468" on="1"/>
        <pt x="455" y="1468" on="1"/>
        <pt x="446" y="1468" on="0"/>
        <pt x="428" y="1468" on="0"/>
        <pt x="415" y="1467" on="0"/>
        <pt x="404" y="1466" on="0"/>
        <pt x="402" y="1466" on="1"/>
        <pt x="399" y="1465" on="1"/>
        <pt x="408" y="1449" on="0"/>
        <pt x="408" y="1384" on="1"/>
        <pt x="408" y="1315" on="0"/>
        <pt x="399" y="1299" on="1"/>
        <pt x="406" y="1298" on="1"/>
        <pt x="413" y="1298" on="0"/>
        <pt x="440" y="1297" on="0"/>
        <pt x="455" y="1297" on="1"/>
        <pt x="511" y="1297" on="1"/>
        <pt x="509" y="1306" on="1"/>
        <pt x="502" y="1333" on="0"/>
        <pt x="502" y="1439" on="0"/>
      </contour>
      <contour>
        <pt x="509" y="777" on="1"/>
        <pt x="512" y="785" on="1"/>
        <pt x="455" y="785" on="1"/>
        <pt x="446" y="785" on="0"/>
        <pt x="429" y="785" on="0"/>
        <pt x="415" y="784" on="0"/>
        <pt x="404" y="784" on="0"/>
        <pt x="402" y="784" on="1"/>
        <pt x="399" y="783" on="1"/>
        <pt x="408" y="767" on="0"/>
        <pt x="408" y="701" on="1"/>
        <pt x="408" y="633" on="0"/>
        <pt x="399" y="617" on="1"/>
        <pt x="396" y="614" on="0"/>
        <pt x="369" y="614" on="1"/>
        <pt x="340" y="614" on="0"/>
        <pt x="342" y="612" on="1"/>
        <pt x="351" y="596" on="0"/>
        <pt x="351" y="530" on="1"/>
        <pt x="351" y="462" on="0"/>
        <pt x="342" y="446" on="1"/>
        <pt x="356" y="446" on="1"/>
        <pt x="371" y="445" on="0"/>
        <pt x="424" y="444" on="0"/>
        <pt x="455" y="444" on="1"/>
        <pt x="568" y="444" on="1"/>
        <pt x="566" y="453" on="1"/>
        <pt x="559" y="480" on="0"/>
        <pt x="559" y="585" on="0"/>
        <pt x="566" y="606" on="1"/>
        <pt x="569" y="614" on="1"/>
        <pt x="540" y="615" on="1"/>
        <pt x="511" y="616" on="1"/>
        <pt x="509" y="624" on="1"/>
        <pt x="502" y="650" on="0"/>
        <pt x="502" y="756" on="0"/>
      </contour>
    </TTGlyph>
    <TTGlyph name="Atilde" xMin="98" yMin="-68" xMax="814" yMax="1638">
      <contour>
        <pt x="339" y="1120" on="1"/>
        <pt x="341" y="1126" on="1"/>
        <pt x="455" y="1126" on="1"/>
        <pt x="568" y="1126" on="0"/>
        <pt x="570" y="1124" on="1"/>
        <pt x="576" y="1114" on="0"/>
        <pt x="580" y="1016" on="0"/>
        <pt x="576" y="988" on="1"/>
        <pt x="571" y="960" on="0"/>
        <pt x="570" y="958" on="1"/>
        <pt x="568" y="956" on="0"/>
        <pt x="597" y="956" on="1"/>
        <pt x="624" y="956" on="0"/>
        <pt x="627" y="953" on="1"/>
        <pt x="633" y="943" on="0"/>
        <pt x="637" y="846" on="0"/>
        <pt x="633" y="818" on="1"/>
        <pt x="628" y="789" on="0"/>
        <pt x="627" y="787" on="1"/>
        <pt x="625" y="785" on="0"/>
        <pt x="654" y="785" on="1"/>
        <pt x="682" y="785" on="0"/>
        <pt x="684" y="783" on="1"/>
        <pt x="690" y="773" on="0"/>
        <pt x="694" y="675" on="0"/>
        <pt x="690" y="647" on="1"/>
        <pt x="685" y="619" on="0"/>
        <pt x="684" y="617" on="1"/>
        <pt x="708" y="614" on="1"/>
        <pt x="711" y="614" on="1"/>
        <pt x="739" y="614" on="0"/>
        <pt x="741" y="612" on="1"/>
        <pt x="742" y="611" on="0"/>
        <pt x="744" y="600" on="1"/>
        <pt x="757" y="531" on="0"/>
        <pt x="743" y="457" on="1"/>
        <pt x="741" y="443" on="0"/>
        <pt x="743" y="431" on="1"/>
        <pt x="750" y="401" on="0"/>
        <pt x="748" y="286" on="0"/>
        <pt x="741" y="275" on="1"/>
        <pt x="739" y="273" on="0"/>
        <pt x="768" y="273" on="1"/>
        <pt x="796" y="273" on="0"/>
        <pt x="798" y="271" on="1"/>
        <pt x="799" y="270" on="0"/>
        <pt x="801" y="259" on="1"/>
        <pt x="814" y="189" on="0"/>
        <pt x="800" y="115" on="1"/>
        <pt x="798" y="102" on="0"/>
        <pt x="800" y="90" on="1"/>
        <pt x="807" y="59" on="0"/>
        <pt x="804" y="-59" on="0"/>
        <pt x="797" y="-66" on="1"/>
        <pt x="795" y="-68" on="0"/>
        <pt x="710" y="-68" on="1"/>
        <pt x="625" y="-67" on="1"/>
        <pt x="623" y="-59" on="1"/>
        <pt x="616" y="-34" on="0"/>
        <pt x="616" y="74" on="0"/>
        <pt x="623" y="94" on="1"/>
        <pt x="625" y="102" on="0"/>
        <pt x="623" y="112" on="1"/>
        <pt x="616" y="139" on="0"/>
        <pt x="616" y="244" on="0"/>
        <pt x="623" y="265" on="1"/>
        <pt x="625" y="273" on="1"/>
        <pt x="455" y="273" on="1"/>
        <pt x="435" y="273" on="0"/>
        <pt x="397" y="273" on="0"/>
        <pt x="364" y="273" on="0"/>
        <pt x="334" y="272" on="0"/>
        <pt x="311" y="272" on="0"/>
        <pt x="294" y="272" on="0"/>
        <pt x="290" y="272" on="1"/>
        <pt x="286" y="271" on="1"/>
        <pt x="293" y="260" on="0"/>
        <pt x="294" y="144" on="0"/>
        <pt x="288" y="115" on="1"/>
        <pt x="286" y="102" on="0"/>
        <pt x="288" y="90" on="1"/>
        <pt x="295" y="59" on="0"/>
        <pt x="292" y="-59" on="0"/>
        <pt x="285" y="-66" on="1"/>
        <pt x="283" y="-68" on="0"/>
        <pt x="198" y="-68" on="1"/>
        <pt x="113" y="-67" on="1"/>
        <pt x="111" y="-59" on="1"/>
        <pt x="104" y="-34" on="0"/>
        <pt x="104" y="74" on="0"/>
        <pt x="111" y="94" on="1"/>
        <pt x="113" y="102" on="0"/>
        <pt x="111" y="112" on="1"/>
        <pt x="98" y="159" on="0"/>
        <pt x="106" y="234" on="1"/>
        <pt x="109" y="264" on="0"/>
        <pt x="117" y="273" on="0"/>
        <pt x="142" y="273" on="1"/>
        <pt x="170" y="273" on="1"/>
        <pt x="168" y="282" on="1"/>
        <pt x="161" y="309" on="0"/>
        <pt x="161" y="415" on="0"/>
        <pt x="168" y="436" on="1"/>
        <pt x="170" y="444" on="0"/>
        <pt x="168" y="453" on="1"/>
        <pt x="155" y="500" on="0"/>
        <pt x="163" y="576" on="1"/>
        <pt x="166" y="606" on="0"/>
        <pt x="174" y="614" on="0"/>
        <pt x="199" y="614" on="1"/>
        <pt x="227" y="614" on="1"/>
        <pt x="225" y="624" on="1"/>
        <pt x="212" y="671" on="0"/>
        <pt x="220" y="746" on="1"/>
        <pt x="223" y="776" on="0"/>
        <pt x="231" y="785" on="0"/>
        <pt x="256" y="785" on="1"/>
        <pt x="284" y="785" on="1"/>
        <pt x="281" y="794" on="1"/>
        <pt x="269" y="838" on="0"/>
        <pt x="277" y="917" on="1"/>
        <pt x="280" y="947" on="0"/>
        <pt x="288" y="956" on="0"/>
        <pt x="313" y="956" on="1"/>
        <pt x="341" y="956" on="1"/>
        <pt x="338" y="965" on="1"/>
        <pt x="331" y="992" on="0"/>
        <pt x="332" y="1101" on="0"/>
      </contour>
      <contour>
        <pt x="509" y="777" on="1"/>
        <pt x="512" y="785" on="1"/>
        <pt x="455" y="785" on="1"/>
        <pt x="446" y="785" on="0"/>
        <pt x="429" y="785" on="0"/>
        <pt x="415" y="784" on="0"/>
        <pt x="404" y="784" on="0"/>
        <pt x="402" y="784" on="1"/>
        <pt x="399" y="783" on="1"/>
        <pt x="408" y="767" on="0"/>
        <pt x="408" y="701" on="1"/>
        <pt x="408" y="633" on="0"/>
        <pt x="399" y="617" on="1"/>
        <pt x="396" y="614" on="0"/>
        <pt x="369" y="614" on="1"/>
        <pt x="340" y="614" on="0"/>
        <pt x="342" y="612" on="1"/>
        <pt x="351" y="596" on="0"/>
        <pt x="351" y="530" on="1"/>
        <pt x="351" y="462" on="0"/>
        <pt x="342" y="446" on="1"/>
        <pt x="356" y="446" on="1"/>
        <pt x="371" y="445" on="0"/>
        <pt x="424" y="444" on="0"/>
        <pt x="455" y="444" on="1"/>
        <pt x="568" y="444" on="1"/>
        <pt x="566" y="453" on="1"/>
        <pt x="559" y="480" on="0"/>
        <pt x="559" y="585" on="0"/>
        <pt x="566" y="606" on="1"/>
        <pt x="569" y="614" on="1"/>
        <pt x="540" y="615" on="1"/>
        <pt x="511" y="616" on="1"/>
        <pt x="509" y="624" on="1"/>
        <pt x="502" y="650" on="0"/>
        <pt x="502" y="756" on="0"/>
      </contour>
      <contour>
        <pt x="168" y="1461" on="1"/>
        <pt x="171" y="1468" on="1"/>
        <pt x="228" y="1468" on="1"/>
        <pt x="284" y="1468" on="1"/>
        <pt x="287" y="1461" on="1"/>
        <pt x="295" y="1441" on="0"/>
        <pt x="293" y="1307" on="0"/>
        <pt x="285" y="1299" on="1"/>
        <pt x="284" y="1298" on="0"/>
        <pt x="226" y="1298" on="1"/>
        <pt x="170" y="1298" on="1"/>
        <pt x="167" y="1306" on="1"/>
        <pt x="160" y="1332" on="0"/>
        <pt x="161" y="1443" on="0"/>
      </contour>
      <contour>
        <pt x="680" y="1632" on="1"/>
        <pt x="683" y="1638" on="1"/>
        <pt x="739" y="1638" on="1"/>
        <pt x="796" y="1638" on="0"/>
        <pt x="798" y="1636" on="1"/>
        <pt x="804" y="1626" on="0"/>
        <pt x="808" y="1528" on="0"/>
        <pt x="804" y="1500" on="1"/>
        <pt x="799" y="1472" on="0"/>
        <pt x="795" y="1468" on="0"/>
        <pt x="738" y="1468" on="1"/>
        <pt x="682" y="1469" on="1"/>
        <pt x="679" y="1477" on="1"/>
        <pt x="672" y="1503" on="0"/>
        <pt x="673" y="1614" on="0"/>
      </contour>
      <contour>
        <pt x="282" y="1632" on="1"/>
        <pt x="284" y="1638" on="1"/>
        <pt x="398" y="1638" on="1"/>
        <pt x="511" y="1638" on="0"/>
        <pt x="513" y="1636" on="1"/>
        <pt x="518" y="1627" on="0"/>
        <pt x="523" y="1528" on="0"/>
        <pt x="519" y="1503" on="1"/>
        <pt x="518" y="1501" on="0"/>
        <pt x="516" y="1486" on="0"/>
        <pt x="516" y="1484" on="1"/>
        <pt x="514" y="1471" on="0"/>
        <pt x="513" y="1470" on="1"/>
        <pt x="524" y="1470" on="1"/>
        <pt x="534" y="1469" on="0"/>
        <pt x="573" y="1468" on="0"/>
        <pt x="597" y="1468" on="1"/>
        <pt x="683" y="1468" on="1"/>
        <pt x="685" y="1461" on="1"/>
        <pt x="693" y="1441" on="0"/>
        <pt x="691" y="1307" on="0"/>
        <pt x="683" y="1299" on="1"/>
        <pt x="682" y="1298" on="0"/>
        <pt x="567" y="1298" on="1"/>
        <pt x="454" y="1298" on="1"/>
        <pt x="452" y="1306" on="1"/>
        <pt x="445" y="1332" on="0"/>
        <pt x="445" y="1440" on="0"/>
        <pt x="452" y="1460" on="1"/>
        <pt x="455" y="1468" on="1"/>
        <pt x="369" y="1468" on="1"/>
        <pt x="283" y="1469" on="1"/>
        <pt x="281" y="1477" on="1"/>
        <pt x="274" y="1503" on="0"/>
        <pt x="275" y="1614" on="0"/>
      </contour>
    </TTGlyph>
    <TTGlyph name="B" xMin="104" yMin="-68" xMax="814" yMax="1126">
      <contour>
        <pt x="111" y="1120" on="1"/>
        <pt x="114" y="1126" on="1"/>
        <pt x="427" y="1126" on="1"/>
        <pt x="739" y="1126" on="0"/>
        <pt x="741" y="1124" on="1"/>
        <pt x="747" y="1114" on="0"/>
        <pt x="751" y="1016" on="0"/>
        <pt x="747" y="988" on="1"/>
        <pt x="742" y="960" on="0"/>
        <pt x="741" y="958" on="1"/>
        <pt x="739" y="956" on="0"/>
        <pt x="768" y="956" on="1"/>
        <pt x="795" y="956" on="0"/>
        <pt x="798" y="953" on="1"/>
        <pt x="799" y="952" on="0"/>
        <pt x="801" y="941" on="1"/>
        <pt x="814" y="872" on="0"/>
        <pt x="800" y="798" on="1"/>
        <pt x="798" y="784" on="0"/>
        <pt x="800" y="772" on="1"/>
        <pt x="807" y="742" on="0"/>
        <pt x="805" y="628" on="0"/>
        <pt x="798" y="617" on="1"/>
        <pt x="795" y="614" on="0"/>
        <pt x="739" y="614" on="1"/>
        <pt x="724" y="614" on="0"/>
        <pt x="698" y="613" on="0"/>
        <pt x="691" y="612" on="1"/>
        <pt x="684" y="612" on="1"/>
        <pt x="692" y="598" on="0"/>
        <pt x="692" y="530" on="1"/>
        <pt x="692" y="460" on="0"/>
        <pt x="684" y="446" on="1"/>
        <pt x="691" y="446" on="1"/>
        <pt x="698" y="445" on="0"/>
        <pt x="724" y="444" on="0"/>
        <pt x="739" y="444" on="1"/>
        <pt x="795" y="444" on="0"/>
        <pt x="798" y="441" on="1"/>
        <pt x="803" y="432" on="0"/>
        <pt x="808" y="333" on="0"/>
        <pt x="804" y="308" on="1"/>
        <pt x="804" y="307" on="0"/>
        <pt x="801" y="292" on="0"/>
        <pt x="800" y="289" on="1"/>
        <pt x="798" y="273" on="0"/>
        <pt x="800" y="260" on="1"/>
        <pt x="807" y="230" on="0"/>
        <pt x="805" y="116" on="0"/>
        <pt x="798" y="105" on="1"/>
        <pt x="795" y="102" on="0"/>
        <pt x="768" y="102" on="1"/>
        <pt x="739" y="102" on="0"/>
        <pt x="741" y="100" on="1"/>
        <pt x="749" y="86" on="0"/>
        <pt x="748" y="-58" on="0"/>
        <pt x="740" y="-66" on="1"/>
        <pt x="738" y="-68" on="0"/>
        <pt x="425" y="-68" on="1"/>
        <pt x="113" y="-67" on="1"/>
        <pt x="111" y="-59" on="1"/>
        <pt x="104" y="-34" on="0"/>
        <pt x="104" y="74" on="0"/>
        <pt x="111" y="94" on="1"/>
        <pt x="113" y="102" on="0"/>
        <pt x="111" y="112" on="1"/>
        <pt x="104" y="139" on="0"/>
        <pt x="104" y="244" on="0"/>
        <pt x="111" y="265" on="1"/>
        <pt x="113" y="273" on="0"/>
        <pt x="111" y="282" on="1"/>
        <pt x="104" y="309" on="0"/>
        <pt x="104" y="415" on="0"/>
        <pt x="111" y="436" on="1"/>
        <pt x="113" y="444" on="0"/>
        <pt x="111" y="453" on="1"/>
        <pt x="104" y="480" on="0"/>
        <pt x="104" y="585" on="0"/>
        <pt x="111" y="606" on="1"/>
        <pt x="113" y="614" on="0"/>
        <pt x="111" y="624" on="1"/>
        <pt x="104" y="651" on="0"/>
        <pt x="104" y="756" on="0"/>
        <pt x="111" y="777" on="1"/>
        <pt x="113" y="785" on="0"/>
        <pt x="111" y="794" on="1"/>
        <pt x="104" y="821" on="0"/>
        <pt x="104" y="927" on="0"/>
        <pt x="111" y="948" on="1"/>
        <pt x="113" y="956" on="0"/>
        <pt x="111" y="965" on="1"/>
        <pt x="104" y="993" on="0"/>
        <pt x="104" y="1101" on="0"/>
      </contour>
      <contour>
        <pt x="623" y="948" on="1"/>
        <pt x="625" y="956" on="1"/>
        <pt x="455" y="956" on="1"/>
        <pt x="411" y="956" on="0"/>
        <pt x="329" y="955" on="0"/>
        <pt x="285" y="954" on="0"/>
        <pt x="286" y="953" on="1"/>
        <pt x="293" y="942" on="0"/>
        <pt x="294" y="827" on="0"/>
        <pt x="288" y="798" on="1"/>
        <pt x="286" y="785" on="0"/>
        <pt x="288" y="772" on="1"/>
        <pt x="295" y="742" on="0"/>
        <pt x="293" y="628" on="0"/>
        <pt x="286" y="617" on="1"/>
        <pt x="285" y="616" on="0"/>
        <pt x="329" y="615" on="0"/>
        <pt x="411" y="614" on="0"/>
        <pt x="455" y="614" on="1"/>
        <pt x="625" y="614" on="1"/>
        <pt x="623" y="624" on="1"/>
        <pt x="616" y="651" on="0"/>
        <pt x="616" y="756" on="0"/>
        <pt x="623" y="777" on="1"/>
        <pt x="625" y="785" on="0"/>
        <pt x="623" y="794" on="1"/>
        <pt x="616" y="821" on="0"/>
        <pt x="616" y="927" on="0"/>
      </contour>
      <contour>
        <pt x="623" y="436" on="1"/>
        <pt x="625" y="444" on="1"/>
        <pt x="455" y="444" on="1"/>
        <pt x="285" y="444" on="1"/>
        <pt x="287" y="435" on="1"/>
        <pt x="294" y="411" on="0"/>
        <pt x="293" y="288" on="0"/>
        <pt x="286" y="276" on="1"/>
        <pt x="285" y="275" on="0"/>
        <pt x="286" y="268" on="0"/>
        <pt x="287" y="264" on="1"/>
        <pt x="294" y="239" on="0"/>
        <pt x="293" y="117" on="0"/>
        <pt x="286" y="105" on="1"/>
        <pt x="285" y="104" on="0"/>
        <pt x="329" y="103" on="0"/>
        <pt x="411" y="102" on="0"/>
        <pt x="455" y="102" on="1"/>
        <pt x="625" y="102" on="1"/>
        <pt x="623" y="112" on="1"/>
        <pt x="616" y="139" on="0"/>
        <pt x="616" y="244" on="0"/>
        <pt x="623" y="265" on="1"/>
        <pt x="625" y="273" on="0"/>
        <pt x="623" y="282" on="1"/>
        <pt x="616" y="309" on="0"/>
        <pt x="616" y="415" on="0"/>
      </contour>
    </TTGlyph>
    <TTGlyph name="C" xMin="98" yMin="-68" xMax="808" yMax="1126">
      <contour>
        <pt x="282" y="1120" on="1"/>
        <pt x="284" y="1126" on="1"/>
        <pt x="483" y="1126" on="1"/>
        <pt x="682" y="1126" on="0"/>
        <pt x="684" y="1124" on="1"/>
        <pt x="690" y="1114" on="0"/>
        <pt x="694" y="1016" on="0"/>
        <pt x="690" y="988" on="1"/>
        <pt x="685" y="960" on="0"/>
        <pt x="684" y="958" on="1"/>
        <pt x="691" y="958" on="1"/>
        <pt x="698" y="957" on="0"/>
        <pt x="724" y="956" on="0"/>
        <pt x="739" y="956" on="1"/>
        <pt x="795" y="956" on="0"/>
        <pt x="798" y="953" on="1"/>
        <pt x="804" y="943" on="0"/>
        <pt x="808" y="846" on="0"/>
        <pt x="804" y="818" on="1"/>
        <pt x="799" y="789" on="0"/>
        <pt x="797" y="787" on="1"/>
        <pt x="796" y="786" on="0"/>
        <pt x="710" y="786" on="1"/>
        <pt x="625" y="786" on="1"/>
        <pt x="623" y="794" on="1"/>
        <pt x="616" y="820" on="0"/>
        <pt x="616" y="928" on="0"/>
        <pt x="623" y="948" on="1"/>
        <pt x="625" y="956" on="1"/>
        <pt x="483" y="956" on="1"/>
        <pt x="447" y="956" on="0"/>
        <pt x="378" y="955" on="0"/>
        <pt x="341" y="954" on="0"/>
        <pt x="342" y="953" on="1"/>
        <pt x="351" y="937" on="0"/>
        <pt x="351" y="872" on="1"/>
        <pt x="351" y="803" on="0"/>
        <pt x="342" y="787" on="1"/>
        <pt x="340" y="785" on="0"/>
        <pt x="313" y="785" on="1"/>
        <pt x="284" y="785" on="0"/>
        <pt x="286" y="783" on="1"/>
        <pt x="293" y="772" on="0"/>
        <pt x="294" y="656" on="0"/>
        <pt x="288" y="627" on="1"/>
        <pt x="286" y="614" on="0"/>
        <pt x="288" y="602" on="1"/>
        <pt x="293" y="576" on="0"/>
        <pt x="293" y="482" on="0"/>
        <pt x="288" y="457" on="1"/>
        <pt x="286" y="444" on="0"/>
        <pt x="288" y="431" on="1"/>
        <pt x="295" y="401" on="0"/>
        <pt x="293" y="286" on="0"/>
        <pt x="286" y="275" on="1"/>
        <pt x="284" y="273" on="0"/>
        <pt x="313" y="273" on="1"/>
        <pt x="340" y="273" on="0"/>
        <pt x="342" y="271" on="1"/>
        <pt x="348" y="261" on="0"/>
        <pt x="352" y="164" on="0"/>
        <pt x="348" y="135" on="1"/>
        <pt x="344" y="108" on="0"/>
        <pt x="342" y="105" on="1"/>
        <pt x="341" y="104" on="0"/>
        <pt x="378" y="103" on="0"/>
        <pt x="447" y="102" on="0"/>
        <pt x="483" y="102" on="1"/>
        <pt x="625" y="102" on="1"/>
        <pt x="623" y="112" on="1"/>
        <pt x="616" y="140" on="0"/>
        <pt x="616" y="248" on="0"/>
        <pt x="623" y="267" on="1"/>
        <pt x="626" y="273" on="1"/>
        <pt x="711" y="273" on="1"/>
        <pt x="796" y="273" on="0"/>
        <pt x="798" y="271" on="1"/>
        <pt x="804" y="261" on="0"/>
        <pt x="808" y="163" on="0"/>
        <pt x="803" y="135" on="1"/>
        <pt x="802" y="130" on="0"/>
        <pt x="801" y="122" on="0"/>
        <pt x="800" y="117" on="0"/>
        <pt x="799" y="112" on="0"/>
        <pt x="799" y="109" on="0"/>
        <pt x="799" y="107" on="0"/>
        <pt x="798" y="106" on="1"/>
        <pt x="798" y="105" on="1"/>
        <pt x="795" y="102" on="0"/>
        <pt x="739" y="102" on="1"/>
        <pt x="724" y="102" on="0"/>
        <pt x="698" y="101" on="0"/>
        <pt x="691" y="100" on="1"/>
        <pt x="684" y="100" on="1"/>
        <pt x="692" y="86" on="0"/>
        <pt x="691" y="-58" on="0"/>
        <pt x="683" y="-66" on="1"/>
        <pt x="681" y="-68" on="0"/>
        <pt x="482" y="-68" on="1"/>
        <pt x="283" y="-67" on="1"/>
        <pt x="281" y="-59" on="1"/>
        <pt x="274" y="-33" on="0"/>
        <pt x="275" y="75" on="0"/>
        <pt x="282" y="95" on="1"/>
        <pt x="284" y="102" on="1"/>
        <pt x="227" y="103" on="1"/>
        <pt x="170" y="104" on="1"/>
        <pt x="167" y="112" on="1"/>
        <pt x="160" y="138" on="0"/>
        <pt x="161" y="245" on="0"/>
        <pt x="168" y="265" on="1"/>
        <pt x="170" y="273" on="1"/>
        <pt x="142" y="274" on="1"/>
        <pt x="113" y="274" on="1"/>
        <pt x="111" y="282" on="1"/>
        <pt x="104" y="308" on="0"/>
        <pt x="104" y="416" on="0"/>
        <pt x="111" y="436" on="1"/>
        <pt x="113" y="444" on="0"/>
        <pt x="111" y="453" on="1"/>
        <pt x="104" y="480" on="0"/>
        <pt x="104" y="585" on="0"/>
        <pt x="111" y="606" on="1"/>
        <pt x="113" y="614" on="0"/>
        <pt x="111" y="624" on="1"/>
        <pt x="98" y="671" on="0"/>
        <pt x="106" y="746" on="1"/>
        <pt x="109" y="776" on="0"/>
        <pt x="117" y="785" on="0"/>
        <pt x="142" y="785" on="1"/>
        <pt x="170" y="785" on="1"/>
        <pt x="168" y="794" on="1"/>
        <pt x="161" y="822" on="0"/>
        <pt x="161" y="930" on="0"/>
        <pt x="168" y="949" on="1"/>
        <pt x="171" y="956" on="1"/>
        <pt x="227" y="956" on="1"/>
        <pt x="284" y="956" on="1"/>
        <pt x="281" y="965" on="1"/>
        <pt x="274" y="992" on="0"/>
        <pt x="275" y="1101" on="0"/>
      </contour>
    </TTGlyph>
    <TTGlyph name="Ccedilla" xMin="98" yMin="-409" xMax="808" yMax="1126">
      <contour>
        <pt x="282" y="-245" on="1"/>
        <pt x="284" y="-239" on="1"/>
        <pt x="370" y="-239" on="1"/>
        <pt x="455" y="-239" on="1"/>
        <pt x="458" y="-245" on="1"/>
        <pt x="466" y="-265" on="0"/>
        <pt x="464" y="-399" on="0"/>
        <pt x="456" y="-407" on="1"/>
        <pt x="454" y="-409" on="0"/>
        <pt x="368" y="-409" on="1"/>
        <pt x="283" y="-408" on="1"/>
        <pt x="281" y="-400" on="1"/>
        <pt x="274" y="-374" on="0"/>
        <pt x="275" y="-263" on="0"/>
      </contour>
      <contour>
        <pt x="282" y="1120" on="1"/>
        <pt x="284" y="1126" on="1"/>
        <pt x="483" y="1126" on="1"/>
        <pt x="682" y="1126" on="0"/>
        <pt x="684" y="1124" on="1"/>
        <pt x="690" y="1114" on="0"/>
        <pt x="694" y="1016" on="0"/>
        <pt x="690" y="988" on="1"/>
        <pt x="685" y="960" on="0"/>
        <pt x="684" y="958" on="1"/>
        <pt x="691" y="958" on="1"/>
        <pt x="698" y="957" on="0"/>
        <pt x="724" y="956" on="0"/>
        <pt x="739" y="956" on="1"/>
        <pt x="795" y="956" on="0"/>
        <pt x="798" y="953" on="1"/>
        <pt x="804" y="943" on="0"/>
        <pt x="808" y="846" on="0"/>
        <pt x="804" y="818" on="1"/>
        <pt x="799" y="789" on="0"/>
        <pt x="797" y="787" on="1"/>
        <pt x="796" y="786" on="0"/>
        <pt x="710" y="786" on="1"/>
        <pt x="625" y="786" on="1"/>
        <pt x="623" y="794" on="1"/>
        <pt x="616" y="820" on="0"/>
        <pt x="616" y="928" on="0"/>
        <pt x="623" y="948" on="1"/>
        <pt x="625" y="956" on="1"/>
        <pt x="483" y="956" on="1"/>
        <pt x="447" y="956" on="0"/>
        <pt x="378" y="955" on="0"/>
        <pt x="341" y="954" on="0"/>
        <pt x="342" y="953" on="1"/>
        <pt x="351" y="937" on="0"/>
        <pt x="351" y="872" on="1"/>
        <pt x="351" y="803" on="0"/>
        <pt x="342" y="787" on="1"/>
        <pt x="340" y="785" on="0"/>
        <pt x="313" y="785" on="1"/>
        <pt x="284" y="785" on="0"/>
        <pt x="286" y="783" on="1"/>
        <pt x="293" y="772" on="0"/>
        <pt x="294" y="656" on="0"/>
        <pt x="288" y="627" on="1"/>
        <pt x="286" y="614" on="0"/>
        <pt x="288" y="602" on="1"/>
        <pt x="293" y="576" on="0"/>
        <pt x="293" y="482" on="0"/>
        <pt x="288" y="457" on="1"/>
        <pt x="286" y="444" on="0"/>
        <pt x="288" y="431" on="1"/>
        <pt x="295" y="401" on="0"/>
        <pt x="293" y="286" on="0"/>
        <pt x="286" y="275" on="1"/>
        <pt x="284" y="273" on="0"/>
        <pt x="313" y="273" on="1"/>
        <pt x="340" y="273" on="0"/>
        <pt x="342" y="271" on="1"/>
        <pt x="348" y="261" on="0"/>
        <pt x="352" y="164" on="0"/>
        <pt x="348" y="135" on="1"/>
        <pt x="344" y="108" on="0"/>
        <pt x="342" y="105" on="1"/>
        <pt x="341" y="104" on="0"/>
        <pt x="378" y="103" on="0"/>
        <pt x="447" y="102" on="0"/>
        <pt x="483" y="102" on="1"/>
        <pt x="625" y="102" on="1"/>
        <pt x="623" y="112" on="1"/>
        <pt x="616" y="140" on="0"/>
        <pt x="616" y="248" on="0"/>
        <pt x="623" y="267" on="1"/>
        <pt x="626" y="273" on="1"/>
        <pt x="711" y="273" on="1"/>
        <pt x="796" y="273" on="0"/>
        <pt x="798" y="271" on="1"/>
        <pt x="804" y="261" on="0"/>
        <pt x="808" y="163" on="0"/>
        <pt x="803" y="135" on="1"/>
        <pt x="802" y="130" on="0"/>
        <pt x="801" y="122" on="0"/>
        <pt x="800" y="117" on="0"/>
        <pt x="799" y="112" on="0"/>
        <pt x="799" y="109" on="0"/>
        <pt x="799" y="107" on="0"/>
        <pt x="798" y="106" on="1"/>
        <pt x="798" y="105" on="1"/>
        <pt x="795" y="102" on="0"/>
        <pt x="739" y="102" on="1"/>
        <pt x="724" y="102" on="0"/>
        <pt x="698" y="101" on="0"/>
        <pt x="691" y="100" on="1"/>
        <pt x="684" y="100" on="1"/>
        <pt x="692" y="86" on="0"/>
        <pt x="692" y="18" on="1"/>
        <pt x="692" y="-52" on="0"/>
        <pt x="684" y="-66" on="1"/>
        <pt x="682" y="-68" on="0"/>
        <pt x="625" y="-68" on="1"/>
        <pt x="619" y="-68" on="0"/>
        <pt x="606" y="-68" on="0"/>
        <pt x="595" y="-69" on="0"/>
        <pt x="585" y="-69" on="0"/>
        <pt x="578" y="-70" on="0"/>
        <pt x="572" y="-70" on="0"/>
        <pt x="571" y="-70" on="1"/>
        <pt x="570" y="-71" on="1"/>
        <pt x="578" y="-85" on="0"/>
        <pt x="577" y="-229" on="0"/>
        <pt x="569" y="-237" on="1"/>
        <pt x="568" y="-238" on="0"/>
        <pt x="511" y="-238" on="1"/>
        <pt x="454" y="-238" on="1"/>
        <pt x="452" y="-230" on="1"/>
        <pt x="445" y="-204" on="0"/>
        <pt x="445" y="-96" on="0"/>
        <pt x="452" y="-76" on="1"/>
        <pt x="455" y="-68" on="1"/>
        <pt x="369" y="-68" on="1"/>
        <pt x="283" y="-67" on="1"/>
        <pt x="281" y="-59" on="1"/>
        <pt x="274" y="-33" on="0"/>
        <pt x="275" y="75" on="0"/>
        <pt x="282" y="95" on="1"/>
        <pt x="284" y="102" on="1"/>
        <pt x="227" y="103" on="1"/>
        <pt x="170" y="104" on="1"/>
        <pt x="167" y="112" on="1"/>
        <pt x="160" y="138" on="0"/>
        <pt x="161" y="245" on="0"/>
        <pt x="168" y="265" on="1"/>
        <pt x="170" y="273" on="1"/>
        <pt x="142" y="274" on="1"/>
        <pt x="113" y="274" on="1"/>
        <pt x="111" y="282" on="1"/>
        <pt x="104" y="308" on="0"/>
        <pt x="104" y="416" on="0"/>
        <pt x="111" y="436" on="1"/>
        <pt x="113" y="444" on="0"/>
        <pt x="111" y="453" on="1"/>
        <pt x="104" y="480" on="0"/>
        <pt x="104" y="585" on="0"/>
        <pt x="111" y="606" on="1"/>
        <pt x="113" y="614" on="0"/>
        <pt x="111" y="624" on="1"/>
        <pt x="98" y="671" on="0"/>
        <pt x="106" y="746" on="1"/>
        <pt x="109" y="776" on="0"/>
        <pt x="117" y="785" on="0"/>
        <pt x="142" y="785" on="1"/>
        <pt x="170" y="785" on="1"/>
        <pt x="168" y="794" on="1"/>
        <pt x="161" y="822" on="0"/>
        <pt x="161" y="930" on="0"/>
        <pt x="168" y="949" on="1"/>
        <pt x="171" y="956" on="1"/>
        <pt x="227" y="956" on="1"/>
        <pt x="284" y="956" on="1"/>
        <pt x="281" y="965" on="1"/>
        <pt x="274" y="992" on="0"/>
        <pt x="275" y="1101" on="0"/>
      </contour>
    </TTGlyph>
    <TTGlyph name="D" xMin="104" yMin="-68" xMax="814" yMax="1126">
      <contour>
        <pt x="111" y="1120" on="1"/>
        <pt x="114" y="1126" on="1"/>
        <pt x="370" y="1126" on="1"/>
        <pt x="625" y="1126" on="0"/>
        <pt x="627" y="1124" on="1"/>
        <pt x="633" y="1114" on="0"/>
        <pt x="637" y="1016" on="0"/>
        <pt x="633" y="988" on="1"/>
        <pt x="628" y="960" on="0"/>
        <pt x="627" y="958" on="1"/>
        <pt x="634" y="958" on="1"/>
        <pt x="641" y="957" on="0"/>
        <pt x="667" y="956" on="0"/>
        <pt x="682" y="956" on="1"/>
        <pt x="738" y="956" on="0"/>
        <pt x="741" y="953" on="1"/>
        <pt x="747" y="943" on="0"/>
        <pt x="751" y="846" on="0"/>
        <pt x="747" y="818" on="1"/>
        <pt x="742" y="789" on="0"/>
        <pt x="741" y="787" on="1"/>
        <pt x="739" y="785" on="0"/>
        <pt x="768" y="785" on="1"/>
        <pt x="796" y="785" on="0"/>
        <pt x="798" y="783" on="1"/>
        <pt x="799" y="782" on="0"/>
        <pt x="801" y="771" on="1"/>
        <pt x="814" y="702" on="0"/>
        <pt x="800" y="627" on="1"/>
        <pt x="798" y="614" on="0"/>
        <pt x="800" y="602" on="1"/>
        <pt x="805" y="576" on="0"/>
        <pt x="805" y="482" on="0"/>
        <pt x="800" y="457" on="1"/>
        <pt x="798" y="444" on="0"/>
        <pt x="800" y="431" on="1"/>
        <pt x="807" y="401" on="0"/>
        <pt x="805" y="286" on="0"/>
        <pt x="798" y="275" on="1"/>
        <pt x="796" y="273" on="0"/>
        <pt x="768" y="273" on="1"/>
        <pt x="740" y="273" on="1"/>
        <pt x="742" y="264" on="1"/>
        <pt x="749" y="239" on="0"/>
        <pt x="748" y="117" on="0"/>
        <pt x="741" y="105" on="1"/>
        <pt x="738" y="102" on="0"/>
        <pt x="682" y="102" on="1"/>
        <pt x="667" y="102" on="0"/>
        <pt x="641" y="101" on="0"/>
        <pt x="634" y="100" on="1"/>
        <pt x="627" y="100" on="1"/>
        <pt x="635" y="86" on="0"/>
        <pt x="634" y="-58" on="0"/>
        <pt x="626" y="-66" on="1"/>
        <pt x="624" y="-68" on="0"/>
        <pt x="368" y="-68" on="1"/>
        <pt x="113" y="-67" on="1"/>
        <pt x="111" y="-59" on="1"/>
        <pt x="104" y="-34" on="0"/>
        <pt x="104" y="74" on="0"/>
        <pt x="111" y="94" on="1"/>
        <pt x="113" y="102" on="0"/>
        <pt x="111" y="112" on="1"/>
        <pt x="104" y="139" on="0"/>
        <pt x="104" y="244" on="0"/>
        <pt x="111" y="265" on="1"/>
        <pt x="113" y="273" on="0"/>
        <pt x="111" y="282" on="1"/>
        <pt x="104" y="309" on="0"/>
        <pt x="104" y="415" on="0"/>
        <pt x="111" y="436" on="1"/>
        <pt x="113" y="444" on="0"/>
        <pt x="111" y="453" on="1"/>
        <pt x="104" y="480" on="0"/>
        <pt x="104" y="585" on="0"/>
        <pt x="111" y="606" on="1"/>
        <pt x="113" y="614" on="0"/>
        <pt x="111" y="624" on="1"/>
        <pt x="104" y="651" on="0"/>
        <pt x="104" y="756" on="0"/>
        <pt x="111" y="777" on="1"/>
        <pt x="113" y="785" on="0"/>
        <pt x="111" y="794" on="1"/>
        <pt x="104" y="821" on="0"/>
        <pt x="104" y="927" on="0"/>
        <pt x="111" y="948" on="1"/>
        <pt x="113" y="956" on="0"/>
        <pt x="111" y="965" on="1"/>
        <pt x="104" y="993" on="0"/>
        <pt x="104" y="1101" on="0"/>
      </contour>
      <contour>
        <pt x="566" y="948" on="1"/>
        <pt x="569" y="956" on="1"/>
        <pt x="426" y="956" on="1"/>
        <pt x="390" y="956" on="0"/>
        <pt x="322" y="955" on="0"/>
        <pt x="285" y="954" on="0"/>
        <pt x="286" y="953" on="1"/>
        <pt x="293" y="942" on="0"/>
        <pt x="294" y="827" on="0"/>
        <pt x="288" y="798" on="1"/>
        <pt x="286" y="785" on="0"/>
        <pt x="288" y="772" on="1"/>
        <pt x="294" y="743" on="0"/>
        <pt x="293" y="628" on="0"/>
        <pt x="286" y="617" on="1"/>
        <pt x="284" y="615" on="0"/>
        <pt x="287" y="606" on="1"/>
        <pt x="294" y="582" on="0"/>
        <pt x="293" y="459" on="0"/>
        <pt x="286" y="447" on="1"/>
        <pt x="285" y="446" on="0"/>
        <pt x="286" y="439" on="0"/>
        <pt x="287" y="435" on="1"/>
        <pt x="294" y="411" on="0"/>
        <pt x="293" y="288" on="0"/>
        <pt x="286" y="276" on="1"/>
        <pt x="285" y="275" on="0"/>
        <pt x="286" y="268" on="0"/>
        <pt x="287" y="264" on="1"/>
        <pt x="294" y="239" on="0"/>
        <pt x="293" y="117" on="0"/>
        <pt x="286" y="105" on="1"/>
        <pt x="285" y="104" on="0"/>
        <pt x="322" y="103" on="0"/>
        <pt x="390" y="102" on="0"/>
        <pt x="426" y="102" on="1"/>
        <pt x="568" y="102" on="1"/>
        <pt x="566" y="112" on="1"/>
        <pt x="553" y="159" on="0"/>
        <pt x="561" y="234" on="1"/>
        <pt x="564" y="264" on="0"/>
        <pt x="572" y="273" on="0"/>
        <pt x="597" y="273" on="1"/>
        <pt x="625" y="273" on="1"/>
        <pt x="623" y="282" on="1"/>
        <pt x="616" y="309" on="0"/>
        <pt x="616" y="415" on="0"/>
        <pt x="623" y="436" on="1"/>
        <pt x="625" y="444" on="0"/>
        <pt x="623" y="453" on="1"/>
        <pt x="616" y="480" on="0"/>
        <pt x="616" y="585" on="0"/>
        <pt x="623" y="606" on="1"/>
        <pt x="625" y="614" on="0"/>
        <pt x="623" y="624" on="1"/>
        <pt x="616" y="651" on="0"/>
        <pt x="616" y="756" on="0"/>
        <pt x="623" y="777" on="1"/>
        <pt x="625" y="785" on="1"/>
        <pt x="597" y="786" on="1"/>
        <pt x="568" y="786" on="1"/>
        <pt x="566" y="794" on="1"/>
        <pt x="559" y="820" on="0"/>
        <pt x="559" y="927" on="0"/>
      </contour>
    </TTGlyph>
    <TTGlyph name="E" xMin="217" yMin="-68" xMax="751" yMax="1126">
      <contour>
        <pt x="225" y="1120" on="1"/>
        <pt x="228" y="1126" on="1"/>
        <pt x="483" y="1126" on="1"/>
        <pt x="739" y="1126" on="0"/>
        <pt x="741" y="1124" on="1"/>
        <pt x="747" y="1114" on="0"/>
        <pt x="751" y="1016" on="0"/>
        <pt x="747" y="988" on="1"/>
        <pt x="742" y="960" on="0"/>
        <pt x="741" y="958" on="1"/>
        <pt x="739" y="956" on="0"/>
        <pt x="569" y="956" on="1"/>
        <pt x="525" y="956" on="0"/>
        <pt x="443" y="955" on="0"/>
        <pt x="398" y="954" on="0"/>
        <pt x="399" y="953" on="1"/>
        <pt x="406" y="942" on="0"/>
        <pt x="408" y="827" on="0"/>
        <pt x="402" y="798" on="1"/>
        <pt x="400" y="785" on="0"/>
        <pt x="402" y="772" on="1"/>
        <pt x="409" y="742" on="0"/>
        <pt x="407" y="628" on="0"/>
        <pt x="399" y="617" on="1"/>
        <pt x="398" y="616" on="0"/>
        <pt x="443" y="615" on="0"/>
        <pt x="525" y="614" on="0"/>
        <pt x="569" y="614" on="1"/>
        <pt x="739" y="614" on="0"/>
        <pt x="741" y="612" on="1"/>
        <pt x="747" y="602" on="0"/>
        <pt x="751" y="504" on="0"/>
        <pt x="747" y="476" on="1"/>
        <pt x="742" y="448" on="0"/>
        <pt x="741" y="446" on="1"/>
        <pt x="739" y="444" on="0"/>
        <pt x="569" y="444" on="1"/>
        <pt x="399" y="444" on="1"/>
        <pt x="401" y="435" on="1"/>
        <pt x="408" y="411" on="0"/>
        <pt x="407" y="288" on="0"/>
        <pt x="400" y="276" on="1"/>
        <pt x="399" y="275" on="0"/>
        <pt x="400" y="268" on="0"/>
        <pt x="401" y="264" on="1"/>
        <pt x="408" y="239" on="0"/>
        <pt x="406" y="117" on="0"/>
        <pt x="399" y="105" on="1"/>
        <pt x="398" y="104" on="0"/>
        <pt x="443" y="103" on="0"/>
        <pt x="525" y="102" on="0"/>
        <pt x="569" y="102" on="1"/>
        <pt x="739" y="102" on="0"/>
        <pt x="741" y="100" on="1"/>
        <pt x="746" y="91" on="0"/>
        <pt x="751" y="-8" on="0"/>
        <pt x="747" y="-33" on="1"/>
        <pt x="746" y="-36" on="0"/>
        <pt x="744" y="-51" on="0"/>
        <pt x="744" y="-53" on="1"/>
        <pt x="742" y="-64" on="0"/>
        <pt x="738" y="-68" on="0"/>
        <pt x="482" y="-68" on="1"/>
        <pt x="226" y="-67" on="1"/>
        <pt x="224" y="-59" on="1"/>
        <pt x="217" y="-33" on="0"/>
        <pt x="218" y="74" on="0"/>
        <pt x="225" y="94" on="1"/>
        <pt x="227" y="102" on="0"/>
        <pt x="225" y="112" on="1"/>
        <pt x="218" y="139" on="0"/>
        <pt x="218" y="244" on="0"/>
        <pt x="225" y="265" on="1"/>
        <pt x="227" y="273" on="0"/>
        <pt x="225" y="282" on="1"/>
        <pt x="218" y="309" on="0"/>
        <pt x="218" y="415" on="0"/>
        <pt x="225" y="436" on="1"/>
        <pt x="227" y="444" on="0"/>
        <pt x="225" y="453" on="1"/>
        <pt x="218" y="480" on="0"/>
        <pt x="218" y="585" on="0"/>
        <pt x="225" y="606" on="1"/>
        <pt x="227" y="614" on="0"/>
        <pt x="225" y="624" on="1"/>
        <pt x="218" y="651" on="0"/>
        <pt x="218" y="756" on="0"/>
        <pt x="225" y="777" on="1"/>
        <pt x="227" y="785" on="0"/>
        <pt x="225" y="794" on="1"/>
        <pt x="218" y="821" on="0"/>
        <pt x="218" y="927" on="0"/>
        <pt x="225" y="948" on="1"/>
        <pt x="227" y="956" on="0"/>
        <pt x="225" y="965" on="1"/>
        <pt x="218" y="993" on="0"/>
        <pt x="218" y="1101" on="0"/>
      </contour>
    </TTGlyph>
    <TTGlyph name="Eacute" xMin="217" yMin="-68" xMax="751" yMax="1638">
      <contour>
        <pt x="225" y="1120" on="1"/>
        <pt x="228" y="1126" on="1"/>
        <pt x="483" y="1126" on="1"/>
        <pt x="739" y="1126" on="0"/>
        <pt x="741" y="1124" on="1"/>
        <pt x="747" y="1114" on="0"/>
        <pt x="751" y="1016" on="0"/>
        <pt x="747" y="988" on="1"/>
        <pt x="742" y="960" on="0"/>
        <pt x="741" y="958" on="1"/>
        <pt x="739" y="956" on="0"/>
        <pt x="569" y="956" on="1"/>
        <pt x="525" y="956" on="0"/>
        <pt x="443" y="955" on="0"/>
        <pt x="398" y="954" on="0"/>
        <pt x="399" y="953" on="1"/>
        <pt x="406" y="942" on="0"/>
        <pt x="408" y="827" on="0"/>
        <pt x="402" y="798" on="1"/>
        <pt x="400" y="785" on="0"/>
        <pt x="402" y="772" on="1"/>
        <pt x="409" y="742" on="0"/>
        <pt x="407" y="628" on="0"/>
        <pt x="399" y="617" on="1"/>
        <pt x="398" y="616" on="0"/>
        <pt x="443" y="615" on="0"/>
        <pt x="525" y="614" on="0"/>
        <pt x="569" y="614" on="1"/>
        <pt x="739" y="614" on="0"/>
        <pt x="741" y="612" on="1"/>
        <pt x="747" y="602" on="0"/>
        <pt x="751" y="504" on="0"/>
        <pt x="747" y="476" on="1"/>
        <pt x="742" y="448" on="0"/>
        <pt x="741" y="446" on="1"/>
        <pt x="739" y="444" on="0"/>
        <pt x="569" y="444" on="1"/>
        <pt x="399" y="444" on="1"/>
        <pt x="401" y="435" on="1"/>
        <pt x="408" y="411" on="0"/>
        <pt x="407" y="288" on="0"/>
        <pt x="400" y="276" on="1"/>
        <pt x="399" y="275" on="0"/>
        <pt x="400" y="268" on="0"/>
        <pt x="401" y="264" on="1"/>
        <pt x="408" y="239" on="0"/>
        <pt x="406" y="117" on="0"/>
        <pt x="399" y="105" on="1"/>
        <pt x="398" y="104" on="0"/>
        <pt x="443" y="103" on="0"/>
        <pt x="525" y="102" on="0"/>
        <pt x="569" y="102" on="1"/>
        <pt x="739" y="102" on="0"/>
        <pt x="741" y="100" on="1"/>
        <pt x="746" y="91" on="0"/>
        <pt x="751" y="-8" on="0"/>
        <pt x="747" y="-33" on="1"/>
        <pt x="746" y="-36" on="0"/>
        <pt x="744" y="-51" on="0"/>
        <pt x="744" y="-53" on="1"/>
        <pt x="742" y="-64" on="0"/>
        <pt x="738" y="-68" on="0"/>
        <pt x="482" y="-68" on="1"/>
        <pt x="226" y="-67" on="1"/>
        <pt x="224" y="-59" on="1"/>
        <pt x="217" y="-33" on="0"/>
        <pt x="218" y="74" on="0"/>
        <pt x="225" y="94" on="1"/>
        <pt x="227" y="102" on="0"/>
        <pt x="225" y="112" on="1"/>
        <pt x="218" y="139" on="0"/>
        <pt x="218" y="244" on="0"/>
        <pt x="225" y="265" on="1"/>
        <pt x="227" y="273" on="0"/>
        <pt x="225" y="282" on="1"/>
        <pt x="218" y="309" on="0"/>
        <pt x="218" y="415" on="0"/>
        <pt x="225" y="436" on="1"/>
        <pt x="227" y="444" on="0"/>
        <pt x="225" y="453" on="1"/>
        <pt x="218" y="480" on="0"/>
        <pt x="218" y="585" on="0"/>
        <pt x="225" y="606" on="1"/>
        <pt x="227" y="614" on="0"/>
        <pt x="225" y="624" on="1"/>
        <pt x="218" y="651" on="0"/>
        <pt x="218" y="756" on="0"/>
        <pt x="225" y="777" on="1"/>
        <pt x="227" y="785" on="0"/>
        <pt x="225" y="794" on="1"/>
        <pt x="218" y="821" on="0"/>
        <pt x="218" y="927" on="0"/>
        <pt x="225" y="948" on="1"/>
        <pt x="227" y="956" on="0"/>
        <pt x="225" y="965" on="1"/>
        <pt x="218" y="993" on="0"/>
        <pt x="218" y="1101" on="0"/>
      </contour>
      <contour>
        <pt x="509" y="1632" on="1"/>
        <pt x="512" y="1638" on="1"/>
        <pt x="597" y="1638" on="1"/>
        <pt x="682" y="1638" on="0"/>
        <pt x="684" y="1636" on="1"/>
        <pt x="689" y="1627" on="0"/>
        <pt x="694" y="1528" on="0"/>
        <pt x="690" y="1503" on="1"/>
        <pt x="689" y="1501" on="0"/>
        <pt x="687" y="1486" on="0"/>
        <pt x="687" y="1484" on="1"/>
        <pt x="685" y="1471" on="0"/>
        <pt x="684" y="1470" on="1"/>
        <pt x="682" y="1468" on="0"/>
        <pt x="625" y="1468" on="1"/>
        <pt x="619" y="1468" on="0"/>
        <pt x="606" y="1468" on="0"/>
        <pt x="595" y="1467" on="0"/>
        <pt x="585" y="1467" on="0"/>
        <pt x="578" y="1466" on="0"/>
        <pt x="572" y="1466" on="0"/>
        <pt x="571" y="1466" on="1"/>
        <pt x="570" y="1465" on="1"/>
        <pt x="578" y="1451" on="0"/>
        <pt x="577" y="1307" on="0"/>
        <pt x="569" y="1299" on="1"/>
        <pt x="568" y="1298" on="0"/>
        <pt x="482" y="1298" on="1"/>
        <pt x="397" y="1298" on="1"/>
        <pt x="395" y="1306" on="1"/>
        <pt x="388" y="1332" on="0"/>
        <pt x="389" y="1443" on="0"/>
        <pt x="396" y="1461" on="1"/>
        <pt x="398" y="1468" on="1"/>
        <pt x="455" y="1468" on="1"/>
        <pt x="511" y="1468" on="1"/>
        <pt x="509" y="1477" on="1"/>
        <pt x="502" y="1505" on="0"/>
        <pt x="502" y="1613" on="0"/>
      </contour>
    </TTGlyph>
    <TTGlyph name="Ecircumflex" xMin="217" yMin="-68" xMax="751" yMax="1638">
      <contour>
        <pt x="225" y="1120" on="1"/>
        <pt x="228" y="1126" on="1"/>
        <pt x="483" y="1126" on="1"/>
        <pt x="739" y="1126" on="0"/>
        <pt x="741" y="1124" on="1"/>
        <pt x="747" y="1114" on="0"/>
        <pt x="751" y="1016" on="0"/>
        <pt x="747" y="988" on="1"/>
        <pt x="742" y="960" on="0"/>
        <pt x="741" y="958" on="1"/>
        <pt x="739" y="956" on="0"/>
        <pt x="569" y="956" on="1"/>
        <pt x="525" y="956" on="0"/>
        <pt x="443" y="955" on="0"/>
        <pt x="398" y="954" on="0"/>
        <pt x="399" y="953" on="1"/>
        <pt x="406" y="942" on="0"/>
        <pt x="408" y="827" on="0"/>
        <pt x="402" y="798" on="1"/>
        <pt x="400" y="785" on="0"/>
        <pt x="402" y="772" on="1"/>
        <pt x="409" y="742" on="0"/>
        <pt x="407" y="628" on="0"/>
        <pt x="399" y="617" on="1"/>
        <pt x="398" y="616" on="0"/>
        <pt x="443" y="615" on="0"/>
        <pt x="525" y="614" on="0"/>
        <pt x="569" y="614" on="1"/>
        <pt x="739" y="614" on="0"/>
        <pt x="741" y="612" on="1"/>
        <pt x="747" y="602" on="0"/>
        <pt x="751" y="504" on="0"/>
        <pt x="747" y="476" on="1"/>
        <pt x="742" y="448" on="0"/>
        <pt x="741" y="446" on="1"/>
        <pt x="739" y="444" on="0"/>
        <pt x="569" y="444" on="1"/>
        <pt x="399" y="444" on="1"/>
        <pt x="401" y="435" on="1"/>
        <pt x="408" y="411" on="0"/>
        <pt x="407" y="288" on="0"/>
        <pt x="400" y="276" on="1"/>
        <pt x="399" y="275" on="0"/>
        <pt x="400" y="268" on="0"/>
        <pt x="401" y="264" on="1"/>
        <pt x="408" y="239" on="0"/>
        <pt x="406" y="117" on="0"/>
        <pt x="399" y="105" on="1"/>
        <pt x="398" y="104" on="0"/>
        <pt x="443" y="103" on="0"/>
        <pt x="525" y="102" on="0"/>
        <pt x="569" y="102" on="1"/>
        <pt x="739" y="102" on="0"/>
        <pt x="741" y="100" on="1"/>
        <pt x="746" y="91" on="0"/>
        <pt x="751" y="-8" on="0"/>
        <pt x="747" y="-33" on="1"/>
        <pt x="746" y="-36" on="0"/>
        <pt x="744" y="-51" on="0"/>
        <pt x="744" y="-53" on="1"/>
        <pt x="742" y="-64" on="0"/>
        <pt x="738" y="-68" on="0"/>
        <pt x="482" y="-68" on="1"/>
        <pt x="226" y="-67" on="1"/>
        <pt x="224" y="-59" on="1"/>
        <pt x="217" y="-33" on="0"/>
        <pt x="218" y="74" on="0"/>
        <pt x="225" y="94" on="1"/>
        <pt x="227" y="102" on="0"/>
        <pt x="225" y="112" on="1"/>
        <pt x="218" y="139" on="0"/>
        <pt x="218" y="244" on="0"/>
        <pt x="225" y="265" on="1"/>
        <pt x="227" y="273" on="0"/>
        <pt x="225" y="282" on="1"/>
        <pt x="218" y="309" on="0"/>
        <pt x="218" y="415" on="0"/>
        <pt x="225" y="436" on="1"/>
        <pt x="227" y="444" on="0"/>
        <pt x="225" y="453" on="1"/>
        <pt x="218" y="480" on="0"/>
        <pt x="218" y="585" on="0"/>
        <pt x="225" y="606" on="1"/>
        <pt x="227" y="614" on="0"/>
        <pt x="225" y="624" on="1"/>
        <pt x="218" y="651" on="0"/>
        <pt x="218" y="756" on="0"/>
        <pt x="225" y="777" on="1"/>
        <pt x="227" y="785" on="0"/>
        <pt x="225" y="794" on="1"/>
        <pt x="218" y="821" on="0"/>
        <pt x="218" y="927" on="0"/>
        <pt x="225" y="948" on="1"/>
        <pt x="227" y="956" on="0"/>
        <pt x="225" y="965" on="1"/>
        <pt x="218" y="993" on="0"/>
        <pt x="218" y="1101" on="0"/>
      </contour>
      <contour>
        <pt x="339" y="1632" on="1"/>
        <pt x="341" y="1638" on="1"/>
        <pt x="483" y="1638" on="1"/>
        <pt x="625" y="1638" on="0"/>
        <pt x="627" y="1636" on="1"/>
        <pt x="632" y="1627" on="0"/>
        <pt x="637" y="1528" on="0"/>
        <pt x="633" y="1503" on="1"/>
        <pt x="632" y="1501" on="0"/>
        <pt x="630" y="1486" on="0"/>
        <pt x="630" y="1484" on="1"/>
        <pt x="628" y="1471" on="0"/>
        <pt x="627" y="1470" on="1"/>
        <pt x="625" y="1468" on="0"/>
        <pt x="654" y="1468" on="1"/>
        <pt x="681" y="1468" on="0"/>
        <pt x="684" y="1465" on="1"/>
        <pt x="689" y="1456" on="0"/>
        <pt x="694" y="1357" on="0"/>
        <pt x="690" y="1332" on="1"/>
        <pt x="689" y="1329" on="0"/>
        <pt x="687" y="1315" on="0"/>
        <pt x="687" y="1313" on="1"/>
        <pt x="685" y="1301" on="0"/>
        <pt x="683" y="1299" on="1"/>
        <pt x="682" y="1298" on="0"/>
        <pt x="624" y="1298" on="1"/>
        <pt x="568" y="1298" on="1"/>
        <pt x="566" y="1306" on="1"/>
        <pt x="559" y="1332" on="0"/>
        <pt x="559" y="1440" on="0"/>
        <pt x="566" y="1460" on="1"/>
        <pt x="569" y="1468" on="1"/>
        <pt x="483" y="1468" on="1"/>
        <pt x="470" y="1468" on="0"/>
        <pt x="443" y="1468" on="0"/>
        <pt x="423" y="1467" on="0"/>
        <pt x="407" y="1466" on="0"/>
        <pt x="403" y="1466" on="1"/>
        <pt x="399" y="1465" on="1"/>
        <pt x="407" y="1452" on="0"/>
        <pt x="407" y="1307" on="0"/>
        <pt x="399" y="1299" on="1"/>
        <pt x="398" y="1298" on="0"/>
        <pt x="340" y="1298" on="1"/>
        <pt x="283" y="1298" on="1"/>
        <pt x="281" y="1306" on="1"/>
        <pt x="269" y="1349" on="0"/>
        <pt x="277" y="1429" on="1"/>
        <pt x="280" y="1459" on="0"/>
        <pt x="288" y="1468" on="0"/>
        <pt x="313" y="1468" on="1"/>
        <pt x="341" y="1468" on="1"/>
        <pt x="338" y="1477" on="1"/>
        <pt x="331" y="1504" on="0"/>
        <pt x="332" y="1613" on="0"/>
      </contour>
    </TTGlyph>
    <TTGlyph name="Edieresis" xMin="217" yMin="-68" xMax="751" yMax="1468">
      <contour>
        <pt x="225" y="1120" on="1"/>
        <pt x="228" y="1126" on="1"/>
        <pt x="483" y="1126" on="1"/>
        <pt x="739" y="1126" on="0"/>
        <pt x="741" y="1124" on="1"/>
        <pt x="747" y="1114" on="0"/>
        <pt x="751" y="1016" on="0"/>
        <pt x="747" y="988" on="1"/>
        <pt x="742" y="960" on="0"/>
        <pt x="741" y="958" on="1"/>
        <pt x="739" y="956" on="0"/>
        <pt x="569" y="956" on="1"/>
        <pt x="525" y="956" on="0"/>
        <pt x="443" y="955" on="0"/>
        <pt x="398" y="954" on="0"/>
        <pt x="399" y="953" on="1"/>
        <pt x="406" y="942" on="0"/>
        <pt x="408" y="827" on="0"/>
        <pt x="402" y="798" on="1"/>
        <pt x="400" y="785" on="0"/>
        <pt x="402" y="772" on="1"/>
        <pt x="409" y="742" on="0"/>
        <pt x="407" y="628" on="0"/>
        <pt x="399" y="617" on="1"/>
        <pt x="398" y="616" on="0"/>
        <pt x="443" y="615" on="0"/>
        <pt x="525" y="614" on="0"/>
        <pt x="569" y="614" on="1"/>
        <pt x="739" y="614" on="0"/>
        <pt x="741" y="612" on="1"/>
        <pt x="747" y="602" on="0"/>
        <pt x="751" y="504" on="0"/>
        <pt x="747" y="476" on="1"/>
        <pt x="742" y="448" on="0"/>
        <pt x="741" y="446" on="1"/>
        <pt x="739" y="444" on="0"/>
        <pt x="569" y="444" on="1"/>
        <pt x="399" y="444" on="1"/>
        <pt x="401" y="435" on="1"/>
        <pt x="408" y="411" on="0"/>
        <pt x="407" y="288" on="0"/>
        <pt x="400" y="276" on="1"/>
        <pt x="399" y="275" on="0"/>
        <pt x="400" y="268" on="0"/>
        <pt x="401" y="264" on="1"/>
        <pt x="408" y="239" on="0"/>
        <pt x="406" y="117" on="0"/>
        <pt x="399" y="105" on="1"/>
        <pt x="398" y="104" on="0"/>
        <pt x="443" y="103" on="0"/>
        <pt x="525" y="102" on="0"/>
        <pt x="569" y="102" on="1"/>
        <pt x="739" y="102" on="0"/>
        <pt x="741" y="100" on="1"/>
        <pt x="746" y="91" on="0"/>
        <pt x="751" y="-8" on="0"/>
        <pt x="747" y="-33" on="1"/>
        <pt x="746" y="-36" on="0"/>
        <pt x="744" y="-51" on="0"/>
        <pt x="744" y="-53" on="1"/>
        <pt x="742" y="-64" on="0"/>
        <pt x="738" y="-68" on="0"/>
        <pt x="482" y="-68" on="1"/>
        <pt x="226" y="-67" on="1"/>
        <pt x="224" y="-59" on="1"/>
        <pt x="217" y="-33" on="0"/>
        <pt x="218" y="74" on="0"/>
        <pt x="225" y="94" on="1"/>
        <pt x="227" y="102" on="0"/>
        <pt x="225" y="112" on="1"/>
        <pt x="218" y="139" on="0"/>
        <pt x="218" y="244" on="0"/>
        <pt x="225" y="265" on="1"/>
        <pt x="227" y="273" on="0"/>
        <pt x="225" y="282" on="1"/>
        <pt x="218" y="309" on="0"/>
        <pt x="218" y="415" on="0"/>
        <pt x="225" y="436" on="1"/>
        <pt x="227" y="444" on="0"/>
        <pt x="225" y="453" on="1"/>
        <pt x="218" y="480" on="0"/>
        <pt x="218" y="585" on="0"/>
        <pt x="225" y="606" on="1"/>
        <pt x="227" y="614" on="0"/>
        <pt x="225" y="624" on="1"/>
        <pt x="218" y="651" on="0"/>
        <pt x="218" y="756" on="0"/>
        <pt x="225" y="777" on="1"/>
        <pt x="227" y="785" on="0"/>
        <pt x="225" y="794" on="1"/>
        <pt x="218" y="821" on="0"/>
        <pt x="218" y="927" on="0"/>
        <pt x="225" y="948" on="1"/>
        <pt x="227" y="956" on="0"/>
        <pt x="225" y="965" on="1"/>
        <pt x="218" y="993" on="0"/>
        <pt x="218" y="1101" on="0"/>
      </contour>
      <contour>
        <pt x="566" y="1461" on="1"/>
        <pt x="569" y="1468" on="1"/>
        <pt x="654" y="1468" on="1"/>
        <pt x="738" y="1468" on="0"/>
        <pt x="741" y="1465" on="1"/>
        <pt x="746" y="1456" on="0"/>
        <pt x="751" y="1357" on="0"/>
        <pt x="747" y="1332" on="1"/>
        <pt x="746" y="1329" on="0"/>
        <pt x="744" y="1315" on="0"/>
        <pt x="744" y="1313" on="1"/>
        <pt x="742" y="1301" on="0"/>
        <pt x="740" y="1299" on="1"/>
        <pt x="739" y="1298" on="0"/>
        <pt x="653" y="1298" on="1"/>
        <pt x="568" y="1298" on="1"/>
        <pt x="566" y="1306" on="1"/>
        <pt x="559" y="1332" on="0"/>
        <pt x="559" y="1443" on="0"/>
      </contour>
      <contour>
        <pt x="225" y="1461" on="1"/>
        <pt x="228" y="1468" on="1"/>
        <pt x="313" y="1468" on="1"/>
        <pt x="396" y="1468" on="0"/>
        <pt x="399" y="1465" on="1"/>
        <pt x="404" y="1456" on="0"/>
        <pt x="410" y="1357" on="0"/>
        <pt x="406" y="1332" on="1"/>
        <pt x="406" y="1331" on="0"/>
        <pt x="403" y="1316" on="0"/>
        <pt x="402" y="1313" on="1"/>
        <pt x="400" y="1300" on="0"/>
        <pt x="398" y="1298" on="0"/>
        <pt x="311" y="1298" on="1"/>
        <pt x="226" y="1298" on="1"/>
        <pt x="224" y="1306" on="1"/>
        <pt x="217" y="1332" on="0"/>
        <pt x="218" y="1443" on="0"/>
      </contour>
    </TTGlyph>
    <TTGlyph name="Egrave" xMin="217" yMin="-68" xMax="751" yMax="1638">
      <contour>
        <pt x="225" y="1120" on="1"/>
        <pt x="228" y="1126" on="1"/>
        <pt x="483" y="1126" on="1"/>
        <pt x="739" y="1126" on="0"/>
        <pt x="741" y="1124" on="1"/>
        <pt x="747" y="1114" on="0"/>
        <pt x="751" y="1016" on="0"/>
        <pt x="747" y="988" on="1"/>
        <pt x="742" y="960" on="0"/>
        <pt x="741" y="958" on="1"/>
        <pt x="739" y="956" on="0"/>
        <pt x="569" y="956" on="1"/>
        <pt x="525" y="956" on="0"/>
        <pt x="443" y="955" on="0"/>
        <pt x="398" y="954" on="0"/>
        <pt x="399" y="953" on="1"/>
        <pt x="406" y="942" on="0"/>
        <pt x="408" y="827" on="0"/>
        <pt x="402" y="798" on="1"/>
        <pt x="400" y="785" on="0"/>
        <pt x="402" y="772" on="1"/>
        <pt x="409" y="742" on="0"/>
        <pt x="407" y="628" on="0"/>
        <pt x="399" y="617" on="1"/>
        <pt x="398" y="616" on="0"/>
        <pt x="443" y="615" on="0"/>
        <pt x="525" y="614" on="0"/>
        <pt x="569" y="614" on="1"/>
        <pt x="739" y="614" on="0"/>
        <pt x="741" y="612" on="1"/>
        <pt x="747" y="602" on="0"/>
        <pt x="751" y="504" on="0"/>
        <pt x="747" y="476" on="1"/>
        <pt x="742" y="448" on="0"/>
        <pt x="741" y="446" on="1"/>
        <pt x="739" y="444" on="0"/>
        <pt x="569" y="444" on="1"/>
        <pt x="399" y="444" on="1"/>
        <pt x="401" y="435" on="1"/>
        <pt x="408" y="411" on="0"/>
        <pt x="407" y="288" on="0"/>
        <pt x="400" y="276" on="1"/>
        <pt x="399" y="275" on="0"/>
        <pt x="400" y="268" on="0"/>
        <pt x="401" y="264" on="1"/>
        <pt x="408" y="239" on="0"/>
        <pt x="406" y="117" on="0"/>
        <pt x="399" y="105" on="1"/>
        <pt x="398" y="104" on="0"/>
        <pt x="443" y="103" on="0"/>
        <pt x="525" y="102" on="0"/>
        <pt x="569" y="102" on="1"/>
        <pt x="739" y="102" on="0"/>
        <pt x="741" y="100" on="1"/>
        <pt x="746" y="91" on="0"/>
        <pt x="751" y="-8" on="0"/>
        <pt x="747" y="-33" on="1"/>
        <pt x="746" y="-36" on="0"/>
        <pt x="744" y="-51" on="0"/>
        <pt x="744" y="-53" on="1"/>
        <pt x="742" y="-64" on="0"/>
        <pt x="738" y="-68" on="0"/>
        <pt x="482" y="-68" on="1"/>
        <pt x="226" y="-67" on="1"/>
        <pt x="224" y="-59" on="1"/>
        <pt x="217" y="-33" on="0"/>
        <pt x="218" y="74" on="0"/>
        <pt x="225" y="94" on="1"/>
        <pt x="227" y="102" on="0"/>
        <pt x="225" y="112" on="1"/>
        <pt x="218" y="139" on="0"/>
        <pt x="218" y="244" on="0"/>
        <pt x="225" y="265" on="1"/>
        <pt x="227" y="273" on="0"/>
        <pt x="225" y="282" on="1"/>
        <pt x="218" y="309" on="0"/>
        <pt x="218" y="415" on="0"/>
        <pt x="225" y="436" on="1"/>
        <pt x="227" y="444" on="0"/>
        <pt x="225" y="453" on="1"/>
        <pt x="218" y="480" on="0"/>
        <pt x="218" y="585" on="0"/>
        <pt x="225" y="606" on="1"/>
        <pt x="227" y="614" on="0"/>
        <pt x="225" y="624" on="1"/>
        <pt x="218" y="651" on="0"/>
        <pt x="218" y="756" on="0"/>
        <pt x="225" y="777" on="1"/>
        <pt x="227" y="785" on="0"/>
        <pt x="225" y="794" on="1"/>
        <pt x="218" y="821" on="0"/>
        <pt x="218" y="927" on="0"/>
        <pt x="225" y="948" on="1"/>
        <pt x="227" y="956" on="0"/>
        <pt x="225" y="965" on="1"/>
        <pt x="218" y="993" on="0"/>
        <pt x="218" y="1101" on="0"/>
      </contour>
      <contour>
        <pt x="339" y="1632" on="1"/>
        <pt x="341" y="1638" on="1"/>
        <pt x="427" y="1638" on="1"/>
        <pt x="511" y="1638" on="0"/>
        <pt x="513" y="1636" on="1"/>
        <pt x="518" y="1627" on="0"/>
        <pt x="523" y="1528" on="0"/>
        <pt x="519" y="1503" on="1"/>
        <pt x="518" y="1501" on="0"/>
        <pt x="516" y="1486" on="0"/>
        <pt x="516" y="1484" on="1"/>
        <pt x="514" y="1471" on="0"/>
        <pt x="513" y="1470" on="1"/>
        <pt x="520" y="1470" on="1"/>
        <pt x="527" y="1469" on="0"/>
        <pt x="553" y="1468" on="0"/>
        <pt x="569" y="1468" on="1"/>
        <pt x="624" y="1468" on="0"/>
        <pt x="627" y="1465" on="1"/>
        <pt x="632" y="1456" on="0"/>
        <pt x="637" y="1357" on="0"/>
        <pt x="633" y="1332" on="1"/>
        <pt x="632" y="1329" on="0"/>
        <pt x="630" y="1315" on="0"/>
        <pt x="630" y="1313" on="1"/>
        <pt x="628" y="1301" on="0"/>
        <pt x="626" y="1299" on="1"/>
        <pt x="625" y="1298" on="0"/>
        <pt x="539" y="1298" on="1"/>
        <pt x="454" y="1298" on="1"/>
        <pt x="452" y="1306" on="1"/>
        <pt x="445" y="1332" on="0"/>
        <pt x="445" y="1440" on="0"/>
        <pt x="452" y="1460" on="1"/>
        <pt x="455" y="1468" on="1"/>
        <pt x="398" y="1468" on="1"/>
        <pt x="340" y="1469" on="1"/>
        <pt x="338" y="1477" on="1"/>
        <pt x="331" y="1503" on="0"/>
        <pt x="332" y="1614" on="0"/>
      </contour>
    </TTGlyph>
    <TTGlyph name="Eth" xMin="98" yMin="-68" xMax="814" yMax="1126">
      <contour>
        <pt x="111" y="1120" on="1"/>
        <pt x="114" y="1126" on="1"/>
        <pt x="370" y="1126" on="1"/>
        <pt x="625" y="1126" on="0"/>
        <pt x="627" y="1124" on="1"/>
        <pt x="633" y="1114" on="0"/>
        <pt x="637" y="1016" on="0"/>
        <pt x="633" y="988" on="1"/>
        <pt x="628" y="960" on="0"/>
        <pt x="627" y="958" on="1"/>
        <pt x="634" y="958" on="1"/>
        <pt x="641" y="957" on="0"/>
        <pt x="667" y="956" on="0"/>
        <pt x="682" y="956" on="1"/>
        <pt x="738" y="956" on="0"/>
        <pt x="741" y="953" on="1"/>
        <pt x="747" y="943" on="0"/>
        <pt x="751" y="846" on="0"/>
        <pt x="747" y="818" on="1"/>
        <pt x="742" y="789" on="0"/>
        <pt x="741" y="787" on="1"/>
        <pt x="739" y="785" on="0"/>
        <pt x="768" y="785" on="1"/>
        <pt x="796" y="785" on="0"/>
        <pt x="798" y="783" on="1"/>
        <pt x="799" y="782" on="0"/>
        <pt x="801" y="771" on="1"/>
        <pt x="814" y="702" on="0"/>
        <pt x="800" y="627" on="1"/>
        <pt x="798" y="614" on="0"/>
        <pt x="800" y="602" on="1"/>
        <pt x="805" y="576" on="0"/>
        <pt x="805" y="482" on="0"/>
        <pt x="800" y="457" on="1"/>
        <pt x="798" y="444" on="0"/>
        <pt x="800" y="431" on="1"/>
        <pt x="807" y="401" on="0"/>
        <pt x="805" y="286" on="0"/>
        <pt x="798" y="275" on="1"/>
        <pt x="796" y="273" on="0"/>
        <pt x="768" y="273" on="1"/>
        <pt x="740" y="273" on="1"/>
        <pt x="742" y="264" on="1"/>
        <pt x="749" y="239" on="0"/>
        <pt x="748" y="117" on="0"/>
        <pt x="741" y="105" on="1"/>
        <pt x="738" y="102" on="0"/>
        <pt x="682" y="102" on="1"/>
        <pt x="667" y="102" on="0"/>
        <pt x="641" y="101" on="0"/>
        <pt x="634" y="100" on="1"/>
        <pt x="627" y="100" on="1"/>
        <pt x="635" y="86" on="0"/>
        <pt x="634" y="-58" on="0"/>
        <pt x="626" y="-66" on="1"/>
        <pt x="624" y="-68" on="0"/>
        <pt x="368" y="-68" on="1"/>
        <pt x="113" y="-67" on="1"/>
        <pt x="111" y="-59" on="1"/>
        <pt x="98" y="-13" on="0"/>
        <pt x="106" y="64" on="1"/>
        <pt x="109" y="94" on="0"/>
        <pt x="117" y="102" on="0"/>
        <pt x="142" y="102" on="1"/>
        <pt x="170" y="102" on="1"/>
        <pt x="168" y="112" on="1"/>
        <pt x="161" y="139" on="0"/>
        <pt x="161" y="244" on="0"/>
        <pt x="168" y="265" on="1"/>
        <pt x="170" y="273" on="0"/>
        <pt x="168" y="282" on="1"/>
        <pt x="161" y="309" on="0"/>
        <pt x="161" y="415" on="0"/>
        <pt x="168" y="436" on="1"/>
        <pt x="170" y="443" on="1"/>
        <pt x="142" y="444" on="1"/>
        <pt x="113" y="445" on="1"/>
        <pt x="111" y="453" on="1"/>
        <pt x="98" y="499" on="0"/>
        <pt x="106" y="576" on="1"/>
        <pt x="109" y="606" on="0"/>
        <pt x="117" y="614" on="0"/>
        <pt x="142" y="614" on="1"/>
        <pt x="170" y="614" on="1"/>
        <pt x="168" y="624" on="1"/>
        <pt x="161" y="651" on="0"/>
        <pt x="161" y="756" on="0"/>
        <pt x="168" y="777" on="1"/>
        <pt x="170" y="785" on="0"/>
        <pt x="168" y="794" on="1"/>
        <pt x="161" y="821" on="0"/>
        <pt x="161" y="927" on="0"/>
        <pt x="168" y="948" on="1"/>
        <pt x="170" y="955" on="1"/>
        <pt x="142" y="956" on="1"/>
        <pt x="113" y="957" on="1"/>
        <pt x="111" y="965" on="1"/>
        <pt x="104" y="990" on="0"/>
        <pt x="104" y="1102" on="0"/>
      </contour>
      <contour>
        <pt x="566" y="948" on="1"/>
        <pt x="569" y="956" on="1"/>
        <pt x="455" y="956" on="1"/>
        <pt x="426" y="956" on="0"/>
        <pt x="371" y="955" on="0"/>
        <pt x="341" y="954" on="0"/>
        <pt x="342" y="953" on="1"/>
        <pt x="349" y="942" on="0"/>
        <pt x="351" y="827" on="0"/>
        <pt x="345" y="798" on="1"/>
        <pt x="343" y="785" on="0"/>
        <pt x="345" y="772" on="1"/>
        <pt x="352" y="742" on="0"/>
        <pt x="350" y="628" on="0"/>
        <pt x="342" y="617" on="1"/>
        <pt x="344" y="616" on="1"/>
        <pt x="347" y="616" on="0"/>
        <pt x="358" y="615" on="0"/>
        <pt x="371" y="614" on="0"/>
        <pt x="389" y="614" on="0"/>
        <pt x="398" y="614" on="1"/>
        <pt x="454" y="614" on="0"/>
        <pt x="456" y="612" on="1"/>
        <pt x="462" y="602" on="0"/>
        <pt x="466" y="504" on="0"/>
        <pt x="462" y="476" on="1"/>
        <pt x="457" y="448" on="0"/>
        <pt x="456" y="446" on="1"/>
        <pt x="454" y="444" on="0"/>
        <pt x="398" y="444" on="1"/>
        <pt x="342" y="444" on="1"/>
        <pt x="344" y="435" on="1"/>
        <pt x="351" y="411" on="0"/>
        <pt x="350" y="288" on="0"/>
        <pt x="343" y="276" on="1"/>
        <pt x="342" y="275" on="0"/>
        <pt x="343" y="268" on="0"/>
        <pt x="344" y="264" on="1"/>
        <pt x="351" y="239" on="0"/>
        <pt x="349" y="117" on="0"/>
        <pt x="342" y="105" on="1"/>
        <pt x="341" y="104" on="0"/>
        <pt x="371" y="103" on="0"/>
        <pt x="426" y="102" on="0"/>
        <pt x="455" y="102" on="1"/>
        <pt x="568" y="102" on="1"/>
        <pt x="566" y="112" on="1"/>
        <pt x="553" y="159" on="0"/>
        <pt x="561" y="234" on="1"/>
        <pt x="564" y="264" on="0"/>
        <pt x="572" y="273" on="0"/>
        <pt x="597" y="273" on="1"/>
        <pt x="625" y="273" on="1"/>
        <pt x="623" y="282" on="1"/>
        <pt x="616" y="309" on="0"/>
        <pt x="616" y="415" on="0"/>
        <pt x="623" y="436" on="1"/>
        <pt x="625" y="444" on="0"/>
        <pt x="623" y="453" on="1"/>
        <pt x="616" y="480" on="0"/>
        <pt x="616" y="585" on="0"/>
        <pt x="623" y="606" on="1"/>
        <pt x="625" y="614" on="0"/>
        <pt x="623" y="624" on="1"/>
        <pt x="616" y="651" on="0"/>
        <pt x="616" y="756" on="0"/>
        <pt x="623" y="777" on="1"/>
        <pt x="625" y="785" on="1"/>
        <pt x="597" y="786" on="1"/>
        <pt x="568" y="786" on="1"/>
        <pt x="566" y="794" on="1"/>
        <pt x="559" y="820" on="0"/>
        <pt x="559" y="927" on="0"/>
      </contour>
    </TTGlyph>
    <TTGlyph name="F" xMin="217" yMin="-68" xMax="751" yMax="1126">
      <contour>
        <pt x="225" y="1120" on="1"/>
        <pt x="228" y="1126" on="1"/>
        <pt x="483" y="1126" on="1"/>
        <pt x="739" y="1126" on="0"/>
        <pt x="741" y="1124" on="1"/>
        <pt x="747" y="1114" on="0"/>
        <pt x="751" y="1016" on="0"/>
        <pt x="747" y="988" on="1"/>
        <pt x="742" y="960" on="0"/>
        <pt x="741" y="958" on="1"/>
        <pt x="739" y="956" on="0"/>
        <pt x="569" y="956" on="1"/>
        <pt x="525" y="956" on="0"/>
        <pt x="443" y="955" on="0"/>
        <pt x="398" y="954" on="0"/>
        <pt x="399" y="953" on="1"/>
        <pt x="406" y="942" on="0"/>
        <pt x="408" y="827" on="0"/>
        <pt x="402" y="798" on="1"/>
        <pt x="400" y="785" on="0"/>
        <pt x="402" y="772" on="1"/>
        <pt x="409" y="742" on="0"/>
        <pt x="407" y="628" on="0"/>
        <pt x="399" y="617" on="1"/>
        <pt x="398" y="616" on="0"/>
        <pt x="443" y="615" on="0"/>
        <pt x="525" y="614" on="0"/>
        <pt x="569" y="614" on="1"/>
        <pt x="739" y="614" on="0"/>
        <pt x="741" y="612" on="1"/>
        <pt x="747" y="602" on="0"/>
        <pt x="751" y="504" on="0"/>
        <pt x="747" y="476" on="1"/>
        <pt x="742" y="448" on="0"/>
        <pt x="741" y="446" on="1"/>
        <pt x="739" y="444" on="0"/>
        <pt x="569" y="444" on="1"/>
        <pt x="399" y="444" on="1"/>
        <pt x="401" y="435" on="1"/>
        <pt x="408" y="411" on="0"/>
        <pt x="407" y="288" on="0"/>
        <pt x="400" y="276" on="1"/>
        <pt x="399" y="275" on="0"/>
        <pt x="400" y="268" on="0"/>
        <pt x="401" y="264" on="1"/>
        <pt x="408" y="240" on="0"/>
        <pt x="407" y="117" on="0"/>
        <pt x="400" y="105" on="1"/>
        <pt x="398" y="103" on="0"/>
        <pt x="401" y="94" on="1"/>
        <pt x="408" y="68" on="0"/>
        <pt x="407" y="-58" on="0"/>
        <pt x="399" y="-66" on="1"/>
        <pt x="397" y="-68" on="0"/>
        <pt x="311" y="-68" on="1"/>
        <pt x="226" y="-67" on="1"/>
        <pt x="224" y="-59" on="1"/>
        <pt x="217" y="-33" on="0"/>
        <pt x="218" y="74" on="0"/>
        <pt x="225" y="94" on="1"/>
        <pt x="227" y="102" on="0"/>
        <pt x="225" y="112" on="1"/>
        <pt x="218" y="139" on="0"/>
        <pt x="218" y="244" on="0"/>
        <pt x="225" y="265" on="1"/>
        <pt x="227" y="273" on="0"/>
        <pt x="225" y="282" on="1"/>
        <pt x="218" y="309" on="0"/>
        <pt x="218" y="415" on="0"/>
        <pt x="225" y="436" on="1"/>
        <pt x="227" y="444" on="0"/>
        <pt x="225" y="453" on="1"/>
        <pt x="218" y="480" on="0"/>
        <pt x="218" y="585" on="0"/>
        <pt x="225" y="606" on="1"/>
        <pt x="227" y="614" on="0"/>
        <pt x="225" y="624" on="1"/>
        <pt x="218" y="651" on="0"/>
        <pt x="218" y="756" on="0"/>
        <pt x="225" y="777" on="1"/>
        <pt x="227" y="785" on="0"/>
        <pt x="225" y="794" on="1"/>
        <pt x="218" y="821" on="0"/>
        <pt x="218" y="927" on="0"/>
        <pt x="225" y="948" on="1"/>
        <pt x="227" y="956" on="0"/>
        <pt x="225" y="965" on="1"/>
        <pt x="218" y="993" on="0"/>
        <pt x="218" y="1101" on="0"/>
      </contour>
    </TTGlyph>
    <TTGlyph name="G" xMin="98" yMin="-68" xMax="814" yMax="1126">
      <contour>
        <pt x="282" y="1120" on="1"/>
        <pt x="284" y="1126" on="1"/>
        <pt x="483" y="1126" on="1"/>
        <pt x="682" y="1126" on="0"/>
        <pt x="684" y="1124" on="1"/>
        <pt x="690" y="1114" on="0"/>
        <pt x="694" y="1016" on="0"/>
        <pt x="690" y="988" on="1"/>
        <pt x="685" y="960" on="0"/>
        <pt x="684" y="958" on="1"/>
        <pt x="691" y="958" on="1"/>
        <pt x="698" y="957" on="0"/>
        <pt x="724" y="956" on="0"/>
        <pt x="739" y="956" on="1"/>
        <pt x="795" y="956" on="0"/>
        <pt x="798" y="953" on="1"/>
        <pt x="804" y="943" on="0"/>
        <pt x="808" y="846" on="0"/>
        <pt x="804" y="818" on="1"/>
        <pt x="799" y="789" on="0"/>
        <pt x="797" y="787" on="1"/>
        <pt x="796" y="786" on="0"/>
        <pt x="710" y="786" on="1"/>
        <pt x="625" y="786" on="1"/>
        <pt x="623" y="794" on="1"/>
        <pt x="616" y="820" on="0"/>
        <pt x="616" y="928" on="0"/>
        <pt x="623" y="948" on="1"/>
        <pt x="625" y="956" on="1"/>
        <pt x="483" y="956" on="1"/>
        <pt x="447" y="956" on="0"/>
        <pt x="378" y="955" on="0"/>
        <pt x="341" y="954" on="0"/>
        <pt x="342" y="953" on="1"/>
        <pt x="351" y="937" on="0"/>
        <pt x="351" y="872" on="1"/>
        <pt x="351" y="803" on="0"/>
        <pt x="342" y="787" on="1"/>
        <pt x="340" y="785" on="0"/>
        <pt x="313" y="785" on="1"/>
        <pt x="284" y="785" on="0"/>
        <pt x="286" y="783" on="1"/>
        <pt x="293" y="772" on="0"/>
        <pt x="294" y="656" on="0"/>
        <pt x="288" y="627" on="1"/>
        <pt x="286" y="614" on="0"/>
        <pt x="288" y="602" on="1"/>
        <pt x="293" y="576" on="0"/>
        <pt x="293" y="482" on="0"/>
        <pt x="288" y="457" on="1"/>
        <pt x="286" y="444" on="0"/>
        <pt x="288" y="431" on="1"/>
        <pt x="295" y="401" on="0"/>
        <pt x="293" y="286" on="0"/>
        <pt x="286" y="275" on="1"/>
        <pt x="284" y="273" on="0"/>
        <pt x="313" y="273" on="1"/>
        <pt x="340" y="273" on="0"/>
        <pt x="342" y="271" on="1"/>
        <pt x="348" y="261" on="0"/>
        <pt x="352" y="164" on="0"/>
        <pt x="348" y="135" on="1"/>
        <pt x="344" y="108" on="0"/>
        <pt x="342" y="105" on="1"/>
        <pt x="341" y="104" on="0"/>
        <pt x="378" y="103" on="0"/>
        <pt x="447" y="102" on="0"/>
        <pt x="483" y="102" on="1"/>
        <pt x="625" y="102" on="1"/>
        <pt x="623" y="112" on="1"/>
        <pt x="616" y="139" on="0"/>
        <pt x="616" y="244" on="0"/>
        <pt x="623" y="265" on="1"/>
        <pt x="625" y="273" on="0"/>
        <pt x="623" y="282" on="1"/>
        <pt x="616" y="309" on="0"/>
        <pt x="616" y="415" on="0"/>
        <pt x="623" y="436" on="1"/>
        <pt x="625" y="444" on="1"/>
        <pt x="568" y="444" on="1"/>
        <pt x="511" y="445" on="1"/>
        <pt x="509" y="453" on="1"/>
        <pt x="502" y="478" on="0"/>
        <pt x="502" y="590" on="0"/>
        <pt x="509" y="608" on="1"/>
        <pt x="512" y="614" on="1"/>
        <pt x="654" y="614" on="1"/>
        <pt x="796" y="614" on="0"/>
        <pt x="798" y="612" on="1"/>
        <pt x="799" y="611" on="0"/>
        <pt x="801" y="600" on="1"/>
        <pt x="814" y="531" on="0"/>
        <pt x="800" y="457" on="1"/>
        <pt x="798" y="443" on="0"/>
        <pt x="800" y="431" on="1"/>
        <pt x="805" y="405" on="0"/>
        <pt x="805" y="312" on="0"/>
        <pt x="800" y="286" on="1"/>
        <pt x="798" y="273" on="0"/>
        <pt x="800" y="260" on="1"/>
        <pt x="807" y="230" on="0"/>
        <pt x="805" y="116" on="0"/>
        <pt x="798" y="105" on="1"/>
        <pt x="795" y="102" on="0"/>
        <pt x="739" y="102" on="1"/>
        <pt x="724" y="102" on="0"/>
        <pt x="698" y="101" on="0"/>
        <pt x="691" y="100" on="1"/>
        <pt x="684" y="100" on="1"/>
        <pt x="692" y="86" on="0"/>
        <pt x="691" y="-58" on="0"/>
        <pt x="683" y="-66" on="1"/>
        <pt x="681" y="-68" on="0"/>
        <pt x="482" y="-68" on="1"/>
        <pt x="283" y="-67" on="1"/>
        <pt x="281" y="-59" on="1"/>
        <pt x="274" y="-33" on="0"/>
        <pt x="275" y="75" on="0"/>
        <pt x="282" y="95" on="1"/>
        <pt x="284" y="102" on="1"/>
        <pt x="227" y="103" on="1"/>
        <pt x="170" y="104" on="1"/>
        <pt x="167" y="112" on="1"/>
        <pt x="160" y="138" on="0"/>
        <pt x="161" y="245" on="0"/>
        <pt x="168" y="265" on="1"/>
        <pt x="170" y="273" on="1"/>
        <pt x="142" y="274" on="1"/>
        <pt x="113" y="274" on="1"/>
        <pt x="111" y="282" on="1"/>
        <pt x="104" y="308" on="0"/>
        <pt x="104" y="416" on="0"/>
        <pt x="111" y="436" on="1"/>
        <pt x="113" y="444" on="0"/>
        <pt x="111" y="453" on="1"/>
        <pt x="104" y="480" on="0"/>
        <pt x="104" y="585" on="0"/>
        <pt x="111" y="606" on="1"/>
        <pt x="113" y="614" on="0"/>
        <pt x="111" y="624" on="1"/>
        <pt x="98" y="671" on="0"/>
        <pt x="106" y="746" on="1"/>
        <pt x="109" y="776" on="0"/>
        <pt x="117" y="785" on="0"/>
        <pt x="142" y="785" on="1"/>
        <pt x="170" y="785" on="1"/>
        <pt x="168" y="794" on="1"/>
        <pt x="161" y="822" on="0"/>
        <pt x="161" y="930" on="0"/>
        <pt x="168" y="949" on="1"/>
        <pt x="171" y="956" on="1"/>
        <pt x="227" y="956" on="1"/>
        <pt x="284" y="956" on="1"/>
        <pt x="281" y="965" on="1"/>
        <pt x="274" y="992" on="0"/>
        <pt x="275" y="1101" on="0"/>
      </contour>
    </TTGlyph>
    <TTGlyph name="H" xMin="104" yMin="-68" xMax="814" yMax="1126">
      <contour>
        <pt x="111" y="1120" on="1"/>
        <pt x="114" y="1126" on="1"/>
        <pt x="199" y="1126" on="1"/>
        <pt x="284" y="1126" on="0"/>
        <pt x="286" y="1124" on="1"/>
        <pt x="287" y="1123" on="0"/>
        <pt x="289" y="1112" on="1"/>
        <pt x="302" y="1043" on="0"/>
        <pt x="288" y="969" on="1"/>
        <pt x="286" y="955" on="0"/>
        <pt x="288" y="943" on="1"/>
        <pt x="293" y="917" on="0"/>
        <pt x="293" y="824" on="0"/>
        <pt x="288" y="798" on="1"/>
        <pt x="286" y="785" on="0"/>
        <pt x="288" y="772" on="1"/>
        <pt x="295" y="742" on="0"/>
        <pt x="293" y="628" on="0"/>
        <pt x="286" y="617" on="1"/>
        <pt x="285" y="616" on="0"/>
        <pt x="329" y="615" on="0"/>
        <pt x="411" y="614" on="0"/>
        <pt x="455" y="614" on="1"/>
        <pt x="625" y="614" on="1"/>
        <pt x="623" y="624" on="1"/>
        <pt x="616" y="651" on="0"/>
        <pt x="616" y="756" on="0"/>
        <pt x="623" y="777" on="1"/>
        <pt x="625" y="785" on="0"/>
        <pt x="623" y="794" on="1"/>
        <pt x="616" y="821" on="0"/>
        <pt x="616" y="927" on="0"/>
        <pt x="623" y="948" on="1"/>
        <pt x="625" y="956" on="0"/>
        <pt x="623" y="965" on="1"/>
        <pt x="616" y="993" on="0"/>
        <pt x="616" y="1101" on="0"/>
        <pt x="623" y="1120" on="1"/>
        <pt x="626" y="1126" on="1"/>
        <pt x="711" y="1126" on="1"/>
        <pt x="796" y="1126" on="0"/>
        <pt x="798" y="1124" on="1"/>
        <pt x="799" y="1123" on="0"/>
        <pt x="801" y="1112" on="1"/>
        <pt x="814" y="1043" on="0"/>
        <pt x="800" y="969" on="1"/>
        <pt x="798" y="955" on="0"/>
        <pt x="800" y="943" on="1"/>
        <pt x="805" y="917" on="0"/>
        <pt x="805" y="824" on="0"/>
        <pt x="800" y="798" on="1"/>
        <pt x="798" y="785" on="0"/>
        <pt x="800" y="772" on="1"/>
        <pt x="805" y="746" on="0"/>
        <pt x="805" y="652" on="0"/>
        <pt x="800" y="627" on="1"/>
        <pt x="798" y="614" on="0"/>
        <pt x="800" y="602" on="1"/>
        <pt x="806" y="573" on="0"/>
        <pt x="805" y="458" on="0"/>
        <pt x="798" y="447" on="1"/>
        <pt x="797" y="446" on="0"/>
        <pt x="798" y="439" on="0"/>
        <pt x="799" y="435" on="1"/>
        <pt x="806" y="411" on="0"/>
        <pt x="805" y="288" on="0"/>
        <pt x="798" y="276" on="1"/>
        <pt x="797" y="275" on="0"/>
        <pt x="798" y="268" on="0"/>
        <pt x="799" y="264" on="1"/>
        <pt x="806" y="240" on="0"/>
        <pt x="805" y="117" on="0"/>
        <pt x="798" y="105" on="1"/>
        <pt x="796" y="103" on="0"/>
        <pt x="799" y="94" on="1"/>
        <pt x="806" y="68" on="0"/>
        <pt x="805" y="-58" on="0"/>
        <pt x="797" y="-66" on="1"/>
        <pt x="795" y="-68" on="0"/>
        <pt x="710" y="-68" on="1"/>
        <pt x="625" y="-67" on="1"/>
        <pt x="623" y="-59" on="1"/>
        <pt x="616" y="-34" on="0"/>
        <pt x="616" y="74" on="0"/>
        <pt x="623" y="94" on="1"/>
        <pt x="625" y="102" on="0"/>
        <pt x="623" y="112" on="1"/>
        <pt x="616" y="139" on="0"/>
        <pt x="616" y="244" on="0"/>
        <pt x="623" y="265" on="1"/>
        <pt x="625" y="273" on="0"/>
        <pt x="623" y="282" on="1"/>
        <pt x="616" y="309" on="0"/>
        <pt x="616" y="415" on="0"/>
        <pt x="623" y="436" on="1"/>
        <pt x="625" y="444" on="1"/>
        <pt x="455" y="444" on="1"/>
        <pt x="285" y="444" on="1"/>
        <pt x="287" y="435" on="1"/>
        <pt x="294" y="411" on="0"/>
        <pt x="293" y="288" on="0"/>
        <pt x="286" y="276" on="1"/>
        <pt x="285" y="275" on="0"/>
        <pt x="286" y="268" on="0"/>
        <pt x="287" y="264" on="1"/>
        <pt x="294" y="240" on="0"/>
        <pt x="293" y="117" on="0"/>
        <pt x="286" y="105" on="1"/>
        <pt x="284" y="103" on="0"/>
        <pt x="287" y="94" on="1"/>
        <pt x="294" y="68" on="0"/>
        <pt x="293" y="-58" on="0"/>
        <pt x="285" y="-66" on="1"/>
        <pt x="283" y="-68" on="0"/>
        <pt x="198" y="-68" on="1"/>
        <pt x="113" y="-67" on="1"/>
        <pt x="111" y="-59" on="1"/>
        <pt x="104" y="-34" on="0"/>
        <pt x="104" y="74" on="0"/>
        <pt x="111" y="94" on="1"/>
        <pt x="113" y="102" on="0"/>
        <pt x="111" y="112" on="1"/>
        <pt x="104" y="139" on="0"/>
        <pt x="104" y="244" on="0"/>
        <pt x="111" y="265" on="1"/>
        <pt x="113" y="273" on="0"/>
        <pt x="111" y="282" on="1"/>
        <pt x="104" y="309" on="0"/>
        <pt x="104" y="415" on="0"/>
        <pt x="111" y="436" on="1"/>
        <pt x="113" y="444" on="0"/>
        <pt x="111" y="453" on="1"/>
        <pt x="104" y="480" on="0"/>
        <pt x="104" y="585" on="0"/>
        <pt x="111" y="606" on="1"/>
        <pt x="113" y="614" on="0"/>
        <pt x="111" y="624" on="1"/>
        <pt x="104" y="651" on="0"/>
        <pt x="104" y="756" on="0"/>
        <pt x="111" y="777" on="1"/>
        <pt x="113" y="785" on="0"/>
        <pt x="111" y="794" on="1"/>
        <pt x="104" y="821" on="0"/>
        <pt x="104" y="927" on="0"/>
        <pt x="111" y="948" on="1"/>
        <pt x="113" y="956" on="0"/>
        <pt x="111" y="965" on="1"/>
        <pt x="104" y="993" on="0"/>
        <pt x="104" y="1101" on="0"/>
      </contour>
    </TTGlyph>
    <TTGlyph name="I" xMin="274" yMin="-68" xMax="694" yMax="1126">
      <contour>
        <pt x="282" y="1120" on="1"/>
        <pt x="284" y="1126" on="1"/>
        <pt x="483" y="1126" on="1"/>
        <pt x="682" y="1126" on="0"/>
        <pt x="684" y="1124" on="1"/>
        <pt x="690" y="1114" on="0"/>
        <pt x="694" y="1016" on="0"/>
        <pt x="690" y="988" on="1"/>
        <pt x="685" y="960" on="0"/>
        <pt x="684" y="958" on="1"/>
        <pt x="682" y="956" on="0"/>
        <pt x="625" y="956" on="1"/>
        <pt x="619" y="956" on="0"/>
        <pt x="606" y="956" on="0"/>
        <pt x="595" y="955" on="0"/>
        <pt x="585" y="955" on="0"/>
        <pt x="578" y="954" on="0"/>
        <pt x="572" y="954" on="0"/>
        <pt x="571" y="954" on="1"/>
        <pt x="570" y="953" on="1"/>
        <pt x="577" y="942" on="0"/>
        <pt x="579" y="827" on="0"/>
        <pt x="573" y="798" on="1"/>
        <pt x="571" y="785" on="0"/>
        <pt x="573" y="772" on="1"/>
        <pt x="579" y="743" on="0"/>
        <pt x="577" y="628" on="0"/>
        <pt x="570" y="617" on="1"/>
        <pt x="568" y="615" on="0"/>
        <pt x="572" y="606" on="1"/>
        <pt x="579" y="582" on="0"/>
        <pt x="577" y="459" on="0"/>
        <pt x="570" y="447" on="1"/>
        <pt x="568" y="445" on="0"/>
        <pt x="572" y="435" on="1"/>
        <pt x="579" y="411" on="0"/>
        <pt x="577" y="288" on="0"/>
        <pt x="570" y="276" on="1"/>
        <pt x="568" y="274" on="0"/>
        <pt x="572" y="264" on="1"/>
        <pt x="579" y="239" on="0"/>
        <pt x="577" y="117" on="0"/>
        <pt x="570" y="105" on="1"/>
        <pt x="572" y="104" on="1"/>
        <pt x="575" y="104" on="0"/>
        <pt x="585" y="103" on="0"/>
        <pt x="599" y="102" on="0"/>
        <pt x="616" y="102" on="0"/>
        <pt x="625" y="102" on="1"/>
        <pt x="682" y="102" on="0"/>
        <pt x="684" y="100" on="1"/>
        <pt x="690" y="90" on="0"/>
        <pt x="694" y="-8" on="0"/>
        <pt x="690" y="-36" on="1"/>
        <pt x="685" y="-64" on="0"/>
        <pt x="681" y="-68" on="0"/>
        <pt x="482" y="-68" on="1"/>
        <pt x="283" y="-67" on="1"/>
        <pt x="281" y="-59" on="1"/>
        <pt x="274" y="-33" on="0"/>
        <pt x="275" y="78" on="0"/>
        <pt x="282" y="96" on="1"/>
        <pt x="284" y="102" on="1"/>
        <pt x="341" y="102" on="1"/>
        <pt x="398" y="102" on="1"/>
        <pt x="395" y="112" on="1"/>
        <pt x="388" y="139" on="0"/>
        <pt x="388" y="244" on="0"/>
        <pt x="395" y="265" on="1"/>
        <pt x="397" y="273" on="0"/>
        <pt x="395" y="282" on="1"/>
        <pt x="388" y="309" on="0"/>
        <pt x="388" y="415" on="0"/>
        <pt x="395" y="436" on="1"/>
        <pt x="397" y="444" on="0"/>
        <pt x="395" y="453" on="1"/>
        <pt x="388" y="480" on="0"/>
        <pt x="388" y="585" on="0"/>
        <pt x="395" y="606" on="1"/>
        <pt x="397" y="614" on="0"/>
        <pt x="395" y="624" on="1"/>
        <pt x="388" y="651" on="0"/>
        <pt x="388" y="756" on="0"/>
        <pt x="395" y="777" on="1"/>
        <pt x="397" y="785" on="0"/>
        <pt x="395" y="794" on="1"/>
        <pt x="388" y="821" on="0"/>
        <pt x="388" y="927" on="0"/>
        <pt x="395" y="948" on="1"/>
        <pt x="398" y="956" on="1"/>
        <pt x="341" y="956" on="1"/>
        <pt x="283" y="957" on="1"/>
        <pt x="281" y="965" on="1"/>
        <pt x="274" y="991" on="0"/>
        <pt x="275" y="1102" on="0"/>
      </contour>
    </TTGlyph>
    <TTGlyph name="Iacute" xMin="274" yMin="-68" xMax="694" yMax="1638">
      <contour>
        <pt x="282" y="1120" on="1"/>
        <pt x="284" y="1126" on="1"/>
        <pt x="483" y="1126" on="1"/>
        <pt x="682" y="1126" on="0"/>
        <pt x="684" y="1124" on="1"/>
        <pt x="690" y="1114" on="0"/>
        <pt x="694" y="1016" on="0"/>
        <pt x="690" y="988" on="1"/>
        <pt x="685" y="960" on="0"/>
        <pt x="684" y="958" on="1"/>
        <pt x="682" y="956" on="0"/>
        <pt x="625" y="956" on="1"/>
        <pt x="619" y="956" on="0"/>
        <pt x="606" y="956" on="0"/>
        <pt x="595" y="955" on="0"/>
        <pt x="585" y="955" on="0"/>
        <pt x="578" y="954" on="0"/>
        <pt x="572" y="954" on="0"/>
        <pt x="571" y="954" on="1"/>
        <pt x="570" y="953" on="1"/>
        <pt x="577" y="942" on="0"/>
        <pt x="579" y="827" on="0"/>
        <pt x="573" y="798" on="1"/>
        <pt x="571" y="785" on="0"/>
        <pt x="573" y="772" on="1"/>
        <pt x="579" y="743" on="0"/>
        <pt x="577" y="628" on="0"/>
        <pt x="570" y="617" on="1"/>
        <pt x="568" y="615" on="0"/>
        <pt x="572" y="606" on="1"/>
        <pt x="579" y="582" on="0"/>
        <pt x="577" y="459" on="0"/>
        <pt x="570" y="447" on="1"/>
        <pt x="568" y="445" on="0"/>
        <pt x="572" y="435" on="1"/>
        <pt x="579" y="411" on="0"/>
        <pt x="577" y="288" on="0"/>
        <pt x="570" y="276" on="1"/>
        <pt x="568" y="274" on="0"/>
        <pt x="572" y="264" on="1"/>
        <pt x="579" y="239" on="0"/>
        <pt x="577" y="117" on="0"/>
        <pt x="570" y="105" on="1"/>
        <pt x="572" y="104" on="1"/>
        <pt x="575" y="104" on="0"/>
        <pt x="585" y="103" on="0"/>
        <pt x="599" y="102" on="0"/>
        <pt x="616" y="102" on="0"/>
        <pt x="625" y="102" on="1"/>
        <pt x="682" y="102" on="0"/>
        <pt x="684" y="100" on="1"/>
        <pt x="690" y="90" on="0"/>
        <pt x="694" y="-8" on="0"/>
        <pt x="690" y="-36" on="1"/>
        <pt x="685" y="-64" on="0"/>
        <pt x="681" y="-68" on="0"/>
        <pt x="482" y="-68" on="1"/>
        <pt x="283" y="-67" on="1"/>
        <pt x="281" y="-59" on="1"/>
        <pt x="274" y="-33" on="0"/>
        <pt x="275" y="78" on="0"/>
        <pt x="282" y="96" on="1"/>
        <pt x="284" y="102" on="1"/>
        <pt x="341" y="102" on="1"/>
        <pt x="398" y="102" on="1"/>
        <pt x="395" y="112" on="1"/>
        <pt x="388" y="139" on="0"/>
        <pt x="388" y="244" on="0"/>
        <pt x="395" y="265" on="1"/>
        <pt x="397" y="273" on="0"/>
        <pt x="395" y="282" on="1"/>
        <pt x="388" y="309" on="0"/>
        <pt x="388" y="415" on="0"/>
        <pt x="395" y="436" on="1"/>
        <pt x="397" y="444" on="0"/>
        <pt x="395" y="453" on="1"/>
        <pt x="388" y="480" on="0"/>
        <pt x="388" y="585" on="0"/>
        <pt x="395" y="606" on="1"/>
        <pt x="397" y="614" on="0"/>
        <pt x="395" y="624" on="1"/>
        <pt x="388" y="651" on="0"/>
        <pt x="388" y="756" on="0"/>
        <pt x="395" y="777" on="1"/>
        <pt x="397" y="785" on="0"/>
        <pt x="395" y="794" on="1"/>
        <pt x="388" y="821" on="0"/>
        <pt x="388" y="927" on="0"/>
        <pt x="395" y="948" on="1"/>
        <pt x="398" y="956" on="1"/>
        <pt x="341" y="956" on="1"/>
        <pt x="283" y="957" on="1"/>
        <pt x="281" y="965" on="1"/>
        <pt x="274" y="991" on="0"/>
        <pt x="275" y="1102" on="0"/>
      </contour>
      <contour>
        <pt x="509" y="1632" on="1"/>
        <pt x="512" y="1638" on="1"/>
        <pt x="597" y="1638" on="1"/>
        <pt x="682" y="1638" on="0"/>
        <pt x="684" y="1636" on="1"/>
        <pt x="689" y="1627" on="0"/>
        <pt x="694" y="1528" on="0"/>
        <pt x="690" y="1503" on="1"/>
        <pt x="689" y="1501" on="0"/>
        <pt x="687" y="1486" on="0"/>
        <pt x="687" y="1484" on="1"/>
        <pt x="685" y="1471" on="0"/>
        <pt x="684" y="1470" on="1"/>
        <pt x="682" y="1468" on="0"/>
        <pt x="625" y="1468" on="1"/>
        <pt x="619" y="1468" on="0"/>
        <pt x="606" y="1468" on="0"/>
        <pt x="595" y="1467" on="0"/>
        <pt x="585" y="1467" on="0"/>
        <pt x="578" y="1466" on="0"/>
        <pt x="572" y="1466" on="0"/>
        <pt x="571" y="1466" on="1"/>
        <pt x="570" y="1465" on="1"/>
        <pt x="578" y="1451" on="0"/>
        <pt x="577" y="1307" on="0"/>
        <pt x="569" y="1299" on="1"/>
        <pt x="568" y="1298" on="0"/>
        <pt x="482" y="1298" on="1"/>
        <pt x="397" y="1298" on="1"/>
        <pt x="395" y="1306" on="1"/>
        <pt x="388" y="1332" on="0"/>
        <pt x="389" y="1443" on="0"/>
        <pt x="396" y="1461" on="1"/>
        <pt x="398" y="1468" on="1"/>
        <pt x="455" y="1468" on="1"/>
        <pt x="511" y="1468" on="1"/>
        <pt x="509" y="1477" on="1"/>
        <pt x="502" y="1505" on="0"/>
        <pt x="502" y="1613" on="0"/>
      </contour>
    </TTGlyph>
    <TTGlyph name="Icircumflex" xMin="269" yMin="-68" xMax="694" yMax="1638">
      <contour>
        <pt x="282" y="1120" on="1"/>
        <pt x="284" y="1126" on="1"/>
        <pt x="483" y="1126" on="1"/>
        <pt x="682" y="1126" on="0"/>
        <pt x="684" y="1124" on="1"/>
        <pt x="690" y="1114" on="0"/>
        <pt x="694" y="1016" on="0"/>
        <pt x="690" y="988" on="1"/>
        <pt x="685" y="960" on="0"/>
        <pt x="684" y="958" on="1"/>
        <pt x="682" y="956" on="0"/>
        <pt x="625" y="956" on="1"/>
        <pt x="619" y="956" on="0"/>
        <pt x="606" y="956" on="0"/>
        <pt x="595" y="955" on="0"/>
        <pt x="585" y="955" on="0"/>
        <pt x="578" y="954" on="0"/>
        <pt x="572" y="954" on="0"/>
        <pt x="571" y="954" on="1"/>
        <pt x="570" y="953" on="1"/>
        <pt x="577" y="942" on="0"/>
        <pt x="579" y="827" on="0"/>
        <pt x="573" y="798" on="1"/>
        <pt x="571" y="785" on="0"/>
        <pt x="573" y="772" on="1"/>
        <pt x="579" y="743" on="0"/>
        <pt x="577" y="628" on="0"/>
        <pt x="570" y="617" on="1"/>
        <pt x="568" y="615" on="0"/>
        <pt x="572" y="606" on="1"/>
        <pt x="579" y="582" on="0"/>
        <pt x="577" y="459" on="0"/>
        <pt x="570" y="447" on="1"/>
        <pt x="568" y="445" on="0"/>
        <pt x="572" y="435" on="1"/>
        <pt x="579" y="411" on="0"/>
        <pt x="577" y="288" on="0"/>
        <pt x="570" y="276" on="1"/>
        <pt x="568" y="274" on="0"/>
        <pt x="572" y="264" on="1"/>
        <pt x="579" y="239" on="0"/>
        <pt x="577" y="117" on="0"/>
        <pt x="570" y="105" on="1"/>
        <pt x="572" y="104" on="1"/>
        <pt x="575" y="104" on="0"/>
        <pt x="585" y="103" on="0"/>
        <pt x="599" y="102" on="0"/>
        <pt x="616" y="102" on="0"/>
        <pt x="625" y="102" on="1"/>
        <pt x="682" y="102" on="0"/>
        <pt x="684" y="100" on="1"/>
        <pt x="690" y="90" on="0"/>
        <pt x="694" y="-8" on="0"/>
        <pt x="690" y="-36" on="1"/>
        <pt x="685" y="-64" on="0"/>
        <pt x="681" y="-68" on="0"/>
        <pt x="482" y="-68" on="1"/>
        <pt x="283" y="-67" on="1"/>
        <pt x="281" y="-59" on="1"/>
        <pt x="274" y="-33" on="0"/>
        <pt x="275" y="78" on="0"/>
        <pt x="282" y="96" on="1"/>
        <pt x="284" y="102" on="1"/>
        <pt x="341" y="102" on="1"/>
        <pt x="398" y="102" on="1"/>
        <pt x="395" y="112" on="1"/>
        <pt x="388" y="139" on="0"/>
        <pt x="388" y="244" on="0"/>
        <pt x="395" y="265" on="1"/>
        <pt x="397" y="273" on="0"/>
        <pt x="395" y="282" on="1"/>
        <pt x="388" y="309" on="0"/>
        <pt x="388" y="415" on="0"/>
        <pt x="395" y="436" on="1"/>
        <pt x="397" y="444" on="0"/>
        <pt x="395" y="453" on="1"/>
        <pt x="388" y="480" on="0"/>
        <pt x="388" y="585" on="0"/>
        <pt x="395" y="606" on="1"/>
        <pt x="397" y="614" on="0"/>
        <pt x="395" y="624" on="1"/>
        <pt x="388" y="651" on="0"/>
        <pt x="388" y="756" on="0"/>
        <pt x="395" y="777" on="1"/>
        <pt x="397" y="785" on="0"/>
        <pt x="395" y="794" on="1"/>
        <pt x="388" y="821" on="0"/>
        <pt x="388" y="927" on="0"/>
        <pt x="395" y="948" on="1"/>
        <pt x="398" y="956" on="1"/>
        <pt x="341" y="956" on="1"/>
        <pt x="283" y="957" on="1"/>
        <pt x="281" y="965" on="1"/>
        <pt x="274" y="991" on="0"/>
        <pt x="275" y="1102" on="0"/>
      </contour>
      <contour>
        <pt x="339" y="1632" on="1"/>
        <pt x="341" y="1638" on="1"/>
        <pt x="483" y="1638" on="1"/>
        <pt x="625" y="1638" on="0"/>
        <pt x="627" y="1636" on="1"/>
        <pt x="632" y="1627" on="0"/>
        <pt x="637" y="1528" on="0"/>
        <pt x="633" y="1503" on="1"/>
        <pt x="632" y="1501" on="0"/>
        <pt x="630" y="1486" on="0"/>
        <pt x="630" y="1484" on="1"/>
        <pt x="628" y="1471" on="0"/>
        <pt x="627" y="1470" on="1"/>
        <pt x="625" y="1468" on="0"/>
        <pt x="654" y="1468" on="1"/>
        <pt x="681" y="1468" on="0"/>
        <pt x="684" y="1465" on="1"/>
        <pt x="689" y="1456" on="0"/>
        <pt x="694" y="1357" on="0"/>
        <pt x="690" y="1332" on="1"/>
        <pt x="689" y="1329" on="0"/>
        <pt x="687" y="1315" on="0"/>
        <pt x="687" y="1313" on="1"/>
        <pt x="685" y="1301" on="0"/>
        <pt x="683" y="1299" on="1"/>
        <pt x="682" y="1298" on="0"/>
        <pt x="624" y="1298" on="1"/>
        <pt x="568" y="1298" on="1"/>
        <pt x="566" y="1306" on="1"/>
        <pt x="559" y="1332" on="0"/>
        <pt x="559" y="1440" on="0"/>
        <pt x="566" y="1460" on="1"/>
        <pt x="569" y="1468" on="1"/>
        <pt x="483" y="1468" on="1"/>
        <pt x="470" y="1468" on="0"/>
        <pt x="443" y="1468" on="0"/>
        <pt x="423" y="1467" on="0"/>
        <pt x="407" y="1466" on="0"/>
        <pt x="403" y="1466" on="1"/>
        <pt x="399" y="1465" on="1"/>
        <pt x="407" y="1452" on="0"/>
        <pt x="407" y="1307" on="0"/>
        <pt x="399" y="1299" on="1"/>
        <pt x="398" y="1298" on="0"/>
        <pt x="340" y="1298" on="1"/>
        <pt x="283" y="1298" on="1"/>
        <pt x="281" y="1306" on="1"/>
        <pt x="269" y="1349" on="0"/>
        <pt x="277" y="1429" on="1"/>
        <pt x="280" y="1459" on="0"/>
        <pt x="288" y="1468" on="0"/>
        <pt x="313" y="1468" on="1"/>
        <pt x="341" y="1468" on="1"/>
        <pt x="338" y="1477" on="1"/>
        <pt x="331" y="1504" on="0"/>
        <pt x="332" y="1613" on="0"/>
      </contour>
    </TTGlyph>
    <TTGlyph name="Idieresis" xMin="217" yMin="-68" xMax="751" yMax="1468">
      <contour>
        <pt x="282" y="1120" on="1"/>
        <pt x="284" y="1126" on="1"/>
        <pt x="483" y="1126" on="1"/>
        <pt x="682" y="1126" on="0"/>
        <pt x="684" y="1124" on="1"/>
        <pt x="690" y="1114" on="0"/>
        <pt x="694" y="1016" on="0"/>
        <pt x="690" y="988" on="1"/>
        <pt x="685" y="960" on="0"/>
        <pt x="684" y="958" on="1"/>
        <pt x="682" y="956" on="0"/>
        <pt x="625" y="956" on="1"/>
        <pt x="619" y="956" on="0"/>
        <pt x="606" y="956" on="0"/>
        <pt x="595" y="955" on="0"/>
        <pt x="585" y="955" on="0"/>
        <pt x="578" y="954" on="0"/>
        <pt x="572" y="954" on="0"/>
        <pt x="571" y="954" on="1"/>
        <pt x="570" y="953" on="1"/>
        <pt x="577" y="942" on="0"/>
        <pt x="579" y="827" on="0"/>
        <pt x="573" y="798" on="1"/>
        <pt x="571" y="785" on="0"/>
        <pt x="573" y="772" on="1"/>
        <pt x="579" y="743" on="0"/>
        <pt x="577" y="628" on="0"/>
        <pt x="570" y="617" on="1"/>
        <pt x="568" y="615" on="0"/>
        <pt x="572" y="606" on="1"/>
        <pt x="579" y="582" on="0"/>
        <pt x="577" y="459" on="0"/>
        <pt x="570" y="447" on="1"/>
        <pt x="568" y="445" on="0"/>
        <pt x="572" y="435" on="1"/>
        <pt x="579" y="411" on="0"/>
        <pt x="577" y="288" on="0"/>
        <pt x="570" y="276" on="1"/>
        <pt x="568" y="274" on="0"/>
        <pt x="572" y="264" on="1"/>
        <pt x="579" y="239" on="0"/>
        <pt x="577" y="117" on="0"/>
        <pt x="570" y="105" on="1"/>
        <pt x="572" y="104" on="1"/>
        <pt x="575" y="104" on="0"/>
        <pt x="585" y="103" on="0"/>
        <pt x="599" y="102" on="0"/>
        <pt x="616" y="102" on="0"/>
        <pt x="625" y="102" on="1"/>
        <pt x="682" y="102" on="0"/>
        <pt x="684" y="100" on="1"/>
        <pt x="690" y="90" on="0"/>
        <pt x="694" y="-8" on="0"/>
        <pt x="690" y="-36" on="1"/>
        <pt x="685" y="-64" on="0"/>
        <pt x="681" y="-68" on="0"/>
        <pt x="482" y="-68" on="1"/>
        <pt x="283" y="-67" on="1"/>
        <pt x="281" y="-59" on="1"/>
        <pt x="274" y="-33" on="0"/>
        <pt x="275" y="78" on="0"/>
        <pt x="282" y="96" on="1"/>
        <pt x="284" y="102" on="1"/>
        <pt x="341" y="102" on="1"/>
        <pt x="398" y="102" on="1"/>
        <pt x="395" y="112" on="1"/>
        <pt x="388" y="139" on="0"/>
        <pt x="388" y="244" on="0"/>
        <pt x="395" y="265" on="1"/>
        <pt x="397" y="273" on="0"/>
        <pt x="395" y="282" on="1"/>
        <pt x="388" y="309" on="0"/>
        <pt x="388" y="415" on="0"/>
        <pt x="395" y="436" on="1"/>
        <pt x="397" y="444" on="0"/>
        <pt x="395" y="453" on="1"/>
        <pt x="388" y="480" on="0"/>
        <pt x="388" y="585" on="0"/>
        <pt x="395" y="606" on="1"/>
        <pt x="397" y="614" on="0"/>
        <pt x="395" y="624" on="1"/>
        <pt x="388" y="651" on="0"/>
        <pt x="388" y="756" on="0"/>
        <pt x="395" y="777" on="1"/>
        <pt x="397" y="785" on="0"/>
        <pt x="395" y="794" on="1"/>
        <pt x="388" y="821" on="0"/>
        <pt x="388" y="927" on="0"/>
        <pt x="395" y="948" on="1"/>
        <pt x="398" y="956" on="1"/>
        <pt x="341" y="956" on="1"/>
        <pt x="283" y="957" on="1"/>
        <pt x="281" y="965" on="1"/>
        <pt x="274" y="991" on="0"/>
        <pt x="275" y="1102" on="0"/>
      </contour>
      <contour>
        <pt x="566" y="1461" on="1"/>
        <pt x="569" y="1468" on="1"/>
        <pt x="654" y="1468" on="1"/>
        <pt x="738" y="1468" on="0"/>
        <pt x="741" y="1465" on="1"/>
        <pt x="746" y="1456" on="0"/>
        <pt x="751" y="1357" on="0"/>
        <pt x="747" y="1332" on="1"/>
        <pt x="746" y="1329" on="0"/>
        <pt x="744" y="1315" on="0"/>
        <pt x="744" y="1313" on="1"/>
        <pt x="742" y="1301" on="0"/>
        <pt x="740" y="1299" on="1"/>
        <pt x="739" y="1298" on="0"/>
        <pt x="653" y="1298" on="1"/>
        <pt x="568" y="1298" on="1"/>
        <pt x="566" y="1306" on="1"/>
        <pt x="559" y="1332" on="0"/>
        <pt x="559" y="1443" on="0"/>
      </contour>
      <contour>
        <pt x="225" y="1461" on="1"/>
        <pt x="228" y="1468" on="1"/>
        <pt x="313" y="1468" on="1"/>
        <pt x="396" y="1468" on="0"/>
        <pt x="399" y="1465" on="1"/>
        <pt x="404" y="1456" on="0"/>
        <pt x="410" y="1357" on="0"/>
        <pt x="406" y="1332" on="1"/>
        <pt x="406" y="1331" on="0"/>
        <pt x="403" y="1316" on="0"/>
        <pt x="402" y="1313" on="1"/>
        <pt x="400" y="1300" on="0"/>
        <pt x="398" y="1298" on="0"/>
        <pt x="311" y="1298" on="1"/>
        <pt x="226" y="1298" on="1"/>
        <pt x="224" y="1306" on="1"/>
        <pt x="217" y="1332" on="0"/>
        <pt x="218" y="1443" on="0"/>
      </contour>
    </TTGlyph>
    <TTGlyph name="Igrave" xMin="274" yMin="-68" xMax="694" yMax="1638">
      <contour>
        <pt x="282" y="1120" on="1"/>
        <pt x="284" y="1126" on="1"/>
        <pt x="483" y="1126" on="1"/>
        <pt x="682" y="1126" on="0"/>
        <pt x="684" y="1124" on="1"/>
        <pt x="690" y="1114" on="0"/>
        <pt x="694" y="1016" on="0"/>
        <pt x="690" y="988" on="1"/>
        <pt x="685" y="960" on="0"/>
        <pt x="684" y="958" on="1"/>
        <pt x="682" y="956" on="0"/>
        <pt x="625" y="956" on="1"/>
        <pt x="619" y="956" on="0"/>
        <pt x="606" y="956" on="0"/>
        <pt x="595" y="955" on="0"/>
        <pt x="585" y="955" on="0"/>
        <pt x="578" y="954" on="0"/>
        <pt x="572" y="954" on="0"/>
        <pt x="571" y="954" on="1"/>
        <pt x="570" y="953" on="1"/>
        <pt x="577" y="942" on="0"/>
        <pt x="579" y="827" on="0"/>
        <pt x="573" y="798" on="1"/>
        <pt x="571" y="785" on="0"/>
        <pt x="573" y="772" on="1"/>
        <pt x="579" y="743" on="0"/>
        <pt x="577" y="628" on="0"/>
        <pt x="570" y="617" on="1"/>
        <pt x="568" y="615" on="0"/>
        <pt x="572" y="606" on="1"/>
        <pt x="579" y="582" on="0"/>
        <pt x="577" y="459" on="0"/>
        <pt x="570" y="447" on="1"/>
        <pt x="568" y="445" on="0"/>
        <pt x="572" y="435" on="1"/>
        <pt x="579" y="411" on="0"/>
        <pt x="577" y="288" on="0"/>
        <pt x="570" y="276" on="1"/>
        <pt x="568" y="274" on="0"/>
        <pt x="572" y="264" on="1"/>
        <pt x="579" y="239" on="0"/>
        <pt x="577" y="117" on="0"/>
        <pt x="570" y="105" on="1"/>
        <pt x="572" y="104" on="1"/>
        <pt x="575" y="104" on="0"/>
        <pt x="585" y="103" on="0"/>
        <pt x="599" y="102" on="0"/>
        <pt x="616" y="102" on="0"/>
        <pt x="625" y="102" on="1"/>
        <pt x="682" y="102" on="0"/>
        <pt x="684" y="100" on="1"/>
        <pt x="690" y="90" on="0"/>
        <pt x="694" y="-8" on="0"/>
        <pt x="690" y="-36" on="1"/>
        <pt x="685" y="-64" on="0"/>
        <pt x="681" y="-68" on="0"/>
        <pt x="482" y="-68" on="1"/>
        <pt x="283" y="-67" on="1"/>
        <pt x="281" y="-59" on="1"/>
        <pt x="274" y="-33" on="0"/>
        <pt x="275" y="78" on="0"/>
        <pt x="282" y="96" on="1"/>
        <pt x="284" y="102" on="1"/>
        <pt x="341" y="102" on="1"/>
        <pt x="398" y="102" on="1"/>
        <pt x="395" y="112" on="1"/>
        <pt x="388" y="139" on="0"/>
        <pt x="388" y="244" on="0"/>
        <pt x="395" y="265" on="1"/>
        <pt x="397" y="273" on="0"/>
        <pt x="395" y="282" on="1"/>
        <pt x="388" y="309" on="0"/>
        <pt x="388" y="415" on="0"/>
        <pt x="395" y="436" on="1"/>
        <pt x="397" y="444" on="0"/>
        <pt x="395" y="453" on="1"/>
        <pt x="388" y="480" on="0"/>
        <pt x="388" y="585" on="0"/>
        <pt x="395" y="606" on="1"/>
        <pt x="397" y="614" on="0"/>
        <pt x="395" y="624" on="1"/>
        <pt x="388" y="651" on="0"/>
        <pt x="388" y="756" on="0"/>
        <pt x="395" y="777" on="1"/>
        <pt x="397" y="785" on="0"/>
        <pt x="395" y="794" on="1"/>
        <pt x="388" y="821" on="0"/>
        <pt x="388" y="927" on="0"/>
        <pt x="395" y="948" on="1"/>
        <pt x="398" y="956" on="1"/>
        <pt x="341" y="956" on="1"/>
        <pt x="283" y="957" on="1"/>
        <pt x="281" y="965" on="1"/>
        <pt x="274" y="991" on="0"/>
        <pt x="275" y="1102" on="0"/>
      </contour>
      <contour>
        <pt x="282" y="1632" on="1"/>
        <pt x="284" y="1638" on="1"/>
        <pt x="370" y="1638" on="1"/>
        <pt x="454" y="1638" on="0"/>
        <pt x="456" y="1636" on="1"/>
        <pt x="461" y="1627" on="0"/>
        <pt x="466" y="1528" on="0"/>
        <pt x="462" y="1503" on="1"/>
        <pt x="461" y="1501" on="0"/>
        <pt x="460" y="1487" on="0"/>
        <pt x="460" y="1484" on="1"/>
        <pt x="458" y="1472" on="0"/>
        <pt x="456" y="1470" on="1"/>
        <pt x="463" y="1470" on="1"/>
        <pt x="470" y="1469" on="0"/>
        <pt x="496" y="1468" on="0"/>
        <pt x="512" y="1468" on="1"/>
        <pt x="567" y="1468" on="0"/>
        <pt x="570" y="1465" on="1"/>
        <pt x="575" y="1456" on="0"/>
        <pt x="580" y="1357" on="0"/>
        <pt x="576" y="1332" on="1"/>
        <pt x="575" y="1329" on="0"/>
        <pt x="573" y="1315" on="0"/>
        <pt x="573" y="1313" on="1"/>
        <pt x="571" y="1301" on="0"/>
        <pt x="569" y="1299" on="1"/>
        <pt x="568" y="1298" on="0"/>
        <pt x="482" y="1298" on="1"/>
        <pt x="397" y="1298" on="1"/>
        <pt x="395" y="1306" on="1"/>
        <pt x="388" y="1332" on="0"/>
        <pt x="388" y="1440" on="0"/>
        <pt x="395" y="1460" on="1"/>
        <pt x="398" y="1468" on="1"/>
        <pt x="341" y="1468" on="1"/>
        <pt x="283" y="1469" on="1"/>
        <pt x="281" y="1477" on="1"/>
        <pt x="274" y="1503" on="0"/>
        <pt x="275" y="1614" on="0"/>
      </contour>
    </TTGlyph>
    <TTGlyph name="J" xMin="104" yMin="-68" xMax="751" yMax="1126">
      <contour>
        <pt x="396" y="1120" on="1"/>
        <pt x="398" y="1126" on="1"/>
        <pt x="569" y="1126" on="1"/>
        <pt x="739" y="1126" on="0"/>
        <pt x="741" y="1124" on="1"/>
        <pt x="747" y="1114" on="0"/>
        <pt x="751" y="1016" on="0"/>
        <pt x="747" y="988" on="1"/>
        <pt x="742" y="960" on="0"/>
        <pt x="741" y="958" on="1"/>
        <pt x="739" y="956" on="0"/>
        <pt x="711" y="956" on="1"/>
        <pt x="684" y="956" on="0"/>
        <pt x="684" y="953" on="1"/>
        <pt x="691" y="942" on="0"/>
        <pt x="693" y="827" on="0"/>
        <pt x="687" y="798" on="1"/>
        <pt x="685" y="785" on="0"/>
        <pt x="687" y="772" on="1"/>
        <pt x="693" y="743" on="0"/>
        <pt x="691" y="628" on="0"/>
        <pt x="684" y="617" on="1"/>
        <pt x="682" y="615" on="0"/>
        <pt x="686" y="606" on="1"/>
        <pt x="693" y="582" on="0"/>
        <pt x="691" y="459" on="0"/>
        <pt x="684" y="447" on="1"/>
        <pt x="682" y="445" on="0"/>
        <pt x="686" y="435" on="1"/>
        <pt x="693" y="411" on="0"/>
        <pt x="691" y="288" on="0"/>
        <pt x="684" y="276" on="1"/>
        <pt x="682" y="274" on="0"/>
        <pt x="686" y="264" on="1"/>
        <pt x="693" y="239" on="0"/>
        <pt x="691" y="117" on="0"/>
        <pt x="684" y="105" on="1"/>
        <pt x="681" y="102" on="0"/>
        <pt x="654" y="102" on="1"/>
        <pt x="626" y="102" on="1"/>
        <pt x="629" y="93" on="1"/>
        <pt x="636" y="67" on="0"/>
        <pt x="634" y="-58" on="0"/>
        <pt x="626" y="-66" on="1"/>
        <pt x="624" y="-68" on="0"/>
        <pt x="425" y="-68" on="1"/>
        <pt x="226" y="-67" on="1"/>
        <pt x="224" y="-59" on="1"/>
        <pt x="217" y="-33" on="0"/>
        <pt x="218" y="75" on="0"/>
        <pt x="225" y="95" on="1"/>
        <pt x="227" y="102" on="1"/>
        <pt x="170" y="103" on="1"/>
        <pt x="113" y="104" on="1"/>
        <pt x="111" y="112" on="1"/>
        <pt x="104" y="138" on="0"/>
        <pt x="104" y="249" on="0"/>
        <pt x="111" y="267" on="1"/>
        <pt x="114" y="273" on="1"/>
        <pt x="199" y="273" on="1"/>
        <pt x="284" y="273" on="0"/>
        <pt x="286" y="271" on="1"/>
        <pt x="291" y="262" on="0"/>
        <pt x="296" y="163" on="0"/>
        <pt x="292" y="138" on="1"/>
        <pt x="291" y="136" on="0"/>
        <pt x="289" y="120" on="0"/>
        <pt x="289" y="118" on="1"/>
        <pt x="287" y="106" on="0"/>
        <pt x="286" y="105" on="1"/>
        <pt x="291" y="104" on="1"/>
        <pt x="296" y="104" on="0"/>
        <pt x="317" y="103" on="0"/>
        <pt x="343" y="102" on="0"/>
        <pt x="379" y="102" on="0"/>
        <pt x="398" y="102" on="1"/>
        <pt x="511" y="102" on="1"/>
        <pt x="509" y="112" on="1"/>
        <pt x="502" y="139" on="0"/>
        <pt x="502" y="244" on="0"/>
        <pt x="509" y="265" on="1"/>
        <pt x="511" y="273" on="0"/>
        <pt x="509" y="282" on="1"/>
        <pt x="502" y="309" on="0"/>
        <pt x="502" y="415" on="0"/>
        <pt x="509" y="436" on="1"/>
        <pt x="511" y="444" on="0"/>
        <pt x="509" y="453" on="1"/>
        <pt x="502" y="480" on="0"/>
        <pt x="502" y="585" on="0"/>
        <pt x="509" y="606" on="1"/>
        <pt x="511" y="614" on="0"/>
        <pt x="509" y="624" on="1"/>
        <pt x="502" y="651" on="0"/>
        <pt x="502" y="756" on="0"/>
        <pt x="509" y="777" on="1"/>
        <pt x="511" y="785" on="0"/>
        <pt x="509" y="794" on="1"/>
        <pt x="502" y="821" on="0"/>
        <pt x="502" y="927" on="0"/>
        <pt x="509" y="948" on="1"/>
        <pt x="512" y="956" on="1"/>
        <pt x="454" y="956" on="1"/>
        <pt x="397" y="957" on="1"/>
        <pt x="395" y="965" on="1"/>
        <pt x="388" y="991" on="0"/>
        <pt x="389" y="1102" on="0"/>
      </contour>
    </TTGlyph>
    <TTGlyph name="K" xMin="160" yMin="-68" xMax="808" yMax="1126">
      <contour>
        <pt x="168" y="1120" on="1"/>
        <pt x="171" y="1126" on="1"/>
        <pt x="256" y="1126" on="1"/>
        <pt x="340" y="1126" on="0"/>
        <pt x="344" y="1122" on="0"/>
        <pt x="346" y="1112" on="1"/>
        <pt x="359" y="1043" on="0"/>
        <pt x="345" y="969" on="1"/>
        <pt x="343" y="955" on="0"/>
        <pt x="345" y="943" on="1"/>
        <pt x="350" y="917" on="0"/>
        <pt x="350" y="824" on="0"/>
        <pt x="345" y="798" on="1"/>
        <pt x="343" y="785" on="0"/>
        <pt x="345" y="772" on="1"/>
        <pt x="352" y="742" on="0"/>
        <pt x="350" y="628" on="0"/>
        <pt x="342" y="617" on="1"/>
        <pt x="344" y="616" on="1"/>
        <pt x="347" y="616" on="0"/>
        <pt x="358" y="615" on="0"/>
        <pt x="371" y="614" on="0"/>
        <pt x="389" y="614" on="0"/>
        <pt x="398" y="614" on="1"/>
        <pt x="455" y="614" on="1"/>
        <pt x="452" y="624" on="1"/>
        <pt x="445" y="651" on="0"/>
        <pt x="446" y="760" on="0"/>
        <pt x="453" y="779" on="1"/>
        <pt x="455" y="785" on="1"/>
        <pt x="512" y="785" on="1"/>
        <pt x="568" y="785" on="1"/>
        <pt x="566" y="794" on="1"/>
        <pt x="553" y="841" on="0"/>
        <pt x="561" y="917" on="1"/>
        <pt x="564" y="947" on="0"/>
        <pt x="572" y="956" on="0"/>
        <pt x="597" y="956" on="1"/>
        <pt x="625" y="956" on="1"/>
        <pt x="623" y="965" on="1"/>
        <pt x="616" y="993" on="0"/>
        <pt x="616" y="1101" on="0"/>
        <pt x="623" y="1120" on="1"/>
        <pt x="626" y="1126" on="1"/>
        <pt x="711" y="1126" on="1"/>
        <pt x="796" y="1126" on="0"/>
        <pt x="798" y="1124" on="1"/>
        <pt x="804" y="1114" on="0"/>
        <pt x="808" y="1016" on="0"/>
        <pt x="803" y="988" on="1"/>
        <pt x="802" y="983" on="0"/>
        <pt x="801" y="975" on="0"/>
        <pt x="800" y="970" on="0"/>
        <pt x="799" y="965" on="0"/>
        <pt x="799" y="962" on="0"/>
        <pt x="799" y="960" on="0"/>
        <pt x="798" y="959" on="1"/>
        <pt x="798" y="958" on="1"/>
        <pt x="796" y="956" on="0"/>
        <pt x="768" y="956" on="1"/>
        <pt x="741" y="956" on="0"/>
        <pt x="741" y="953" on="1"/>
        <pt x="749" y="939" on="0"/>
        <pt x="749" y="872" on="1"/>
        <pt x="749" y="801" on="0"/>
        <pt x="741" y="787" on="1"/>
        <pt x="739" y="785" on="0"/>
        <pt x="682" y="785" on="1"/>
        <pt x="667" y="785" on="0"/>
        <pt x="641" y="784" on="0"/>
        <pt x="634" y="784" on="1"/>
        <pt x="627" y="783" on="1"/>
        <pt x="635" y="769" on="0"/>
        <pt x="635" y="701" on="1"/>
        <pt x="635" y="631" on="0"/>
        <pt x="627" y="617" on="1"/>
        <pt x="624" y="614" on="0"/>
        <pt x="569" y="614" on="1"/>
        <pt x="560" y="614" on="0"/>
        <pt x="543" y="614" on="0"/>
        <pt x="529" y="613" on="0"/>
        <pt x="518" y="613" on="0"/>
        <pt x="516" y="612" on="1"/>
        <pt x="513" y="612" on="1"/>
        <pt x="522" y="596" on="0"/>
        <pt x="522" y="530" on="1"/>
        <pt x="522" y="462" on="0"/>
        <pt x="513" y="446" on="1"/>
        <pt x="520" y="446" on="1"/>
        <pt x="527" y="445" on="0"/>
        <pt x="554" y="444" on="0"/>
        <pt x="569" y="444" on="1"/>
        <pt x="624" y="444" on="0"/>
        <pt x="627" y="441" on="1"/>
        <pt x="633" y="431" on="0"/>
        <pt x="637" y="334" on="0"/>
        <pt x="633" y="306" on="1"/>
        <pt x="628" y="277" on="0"/>
        <pt x="627" y="275" on="1"/>
        <pt x="634" y="274" on="1"/>
        <pt x="641" y="274" on="0"/>
        <pt x="667" y="273" on="0"/>
        <pt x="682" y="273" on="1"/>
        <pt x="739" y="273" on="0"/>
        <pt x="741" y="271" on="1"/>
        <pt x="746" y="262" on="0"/>
        <pt x="751" y="163" on="0"/>
        <pt x="747" y="138" on="1"/>
        <pt x="746" y="136" on="0"/>
        <pt x="744" y="120" on="0"/>
        <pt x="744" y="118" on="1"/>
        <pt x="742" y="106" on="0"/>
        <pt x="741" y="105" on="1"/>
        <pt x="765" y="102" on="1"/>
        <pt x="768" y="102" on="1"/>
        <pt x="796" y="102" on="0"/>
        <pt x="798" y="100" on="1"/>
        <pt x="803" y="91" on="0"/>
        <pt x="808" y="-8" on="0"/>
        <pt x="804" y="-33" on="1"/>
        <pt x="803" y="-36" on="0"/>
        <pt x="801" y="-51" on="0"/>
        <pt x="801" y="-53" on="1"/>
        <pt x="799" y="-64" on="0"/>
        <pt x="795" y="-68" on="0"/>
        <pt x="710" y="-68" on="1"/>
        <pt x="625" y="-67" on="1"/>
        <pt x="623" y="-59" on="1"/>
        <pt x="616" y="-34" on="0"/>
        <pt x="616" y="74" on="0"/>
        <pt x="623" y="94" on="1"/>
        <pt x="625" y="102" on="1"/>
        <pt x="597" y="103" on="1"/>
        <pt x="568" y="104" on="1"/>
        <pt x="566" y="112" on="1"/>
        <pt x="559" y="138" on="0"/>
        <pt x="559" y="244" on="0"/>
        <pt x="566" y="265" on="1"/>
        <pt x="569" y="273" on="1"/>
        <pt x="511" y="274" on="1"/>
        <pt x="454" y="274" on="1"/>
        <pt x="452" y="282" on="1"/>
        <pt x="445" y="308" on="0"/>
        <pt x="445" y="416" on="0"/>
        <pt x="452" y="436" on="1"/>
        <pt x="455" y="444" on="1"/>
        <pt x="398" y="444" on="1"/>
        <pt x="342" y="444" on="1"/>
        <pt x="344" y="435" on="1"/>
        <pt x="351" y="411" on="0"/>
        <pt x="350" y="288" on="0"/>
        <pt x="343" y="276" on="1"/>
        <pt x="342" y="275" on="0"/>
        <pt x="343" y="268" on="0"/>
        <pt x="344" y="264" on="1"/>
        <pt x="351" y="240" on="0"/>
        <pt x="350" y="117" on="0"/>
        <pt x="343" y="105" on="1"/>
        <pt x="341" y="103" on="0"/>
        <pt x="344" y="94" on="1"/>
        <pt x="351" y="68" on="0"/>
        <pt x="350" y="-58" on="0"/>
        <pt x="342" y="-66" on="1"/>
        <pt x="340" y="-68" on="0"/>
        <pt x="255" y="-68" on="1"/>
        <pt x="170" y="-67" on="1"/>
        <pt x="167" y="-59" on="1"/>
        <pt x="160" y="-33" on="0"/>
        <pt x="161" y="74" on="0"/>
        <pt x="168" y="94" on="1"/>
        <pt x="170" y="102" on="0"/>
        <pt x="168" y="112" on="1"/>
        <pt x="161" y="139" on="0"/>
        <pt x="161" y="244" on="0"/>
        <pt x="168" y="265" on="1"/>
        <pt x="170" y="273" on="0"/>
        <pt x="168" y="282" on="1"/>
        <pt x="161" y="309" on="0"/>
        <pt x="161" y="415" on="0"/>
        <pt x="168" y="436" on="1"/>
        <pt x="170" y="444" on="0"/>
        <pt x="168" y="453" on="1"/>
        <pt x="161" y="480" on="0"/>
        <pt x="161" y="585" on="0"/>
        <pt x="168" y="606" on="1"/>
        <pt x="170" y="614" on="0"/>
        <pt x="168" y="624" on="1"/>
        <pt x="161" y="651" on="0"/>
        <pt x="161" y="756" on="0"/>
        <pt x="168" y="777" on="1"/>
        <pt x="170" y="785" on="0"/>
        <pt x="168" y="794" on="1"/>
        <pt x="161" y="821" on="0"/>
        <pt x="161" y="927" on="0"/>
        <pt x="168" y="948" on="1"/>
        <pt x="170" y="956" on="0"/>
        <pt x="168" y="965" on="1"/>
        <pt x="161" y="993" on="0"/>
        <pt x="161" y="1101" on="0"/>
      </contour>
    </TTGlyph>
    <TTGlyph name="L" xMin="160" yMin="-68" xMax="751" yMax="1126">
      <contour>
        <pt x="168" y="1120" on="1"/>
        <pt x="171" y="1126" on="1"/>
        <pt x="256" y="1126" on="1"/>
        <pt x="340" y="1126" on="0"/>
        <pt x="344" y="1122" on="0"/>
        <pt x="346" y="1112" on="1"/>
        <pt x="359" y="1043" on="0"/>
        <pt x="345" y="969" on="1"/>
        <pt x="343" y="955" on="0"/>
        <pt x="345" y="943" on="1"/>
        <pt x="350" y="917" on="0"/>
        <pt x="350" y="824" on="0"/>
        <pt x="345" y="798" on="1"/>
        <pt x="343" y="785" on="0"/>
        <pt x="345" y="772" on="1"/>
        <pt x="350" y="746" on="0"/>
        <pt x="350" y="652" on="0"/>
        <pt x="345" y="627" on="1"/>
        <pt x="343" y="614" on="0"/>
        <pt x="345" y="602" on="1"/>
        <pt x="351" y="573" on="0"/>
        <pt x="350" y="458" on="0"/>
        <pt x="343" y="447" on="1"/>
        <pt x="342" y="446" on="0"/>
        <pt x="343" y="439" on="0"/>
        <pt x="344" y="435" on="1"/>
        <pt x="351" y="411" on="0"/>
        <pt x="350" y="288" on="0"/>
        <pt x="343" y="276" on="1"/>
        <pt x="342" y="275" on="0"/>
        <pt x="343" y="268" on="0"/>
        <pt x="344" y="264" on="1"/>
        <pt x="351" y="239" on="0"/>
        <pt x="349" y="117" on="0"/>
        <pt x="342" y="105" on="1"/>
        <pt x="341" y="104" on="0"/>
        <pt x="393" y="103" on="0"/>
        <pt x="489" y="102" on="0"/>
        <pt x="540" y="102" on="1"/>
        <pt x="739" y="102" on="0"/>
        <pt x="741" y="100" on="1"/>
        <pt x="746" y="91" on="0"/>
        <pt x="751" y="-8" on="0"/>
        <pt x="747" y="-33" on="1"/>
        <pt x="746" y="-36" on="0"/>
        <pt x="744" y="-51" on="0"/>
        <pt x="744" y="-53" on="1"/>
        <pt x="742" y="-64" on="0"/>
        <pt x="738" y="-68" on="0"/>
        <pt x="454" y="-68" on="1"/>
        <pt x="170" y="-67" on="1"/>
        <pt x="167" y="-59" on="1"/>
        <pt x="160" y="-33" on="0"/>
        <pt x="161" y="74" on="0"/>
        <pt x="168" y="94" on="1"/>
        <pt x="170" y="102" on="0"/>
        <pt x="168" y="112" on="1"/>
        <pt x="161" y="139" on="0"/>
        <pt x="161" y="244" on="0"/>
        <pt x="168" y="265" on="1"/>
        <pt x="170" y="273" on="0"/>
        <pt x="168" y="282" on="1"/>
        <pt x="161" y="309" on="0"/>
        <pt x="161" y="415" on="0"/>
        <pt x="168" y="436" on="1"/>
        <pt x="170" y="444" on="0"/>
        <pt x="168" y="453" on="1"/>
        <pt x="161" y="480" on="0"/>
        <pt x="161" y="585" on="0"/>
        <pt x="168" y="606" on="1"/>
        <pt x="170" y="614" on="0"/>
        <pt x="168" y="624" on="1"/>
        <pt x="161" y="651" on="0"/>
        <pt x="161" y="756" on="0"/>
        <pt x="168" y="777" on="1"/>
        <pt x="170" y="785" on="0"/>
        <pt x="168" y="794" on="1"/>
        <pt x="161" y="821" on="0"/>
        <pt x="161" y="927" on="0"/>
        <pt x="168" y="948" on="1"/>
        <pt x="170" y="956" on="0"/>
        <pt x="168" y="965" on="1"/>
        <pt x="161" y="993" on="0"/>
        <pt x="161" y="1101" on="0"/>
      </contour>
    </TTGlyph>
    <TTGlyph name="M" xMin="104" yMin="-68" xMax="814" yMax="1126">
      <contour>
        <pt x="111" y="1120" on="1"/>
        <pt x="114" y="1126" on="1"/>
        <pt x="227" y="1126" on="1"/>
        <pt x="340" y="1126" on="0"/>
        <pt x="342" y="1124" on="1"/>
        <pt x="348" y="1114" on="0"/>
        <pt x="352" y="1016" on="0"/>
        <pt x="348" y="988" on="1"/>
        <pt x="343" y="960" on="0"/>
        <pt x="342" y="958" on="1"/>
        <pt x="340" y="956" on="0"/>
        <pt x="369" y="956" on="1"/>
        <pt x="396" y="956" on="0"/>
        <pt x="399" y="953" on="1"/>
        <pt x="401" y="951" on="0"/>
        <pt x="403" y="941" on="1"/>
        <pt x="416" y="872" on="0"/>
        <pt x="402" y="798" on="1"/>
        <pt x="400" y="784" on="0"/>
        <pt x="402" y="772" on="1"/>
        <pt x="409" y="742" on="0"/>
        <pt x="407" y="628" on="0"/>
        <pt x="399" y="617" on="1"/>
        <pt x="402" y="616" on="1"/>
        <pt x="404" y="616" on="0"/>
        <pt x="415" y="615" on="0"/>
        <pt x="428" y="614" on="0"/>
        <pt x="446" y="614" on="0"/>
        <pt x="455" y="614" on="1"/>
        <pt x="511" y="614" on="1"/>
        <pt x="509" y="624" on="1"/>
        <pt x="502" y="651" on="0"/>
        <pt x="502" y="756" on="0"/>
        <pt x="509" y="777" on="1"/>
        <pt x="511" y="785" on="0"/>
        <pt x="509" y="794" on="1"/>
        <pt x="496" y="841" on="0"/>
        <pt x="504" y="917" on="1"/>
        <pt x="507" y="947" on="0"/>
        <pt x="515" y="956" on="0"/>
        <pt x="540" y="956" on="1"/>
        <pt x="568" y="956" on="1"/>
        <pt x="566" y="965" on="1"/>
        <pt x="559" y="993" on="0"/>
        <pt x="559" y="1101" on="0"/>
        <pt x="566" y="1120" on="1"/>
        <pt x="569" y="1126" on="1"/>
        <pt x="683" y="1126" on="1"/>
        <pt x="796" y="1126" on="0"/>
        <pt x="798" y="1124" on="1"/>
        <pt x="799" y="1123" on="0"/>
        <pt x="801" y="1112" on="1"/>
        <pt x="814" y="1043" on="0"/>
        <pt x="800" y="969" on="1"/>
        <pt x="798" y="955" on="0"/>
        <pt x="800" y="943" on="1"/>
        <pt x="805" y="917" on="0"/>
        <pt x="805" y="824" on="0"/>
        <pt x="800" y="798" on="1"/>
        <pt x="798" y="785" on="0"/>
        <pt x="800" y="772" on="1"/>
        <pt x="806" y="743" on="0"/>
        <pt x="805" y="628" on="0"/>
        <pt x="798" y="617" on="1"/>
        <pt x="796" y="615" on="0"/>
        <pt x="799" y="606" on="1"/>
        <pt x="806" y="582" on="0"/>
        <pt x="805" y="459" on="0"/>
        <pt x="798" y="447" on="1"/>
        <pt x="797" y="446" on="0"/>
        <pt x="798" y="439" on="0"/>
        <pt x="799" y="435" on="1"/>
        <pt x="806" y="411" on="0"/>
        <pt x="805" y="288" on="0"/>
        <pt x="798" y="276" on="1"/>
        <pt x="797" y="275" on="0"/>
        <pt x="798" y="268" on="0"/>
        <pt x="799" y="264" on="1"/>
        <pt x="806" y="240" on="0"/>
        <pt x="805" y="117" on="0"/>
        <pt x="798" y="105" on="1"/>
        <pt x="796" y="103" on="0"/>
        <pt x="799" y="94" on="1"/>
        <pt x="806" y="68" on="0"/>
        <pt x="805" y="-58" on="0"/>
        <pt x="797" y="-66" on="1"/>
        <pt x="795" y="-68" on="0"/>
        <pt x="710" y="-68" on="1"/>
        <pt x="625" y="-67" on="1"/>
        <pt x="623" y="-59" on="1"/>
        <pt x="616" y="-34" on="0"/>
        <pt x="616" y="74" on="0"/>
        <pt x="623" y="94" on="1"/>
        <pt x="625" y="102" on="0"/>
        <pt x="623" y="112" on="1"/>
        <pt x="616" y="139" on="0"/>
        <pt x="616" y="244" on="0"/>
        <pt x="623" y="265" on="1"/>
        <pt x="625" y="273" on="0"/>
        <pt x="623" y="282" on="1"/>
        <pt x="616" y="309" on="0"/>
        <pt x="616" y="415" on="0"/>
        <pt x="623" y="436" on="1"/>
        <pt x="625" y="444" on="0"/>
        <pt x="623" y="453" on="1"/>
        <pt x="616" y="480" on="0"/>
        <pt x="616" y="585" on="0"/>
        <pt x="623" y="606" on="1"/>
        <pt x="625" y="614" on="0"/>
        <pt x="623" y="624" on="1"/>
        <pt x="616" y="651" on="0"/>
        <pt x="616" y="756" on="0"/>
        <pt x="623" y="777" on="1"/>
        <pt x="625" y="785" on="1"/>
        <pt x="597" y="785" on="1"/>
        <pt x="568" y="785" on="0"/>
        <pt x="570" y="783" on="1"/>
        <pt x="577" y="772" on="0"/>
        <pt x="579" y="656" on="0"/>
        <pt x="573" y="627" on="1"/>
        <pt x="571" y="614" on="0"/>
        <pt x="573" y="602" on="1"/>
        <pt x="580" y="572" on="0"/>
        <pt x="578" y="457" on="0"/>
        <pt x="570" y="446" on="1"/>
        <pt x="568" y="444" on="0"/>
        <pt x="540" y="444" on="1"/>
        <pt x="513" y="444" on="0"/>
        <pt x="513" y="441" on="1"/>
        <pt x="520" y="430" on="0"/>
        <pt x="522" y="315" on="0"/>
        <pt x="516" y="286" on="1"/>
        <pt x="514" y="273" on="0"/>
        <pt x="516" y="260" on="1"/>
        <pt x="523" y="229" on="0"/>
        <pt x="520" y="112" on="0"/>
        <pt x="513" y="105" on="1"/>
        <pt x="511" y="103" on="0"/>
        <pt x="454" y="103" on="1"/>
        <pt x="397" y="104" on="1"/>
        <pt x="395" y="112" on="1"/>
        <pt x="388" y="138" on="0"/>
        <pt x="388" y="245" on="0"/>
        <pt x="395" y="265" on="1"/>
        <pt x="397" y="273" on="0"/>
        <pt x="395" y="282" on="1"/>
        <pt x="388" y="309" on="0"/>
        <pt x="388" y="415" on="0"/>
        <pt x="395" y="436" on="1"/>
        <pt x="398" y="443" on="1"/>
        <pt x="369" y="444" on="1"/>
        <pt x="340" y="445" on="1"/>
        <pt x="338" y="453" on="1"/>
        <pt x="331" y="478" on="0"/>
        <pt x="331" y="586" on="0"/>
        <pt x="338" y="606" on="1"/>
        <pt x="341" y="616" on="0"/>
        <pt x="339" y="624" on="1"/>
        <pt x="332" y="651" on="0"/>
        <pt x="331" y="756" on="0"/>
        <pt x="338" y="777" on="1"/>
        <pt x="341" y="785" on="1"/>
        <pt x="313" y="785" on="1"/>
        <pt x="284" y="785" on="0"/>
        <pt x="286" y="783" on="1"/>
        <pt x="294" y="769" on="0"/>
        <pt x="294" y="701" on="1"/>
        <pt x="294" y="629" on="0"/>
        <pt x="286" y="617" on="1"/>
        <pt x="284" y="615" on="0"/>
        <pt x="287" y="606" on="1"/>
        <pt x="294" y="582" on="0"/>
        <pt x="293" y="459" on="0"/>
        <pt x="286" y="447" on="1"/>
        <pt x="285" y="446" on="0"/>
        <pt x="286" y="439" on="0"/>
        <pt x="287" y="435" on="1"/>
        <pt x="294" y="411" on="0"/>
        <pt x="293" y="288" on="0"/>
        <pt x="286" y="276" on="1"/>
        <pt x="285" y="275" on="0"/>
        <pt x="286" y="268" on="0"/>
        <pt x="287" y="264" on="1"/>
        <pt x="294" y="240" on="0"/>
        <pt x="293" y="117" on="0"/>
        <pt x="286" y="105" on="1"/>
        <pt x="284" y="103" on="0"/>
        <pt x="287" y="94" on="1"/>
        <pt x="294" y="68" on="0"/>
        <pt x="293" y="-58" on="0"/>
        <pt x="285" y="-66" on="1"/>
        <pt x="283" y="-68" on="0"/>
        <pt x="198" y="-68" on="1"/>
        <pt x="113" y="-67" on="1"/>
        <pt x="111" y="-59" on="1"/>
        <pt x="104" y="-34" on="0"/>
        <pt x="104" y="74" on="0"/>
        <pt x="111" y="94" on="1"/>
        <pt x="113" y="102" on="0"/>
        <pt x="111" y="112" on="1"/>
        <pt x="104" y="139" on="0"/>
        <pt x="104" y="244" on="0"/>
        <pt x="111" y="265" on="1"/>
        <pt x="113" y="273" on="0"/>
        <pt x="111" y="282" on="1"/>
        <pt x="104" y="309" on="0"/>
        <pt x="104" y="415" on="0"/>
        <pt x="111" y="436" on="1"/>
        <pt x="113" y="444" on="0"/>
        <pt x="111" y="453" on="1"/>
        <pt x="104" y="480" on="0"/>
        <pt x="104" y="585" on="0"/>
        <pt x="111" y="606" on="1"/>
        <pt x="113" y="614" on="0"/>
        <pt x="111" y="624" on="1"/>
        <pt x="104" y="651" on="0"/>
        <pt x="104" y="756" on="0"/>
        <pt x="111" y="777" on="1"/>
        <pt x="113" y="785" on="0"/>
        <pt x="111" y="794" on="1"/>
        <pt x="104" y="821" on="0"/>
        <pt x="104" y="927" on="0"/>
        <pt x="111" y="948" on="1"/>
        <pt x="113" y="956" on="0"/>
        <pt x="111" y="965" on="1"/>
        <pt x="104" y="993" on="0"/>
        <pt x="104" y="1101" on="0"/>
      </contour>
    </TTGlyph>
    <TTGlyph name="N" xMin="104" yMin="-68" xMax="814" yMax="1126">
      <contour>
        <pt x="111" y="1120" on="1"/>
        <pt x="114" y="1126" on="1"/>
        <pt x="199" y="1126" on="1"/>
        <pt x="284" y="1126" on="0"/>
        <pt x="286" y="1124" on="1"/>
        <pt x="292" y="1114" on="0"/>
        <pt x="296" y="1016" on="0"/>
        <pt x="291" y="988" on="1"/>
        <pt x="290" y="983" on="0"/>
        <pt x="289" y="975" on="0"/>
        <pt x="288" y="970" on="0"/>
        <pt x="287" y="965" on="0"/>
        <pt x="287" y="962" on="0"/>
        <pt x="287" y="960" on="0"/>
        <pt x="286" y="959" on="1"/>
        <pt x="286" y="958" on="1"/>
        <pt x="284" y="956" on="0"/>
        <pt x="313" y="956" on="1"/>
        <pt x="339" y="956" on="0"/>
        <pt x="342" y="953" on="1"/>
        <pt x="348" y="943" on="0"/>
        <pt x="352" y="846" on="0"/>
        <pt x="348" y="818" on="1"/>
        <pt x="343" y="789" on="0"/>
        <pt x="342" y="787" on="1"/>
        <pt x="349" y="786" on="1"/>
        <pt x="356" y="786" on="0"/>
        <pt x="383" y="785" on="0"/>
        <pt x="398" y="785" on="1"/>
        <pt x="454" y="785" on="0"/>
        <pt x="456" y="783" on="1"/>
        <pt x="462" y="773" on="0"/>
        <pt x="466" y="675" on="0"/>
        <pt x="462" y="647" on="1"/>
        <pt x="457" y="619" on="0"/>
        <pt x="456" y="617" on="1"/>
        <pt x="480" y="614" on="1"/>
        <pt x="483" y="614" on="1"/>
        <pt x="511" y="614" on="0"/>
        <pt x="513" y="612" on="1"/>
        <pt x="519" y="602" on="0"/>
        <pt x="523" y="504" on="0"/>
        <pt x="519" y="476" on="1"/>
        <pt x="514" y="448" on="0"/>
        <pt x="513" y="446" on="1"/>
        <pt x="520" y="446" on="1"/>
        <pt x="527" y="445" on="0"/>
        <pt x="553" y="444" on="0"/>
        <pt x="568" y="444" on="1"/>
        <pt x="625" y="444" on="1"/>
        <pt x="623" y="453" on="1"/>
        <pt x="616" y="480" on="0"/>
        <pt x="616" y="585" on="0"/>
        <pt x="623" y="606" on="1"/>
        <pt x="625" y="614" on="0"/>
        <pt x="623" y="624" on="1"/>
        <pt x="616" y="651" on="0"/>
        <pt x="616" y="756" on="0"/>
        <pt x="623" y="777" on="1"/>
        <pt x="625" y="785" on="0"/>
        <pt x="623" y="794" on="1"/>
        <pt x="616" y="821" on="0"/>
        <pt x="616" y="927" on="0"/>
        <pt x="623" y="948" on="1"/>
        <pt x="625" y="956" on="0"/>
        <pt x="623" y="965" on="1"/>
        <pt x="616" y="993" on="0"/>
        <pt x="616" y="1101" on="0"/>
        <pt x="623" y="1120" on="1"/>
        <pt x="626" y="1126" on="1"/>
        <pt x="711" y="1126" on="1"/>
        <pt x="796" y="1126" on="0"/>
        <pt x="798" y="1124" on="1"/>
        <pt x="799" y="1123" on="0"/>
        <pt x="801" y="1112" on="1"/>
        <pt x="814" y="1043" on="0"/>
        <pt x="800" y="969" on="1"/>
        <pt x="798" y="955" on="0"/>
        <pt x="800" y="943" on="1"/>
        <pt x="805" y="917" on="0"/>
        <pt x="805" y="824" on="0"/>
        <pt x="800" y="798" on="1"/>
        <pt x="798" y="785" on="0"/>
        <pt x="800" y="772" on="1"/>
        <pt x="805" y="746" on="0"/>
        <pt x="805" y="652" on="0"/>
        <pt x="800" y="627" on="1"/>
        <pt x="798" y="614" on="0"/>
        <pt x="800" y="602" on="1"/>
        <pt x="806" y="573" on="0"/>
        <pt x="805" y="458" on="0"/>
        <pt x="798" y="447" on="1"/>
        <pt x="797" y="446" on="0"/>
        <pt x="798" y="439" on="0"/>
        <pt x="799" y="435" on="1"/>
        <pt x="806" y="411" on="0"/>
        <pt x="805" y="288" on="0"/>
        <pt x="798" y="276" on="1"/>
        <pt x="797" y="275" on="0"/>
        <pt x="798" y="268" on="0"/>
        <pt x="799" y="264" on="1"/>
        <pt x="806" y="240" on="0"/>
        <pt x="805" y="117" on="0"/>
        <pt x="798" y="105" on="1"/>
        <pt x="796" y="103" on="0"/>
        <pt x="799" y="94" on="1"/>
        <pt x="806" y="68" on="0"/>
        <pt x="805" y="-58" on="0"/>
        <pt x="797" y="-66" on="1"/>
        <pt x="795" y="-68" on="0"/>
        <pt x="710" y="-68" on="1"/>
        <pt x="625" y="-67" on="1"/>
        <pt x="623" y="-59" on="1"/>
        <pt x="616" y="-34" on="0"/>
        <pt x="616" y="75" on="0"/>
        <pt x="623" y="95" on="1"/>
        <pt x="625" y="102" on="1"/>
        <pt x="568" y="103" on="1"/>
        <pt x="511" y="104" on="1"/>
        <pt x="509" y="112" on="1"/>
        <pt x="502" y="138" on="0"/>
        <pt x="502" y="245" on="0"/>
        <pt x="509" y="265" on="1"/>
        <pt x="512" y="273" on="1"/>
        <pt x="483" y="274" on="1"/>
        <pt x="454" y="274" on="1"/>
        <pt x="452" y="282" on="1"/>
        <pt x="445" y="308" on="0"/>
        <pt x="445" y="415" on="0"/>
        <pt x="452" y="436" on="1"/>
        <pt x="455" y="444" on="1"/>
        <pt x="398" y="444" on="1"/>
        <pt x="340" y="445" on="1"/>
        <pt x="338" y="453" on="1"/>
        <pt x="331" y="478" on="0"/>
        <pt x="331" y="586" on="0"/>
        <pt x="338" y="606" on="1"/>
        <pt x="341" y="614" on="1"/>
        <pt x="313" y="614" on="1"/>
        <pt x="285" y="614" on="1"/>
        <pt x="287" y="605" on="1"/>
        <pt x="294" y="581" on="0"/>
        <pt x="293" y="459" on="0"/>
        <pt x="286" y="447" on="1"/>
        <pt x="285" y="446" on="0"/>
        <pt x="286" y="439" on="0"/>
        <pt x="287" y="435" on="1"/>
        <pt x="294" y="411" on="0"/>
        <pt x="293" y="288" on="0"/>
        <pt x="286" y="276" on="1"/>
        <pt x="285" y="275" on="0"/>
        <pt x="286" y="268" on="0"/>
        <pt x="287" y="264" on="1"/>
        <pt x="294" y="240" on="0"/>
        <pt x="293" y="117" on="0"/>
        <pt x="286" y="105" on="1"/>
        <pt x="284" y="103" on="0"/>
        <pt x="287" y="94" on="1"/>
        <pt x="294" y="68" on="0"/>
        <pt x="293" y="-58" on="0"/>
        <pt x="285" y="-66" on="1"/>
        <pt x="283" y="-68" on="0"/>
        <pt x="198" y="-68" on="1"/>
        <pt x="113" y="-67" on="1"/>
        <pt x="111" y="-59" on="1"/>
        <pt x="104" y="-34" on="0"/>
        <pt x="104" y="74" on="0"/>
        <pt x="111" y="94" on="1"/>
        <pt x="113" y="102" on="0"/>
        <pt x="111" y="112" on="1"/>
        <pt x="104" y="139" on="0"/>
        <pt x="104" y="244" on="0"/>
        <pt x="111" y="265" on="1"/>
        <pt x="113" y="273" on="0"/>
        <pt x="111" y="282" on="1"/>
        <pt x="104" y="309" on="0"/>
        <pt x="104" y="415" on="0"/>
        <pt x="111" y="436" on="1"/>
        <pt x="113" y="444" on="0"/>
        <pt x="111" y="453" on="1"/>
        <pt x="104" y="480" on="0"/>
        <pt x="104" y="585" on="0"/>
        <pt x="111" y="606" on="1"/>
        <pt x="113" y="614" on="0"/>
        <pt x="111" y="624" on="1"/>
        <pt x="104" y="651" on="0"/>
        <pt x="104" y="756" on="0"/>
        <pt x="111" y="777" on="1"/>
        <pt x="113" y="785" on="0"/>
        <pt x="111" y="794" on="1"/>
        <pt x="104" y="821" on="0"/>
        <pt x="104" y="927" on="0"/>
        <pt x="111" y="948" on="1"/>
        <pt x="113" y="956" on="0"/>
        <pt x="111" y="965" on="1"/>
        <pt x="104" y="993" on="0"/>
        <pt x="104" y="1101" on="0"/>
      </contour>
    </TTGlyph>
    <TTGlyph name="Ntilde" xMin="104" yMin="-68" xMax="814" yMax="1638">
      <contour>
        <pt x="111" y="1120" on="1"/>
        <pt x="114" y="1126" on="1"/>
        <pt x="199" y="1126" on="1"/>
        <pt x="284" y="1126" on="0"/>
        <pt x="286" y="1124" on="1"/>
        <pt x="292" y="1114" on="0"/>
        <pt x="296" y="1016" on="0"/>
        <pt x="291" y="988" on="1"/>
        <pt x="290" y="983" on="0"/>
        <pt x="289" y="975" on="0"/>
        <pt x="288" y="970" on="0"/>
        <pt x="287" y="965" on="0"/>
        <pt x="287" y="962" on="0"/>
        <pt x="287" y="960" on="0"/>
        <pt x="286" y="959" on="1"/>
        <pt x="286" y="958" on="1"/>
        <pt x="284" y="956" on="0"/>
        <pt x="313" y="956" on="1"/>
        <pt x="339" y="956" on="0"/>
        <pt x="342" y="953" on="1"/>
        <pt x="348" y="943" on="0"/>
        <pt x="352" y="846" on="0"/>
        <pt x="348" y="818" on="1"/>
        <pt x="343" y="789" on="0"/>
        <pt x="342" y="787" on="1"/>
        <pt x="349" y="786" on="1"/>
        <pt x="356" y="786" on="0"/>
        <pt x="383" y="785" on="0"/>
        <pt x="398" y="785" on="1"/>
        <pt x="454" y="785" on="0"/>
        <pt x="456" y="783" on="1"/>
        <pt x="462" y="773" on="0"/>
        <pt x="466" y="675" on="0"/>
        <pt x="462" y="647" on="1"/>
        <pt x="457" y="619" on="0"/>
        <pt x="456" y="617" on="1"/>
        <pt x="480" y="614" on="1"/>
        <pt x="483" y="614" on="1"/>
        <pt x="511" y="614" on="0"/>
        <pt x="513" y="612" on="1"/>
        <pt x="519" y="602" on="0"/>
        <pt x="523" y="504" on="0"/>
        <pt x="519" y="476" on="1"/>
        <pt x="514" y="448" on="0"/>
        <pt x="513" y="446" on="1"/>
        <pt x="520" y="446" on="1"/>
        <pt x="527" y="445" on="0"/>
        <pt x="553" y="444" on="0"/>
        <pt x="568" y="444" on="1"/>
        <pt x="625" y="444" on="1"/>
        <pt x="623" y="453" on="1"/>
        <pt x="616" y="480" on="0"/>
        <pt x="616" y="585" on="0"/>
        <pt x="623" y="606" on="1"/>
        <pt x="625" y="614" on="0"/>
        <pt x="623" y="624" on="1"/>
        <pt x="616" y="651" on="0"/>
        <pt x="616" y="756" on="0"/>
        <pt x="623" y="777" on="1"/>
        <pt x="625" y="785" on="0"/>
        <pt x="623" y="794" on="1"/>
        <pt x="616" y="821" on="0"/>
        <pt x="616" y="927" on="0"/>
        <pt x="623" y="948" on="1"/>
        <pt x="625" y="956" on="0"/>
        <pt x="623" y="965" on="1"/>
        <pt x="616" y="993" on="0"/>
        <pt x="616" y="1101" on="0"/>
        <pt x="623" y="1120" on="1"/>
        <pt x="626" y="1126" on="1"/>
        <pt x="711" y="1126" on="1"/>
        <pt x="796" y="1126" on="0"/>
        <pt x="798" y="1124" on="1"/>
        <pt x="799" y="1123" on="0"/>
        <pt x="801" y="1112" on="1"/>
        <pt x="814" y="1043" on="0"/>
        <pt x="800" y="969" on="1"/>
        <pt x="798" y="955" on="0"/>
        <pt x="800" y="943" on="1"/>
        <pt x="805" y="917" on="0"/>
        <pt x="805" y="824" on="0"/>
        <pt x="800" y="798" on="1"/>
        <pt x="798" y="785" on="0"/>
        <pt x="800" y="772" on="1"/>
        <pt x="805" y="746" on="0"/>
        <pt x="805" y="652" on="0"/>
        <pt x="800" y="627" on="1"/>
        <pt x="798" y="614" on="0"/>
        <pt x="800" y="602" on="1"/>
        <pt x="806" y="573" on="0"/>
        <pt x="805" y="458" on="0"/>
        <pt x="798" y="447" on="1"/>
        <pt x="797" y="446" on="0"/>
        <pt x="798" y="439" on="0"/>
        <pt x="799" y="435" on="1"/>
        <pt x="806" y="411" on="0"/>
        <pt x="805" y="288" on="0"/>
        <pt x="798" y="276" on="1"/>
        <pt x="797" y="275" on="0"/>
        <pt x="798" y="268" on="0"/>
        <pt x="799" y="264" on="1"/>
        <pt x="806" y="240" on="0"/>
        <pt x="805" y="117" on="0"/>
        <pt x="798" y="105" on="1"/>
        <pt x="796" y="103" on="0"/>
        <pt x="799" y="94" on="1"/>
        <pt x="806" y="68" on="0"/>
        <pt x="805" y="-58" on="0"/>
        <pt x="797" y="-66" on="1"/>
        <pt x="795" y="-68" on="0"/>
        <pt x="710" y="-68" on="1"/>
        <pt x="625" y="-67" on="1"/>
        <pt x="623" y="-59" on="1"/>
        <pt x="616" y="-34" on="0"/>
        <pt x="616" y="75" on="0"/>
        <pt x="623" y="95" on="1"/>
        <pt x="625" y="102" on="1"/>
        <pt x="568" y="103" on="1"/>
        <pt x="511" y="104" on="1"/>
        <pt x="509" y="112" on="1"/>
        <pt x="502" y="138" on="0"/>
        <pt x="502" y="245" on="0"/>
        <pt x="509" y="265" on="1"/>
        <pt x="512" y="273" on="1"/>
        <pt x="483" y="274" on="1"/>
        <pt x="454" y="274" on="1"/>
        <pt x="452" y="282" on="1"/>
        <pt x="445" y="308" on="0"/>
        <pt x="445" y="415" on="0"/>
        <pt x="452" y="436" on="1"/>
        <pt x="455" y="444" on="1"/>
        <pt x="398" y="444" on="1"/>
        <pt x="340" y="445" on="1"/>
        <pt x="338" y="453" on="1"/>
        <pt x="331" y="478" on="0"/>
        <pt x="331" y="586" on="0"/>
        <pt x="338" y="606" on="1"/>
        <pt x="341" y="614" on="1"/>
        <pt x="313" y="614" on="1"/>
        <pt x="285" y="614" on="1"/>
        <pt x="287" y="605" on="1"/>
        <pt x="294" y="581" on="0"/>
        <pt x="293" y="459" on="0"/>
        <pt x="286" y="447" on="1"/>
        <pt x="285" y="446" on="0"/>
        <pt x="286" y="439" on="0"/>
        <pt x="287" y="435" on="1"/>
        <pt x="294" y="411" on="0"/>
        <pt x="293" y="288" on="0"/>
        <pt x="286" y="276" on="1"/>
        <pt x="285" y="275" on="0"/>
        <pt x="286" y="268" on="0"/>
        <pt x="287" y="264" on="1"/>
        <pt x="294" y="240" on="0"/>
        <pt x="293" y="117" on="0"/>
        <pt x="286" y="105" on="1"/>
        <pt x="284" y="103" on="0"/>
        <pt x="287" y="94" on="1"/>
        <pt x="294" y="68" on="0"/>
        <pt x="293" y="-58" on="0"/>
        <pt x="285" y="-66" on="1"/>
        <pt x="283" y="-68" on="0"/>
        <pt x="198" y="-68" on="1"/>
        <pt x="113" y="-67" on="1"/>
        <pt x="111" y="-59" on="1"/>
        <pt x="104" y="-34" on="0"/>
        <pt x="104" y="74" on="0"/>
        <pt x="111" y="94" on="1"/>
        <pt x="113" y="102" on="0"/>
        <pt x="111" y="112" on="1"/>
        <pt x="104" y="139" on="0"/>
        <pt x="104" y="244" on="0"/>
        <pt x="111" y="265" on="1"/>
        <pt x="113" y="273" on="0"/>
        <pt x="111" y="282" on="1"/>
        <pt x="104" y="309" on="0"/>
        <pt x="104" y="415" on="0"/>
        <pt x="111" y="436" on="1"/>
        <pt x="113" y="444" on="0"/>
        <pt x="111" y="453" on="1"/>
        <pt x="104" y="480" on="0"/>
        <pt x="104" y="585" on="0"/>
        <pt x="111" y="606" on="1"/>
        <pt x="113" y="614" on="0"/>
        <pt x="111" y="624" on="1"/>
        <pt x="104" y="651" on="0"/>
        <pt x="104" y="756" on="0"/>
        <pt x="111" y="777" on="1"/>
        <pt x="113" y="785" on="0"/>
        <pt x="111" y="794" on="1"/>
        <pt x="104" y="821" on="0"/>
        <pt x="104" y="927" on="0"/>
        <pt x="111" y="948" on="1"/>
        <pt x="113" y="956" on="0"/>
        <pt x="111" y="965" on="1"/>
        <pt x="104" y="993" on="0"/>
        <pt x="104" y="1101" on="0"/>
      </contour>
      <contour>
        <pt x="168" y="1461" on="1"/>
        <pt x="171" y="1468" on="1"/>
        <pt x="228" y="1468" on="1"/>
        <pt x="284" y="1468" on="1"/>
        <pt x="287" y="1461" on="1"/>
        <pt x="295" y="1441" on="0"/>
        <pt x="293" y="1307" on="0"/>
        <pt x="285" y="1299" on="1"/>
        <pt x="284" y="1298" on="0"/>
        <pt x="226" y="1298" on="1"/>
        <pt x="170" y="1298" on="1"/>
        <pt x="167" y="1306" on="1"/>
        <pt x="160" y="1332" on="0"/>
        <pt x="161" y="1443" on="0"/>
      </contour>
      <contour>
        <pt x="680" y="1632" on="1"/>
        <pt x="683" y="1638" on="1"/>
        <pt x="739" y="1638" on="1"/>
        <pt x="796" y="1638" on="0"/>
        <pt x="798" y="1636" on="1"/>
        <pt x="804" y="1626" on="0"/>
        <pt x="808" y="1528" on="0"/>
        <pt x="804" y="1500" on="1"/>
        <pt x="799" y="1472" on="0"/>
        <pt x="795" y="1468" on="0"/>
        <pt x="738" y="1468" on="1"/>
        <pt x="682" y="1469" on="1"/>
        <pt x="679" y="1477" on="1"/>
        <pt x="672" y="1503" on="0"/>
        <pt x="673" y="1614" on="0"/>
      </contour>
      <contour>
        <pt x="282" y="1632" on="1"/>
        <pt x="284" y="1638" on="1"/>
        <pt x="398" y="1638" on="1"/>
        <pt x="511" y="1638" on="0"/>
        <pt x="513" y="1636" on="1"/>
        <pt x="518" y="1627" on="0"/>
        <pt x="523" y="1528" on="0"/>
        <pt x="519" y="1503" on="1"/>
        <pt x="518" y="1501" on="0"/>
        <pt x="516" y="1486" on="0"/>
        <pt x="516" y="1484" on="1"/>
        <pt x="514" y="1471" on="0"/>
        <pt x="513" y="1470" on="1"/>
        <pt x="524" y="1470" on="1"/>
        <pt x="534" y="1469" on="0"/>
        <pt x="573" y="1468" on="0"/>
        <pt x="597" y="1468" on="1"/>
        <pt x="683" y="1468" on="1"/>
        <pt x="685" y="1461" on="1"/>
        <pt x="693" y="1441" on="0"/>
        <pt x="691" y="1307" on="0"/>
        <pt x="683" y="1299" on="1"/>
        <pt x="682" y="1298" on="0"/>
        <pt x="567" y="1298" on="1"/>
        <pt x="454" y="1298" on="1"/>
        <pt x="452" y="1306" on="1"/>
        <pt x="445" y="1332" on="0"/>
        <pt x="445" y="1440" on="0"/>
        <pt x="452" y="1460" on="1"/>
        <pt x="455" y="1468" on="1"/>
        <pt x="369" y="1468" on="1"/>
        <pt x="283" y="1469" on="1"/>
        <pt x="281" y="1477" on="1"/>
        <pt x="274" y="1503" on="0"/>
        <pt x="275" y="1614" on="0"/>
      </contour>
    </TTGlyph>
</ttFont>
